ISO-10303-21;
HEADER;
FILE_DESCRIPTION(('Open CASCADE Model'),'2;1');
FILE_NAME('agitator','2026-08-06T21:57:51',('Author'),('Open CASCADE'),
  'Open CASCADE STEP processor 7.9','build123d','Unknown');
FILE_SCHEMA(('AUTOMOTIVE_DESIGN { 1 0 10303 214 1 1 1 1 }'));
ENDSEC;
DATA;
#1 = APPLICATION_PROTOCOL_DEFINITION('international standard',
  'automotive_design',2000,#2);
#2 = APPLICATION_CONTEXT(
  'core data for automotive mechanical design processes');
#3 = SHAPE_DEFINITION_REPRESENTATION(#4,#10);
#4 = PRODUCT_DEFINITION_SHAPE('','',#5);
#5 = PRODUCT_DEFINITION('design','',#6,#9);
#6 = PRODUCT_DEFINITION_FORMATION('','',#7);
#7 = PRODUCT('agitator','agitator','',(#8));
#8 = PRODUCT_CONTEXT('',#2,'mechanical');
#9 = PRODUCT_DEFINITION_CONTEXT('part definition',#2,'design');
#10 = ADVANCED_BREP_SHAPE_REPRESENTATION('',(#11,#15),#1346);
#11 = AXIS2_PLACEMENT_3D('',#12,#13,#14);
#12 = CARTESIAN_POINT('',(0.,0.,0.));
#13 = DIRECTION('',(0.,0.,1.));
#14 = DIRECTION('',(1.,0.,-0.));
#15 = MANIFOLD_SOLID_BREP('',#16);
#16 = CLOSED_SHELL('',(#17,#880,#936,#971,#1001,#1056,#1111,#1304,#1308,
    #1338,#1342));
#17 = ADVANCED_FACE('',(#18,#316,#511,#706),#55,.T.);
#18 = FACE_BOUND('',#19,.T.);
#19 = EDGE_LOOP('',(#20,#124,#147,#174,#175,#265,#288,#315));
#20 = ORIENTED_EDGE('',*,*,#21,.F.);
#21 = EDGE_CURVE('',#22,#24,#26,.T.);
#22 = VERTEX_POINT('',#23);
#23 = CARTESIAN_POINT('',(13.,-3.184081677783E-15,-275.5));
#24 = VERTEX_POINT('',#25);
#25 = CARTESIAN_POINT('',(13.,-1.836970198721E-15,-279.5));
#26 = SURFACE_CURVE('',#27,(#54,#89),.PCURVE_S1.);
#27 = B_SPLINE_CURVE_WITH_KNOTS('',7,(#28,#29,#30,#31,#32,#33,#34,#35,
    #36,#37,#38,#39,#40,#41,#42,#43,#44,#45,#46,#47,#48,#49,#50,#51,#52,
    #53),.UNSPECIFIED.,.F.,.F.,(8,6,6,6,8),(0.,0.245845820103,
    0.500052933481,0.754259625031,1.),.UNSPECIFIED.);
#28 = CARTESIAN_POINT('',(13.,-1.33226762955E-15,-275.5));
#29 = CARTESIAN_POINT('',(13.,-0.265476577494,-275.5));
#30 = CARTESIAN_POINT('',(12.993674909593,-0.523814251813,
    -275.5411116264));
#31 = CARTESIAN_POINT('',(12.98163821404,-0.767656615304,-275.6193580403
    ));
#32 = CARTESIAN_POINT('',(12.965505316792,-0.990893298734,
    -275.7293977811));
#33 = CARTESIAN_POINT('',(12.947487216826,-1.188854554626,
    -275.8645619195));
#34 = CARTESIAN_POINT('',(12.929580817649,-1.35875759706,-276.0169162434
    ));
#35 = CARTESIAN_POINT('',(12.896151749865,-1.64649793481,-276.3432935909
    ));
#36 = CARTESIAN_POINT('',(12.880277753309,-1.766268930575,
    -276.5223024797));
#37 = CARTESIAN_POINT('',(12.866670107669,-1.860577866294,
    -276.7101779626));
#38 = CARTESIAN_POINT('',(12.856056526773,-1.93048261194,-276.9039414974
    ));
#39 = CARTESIAN_POINT('',(12.848843831385,-1.976806151313,
    -277.1013542869));
#40 = CARTESIAN_POINT('',(12.845232578665,-2.,-277.3005969098));
#41 = CARTESIAN_POINT('',(12.845232578665,-2.,-277.6994027592));
#42 = CARTESIAN_POINT('',(12.848843815713,-1.976806248268,
    -277.8986495874));
#43 = CARTESIAN_POINT('',(12.856056792596,-1.930480903754,
    -278.0960649201));
#44 = CARTESIAN_POINT('',(12.86667054531,-1.860575093859,-278.289825779)
  );
#45 = CARTESIAN_POINT('',(12.880277659858,-1.766268712789,
    -278.4776951113));
#46 = CARTESIAN_POINT('',(12.896151228719,-1.646502420572,
    -278.6567013209));
#47 = CARTESIAN_POINT('',(12.92957429958,-1.358813701266,-278.9830201188
    ));
#48 = CARTESIAN_POINT('',(12.947482615032,-1.188906653394,
    -279.1354110455));
#49 = CARTESIAN_POINT('',(12.965508084037,-0.990887383815,-279.270630097
    ));
#50 = CARTESIAN_POINT('',(12.981646543371,-0.767570759082,
    -279.3806959834));
#51 = CARTESIAN_POINT('',(12.993680748437,-0.52367315072,-279.4589263441
    ));
#52 = CARTESIAN_POINT('',(13.,-0.265353966657,-279.5));
#53 = CARTESIAN_POINT('',(13.,-1.7763568394E-15,-279.5));
#54 = PCURVE('',#55,#60);
#55 = CYLINDRICAL_SURFACE('',#56,13.);
#56 = AXIS2_PLACEMENT_3D('',#57,#58,#59);
#57 = CARTESIAN_POINT('',(0.,0.,-280.));
#58 = DIRECTION('',(0.,0.,1.));
#59 = DIRECTION('',(1.,0.,-0.));
#60 = DEFINITIONAL_REPRESENTATION('',(#61),#88);
#61 = B_SPLINE_CURVE_WITH_KNOTS('',7,(#62,#63,#64,#65,#66,#67,#68,#69,
    #70,#71,#72,#73,#74,#75,#76,#77,#78,#79,#80,#81,#82,#83,#84,#85,#86,
    #87),.UNSPECIFIED.,.F.,.F.,(8,6,6,6,8),(0.,0.245845820103,
    0.500052933481,0.754259625031,1.),.UNSPECIFIED.);
#62 = CARTESIAN_POINT('',(6.28318530718,4.5));
#63 = CARTESIAN_POINT('',(6.262764031988,4.5));
#64 = CARTESIAN_POINT('',(6.242891888159,4.458888373546));
#65 = CARTESIAN_POINT('',(6.224120957167,4.380641959689));
#66 = CARTESIAN_POINT('',(6.206910292968,4.270602218811));
#67 = CARTESIAN_POINT('',(6.191622081849,4.135438080413));
#68 = CARTESIAN_POINT('',(6.178480991904,3.983083756588));
#69 = CARTESIAN_POINT('',(6.15619824663,3.656706409011));
#70 = CARTESIAN_POINT('',(6.146905732405,3.477697520228));
#71 = CARTESIAN_POINT('',(6.139576498688,3.289822037381));
#72 = CARTESIAN_POINT('',(6.134137633764,3.09605850251));
#73 = CARTESIAN_POINT('',(6.130531346583,2.898645713045));
#74 = CARTESIAN_POINT('',(6.128725708695,2.699403090151));
#75 = CARTESIAN_POINT('',(6.128725708695,2.300597240736));
#76 = CARTESIAN_POINT('',(6.13053133898,2.10135041254));
#77 = CARTESIAN_POINT('',(6.134137766897,1.903935079809));
#78 = CARTESIAN_POINT('',(6.139576714327,1.710174220991));
#79 = CARTESIAN_POINT('',(6.146905748193,1.522304888621));
#80 = CARTESIAN_POINT('',(6.156197899251,1.343298679086));
#81 = CARTESIAN_POINT('',(6.178476647168,1.016979881141));
#82 = CARTESIAN_POINT('',(6.191618059769,0.864588954483));
#83 = CARTESIAN_POINT('',(6.206910768652,0.72936990295));
#84 = CARTESIAN_POINT('',(6.224127582309,0.619304016595));
#85 = CARTESIAN_POINT('',(6.242902741822,0.541073655823));
#86 = CARTESIAN_POINT('',(6.262773463591,0.5));
#87 = CARTESIAN_POINT('',(6.28318530718,0.5));
#88 = ( GEOMETRIC_REPRESENTATION_CONTEXT(2) 
PARAMETRIC_REPRESENTATION_CONTEXT() REPRESENTATION_CONTEXT('2D SPACE',''
  ) );
#89 = PCURVE('',#90,#95);
#90 = CYLINDRICAL_SURFACE('',#91,2.);
#91 = AXIS2_PLACEMENT_3D('',#92,#93,#94);
#92 = CARTESIAN_POINT('',(10.5,0.,-277.5));
#93 = DIRECTION('',(1.,0.,2.22044604925E-16));
#94 = DIRECTION('',(2.22044604925E-16,0.,-1.));
#95 = DEFINITIONAL_REPRESENTATION('',(#96),#123);
#96 = B_SPLINE_CURVE_WITH_KNOTS('',7,(#97,#98,#99,#100,#101,#102,#103,
    #104,#105,#106,#107,#108,#109,#110,#111,#112,#113,#114,#115,#116,
    #117,#118,#119,#120,#121,#122),.UNSPECIFIED.,.F.,.F.,(8,6,6,6,8),(0.
    ,0.245845820103,0.500052933481,0.754259625031,1.),.UNSPECIFIED.);
#97 = CARTESIAN_POINT('',(3.14159265359,2.5));
#98 = CARTESIAN_POINT('',(3.274330942337,2.5));
#99 = CARTESIAN_POINT('',(3.403499690451,2.493674909593));
#100 = CARTESIAN_POINT('',(3.529241159564,2.48163821404));
#101 = CARTESIAN_POINT('',(3.65139523187,2.465505316792));
#102 = CARTESIAN_POINT('',(3.769544314685,2.447487216826));
#103 = CARTESIAN_POINT('',(3.882865159073,2.429580817649));
#104 = CARTESIAN_POINT('',(4.100417839464,2.396151749865));
#105 = CARTESIAN_POINT('',(4.207159215786,2.380277753309));
#106 = CARTESIAN_POINT('',(4.311015451441,2.366670107669));
#107 = CARTESIAN_POINT('',(4.41274043778,2.356056526773));
#108 = CARTESIAN_POINT('',(4.513066271551,2.348843831385));
#109 = CARTESIAN_POINT('',(4.612687435309,2.345232578665));
#110 = CARTESIAN_POINT('',(4.812090360017,2.345232578665));
#111 = CARTESIAN_POINT('',(4.91171361622,2.348843815713));
#112 = CARTESIAN_POINT('',(5.012040750458,2.356056792596));
#113 = CARTESIAN_POINT('',(5.113764640009,2.36667054531));
#114 = CARTESIAN_POINT('',(5.217617910797,2.380277659858));
#115 = CARTESIAN_POINT('',(5.324356729743,2.396151228719));
#116 = CARTESIAN_POINT('',(5.541870382825,2.42957429958));
#117 = CARTESIAN_POINT('',(5.655206293866,2.447482615032));
#118 = CARTESIAN_POINT('',(5.773392696425,2.465508084037));
#119 = CARTESIAN_POINT('',(5.895584952093,2.481646543371));
#120 = CARTESIAN_POINT('',(6.021348834283,2.493680748437));
#121 = CARTESIAN_POINT('',(6.150508323851,2.5));
#122 = CARTESIAN_POINT('',(6.28318530718,2.5));
#123 = ( GEOMETRIC_REPRESENTATION_CONTEXT(2) 
PARAMETRIC_REPRESENTATION_CONTEXT() REPRESENTATION_CONTEXT('2D SPACE',''
  ) );
#124 = ORIENTED_EDGE('',*,*,#125,.T.);
#125 = EDGE_CURVE('',#22,#126,#128,.T.);
#126 = VERTEX_POINT('',#127);
#127 = CARTESIAN_POINT('',(13.,-3.184081677783E-15,-272.));
#128 = SEAM_CURVE('',#129,(#133,#140),.PCURVE_S1.);
#129 = LINE('',#130,#131);
#130 = CARTESIAN_POINT('',(13.,-3.184081677783E-15,-280.));
#131 = VECTOR('',#132,1.);
#132 = DIRECTION('',(0.,0.,1.));
#133 = PCURVE('',#55,#134);
#134 = DEFINITIONAL_REPRESENTATION('',(#135),#139);
#135 = LINE('',#136,#137);
#136 = CARTESIAN_POINT('',(0.,-0.));
#137 = VECTOR('',#138,1.);
#138 = DIRECTION('',(0.,1.));
#139 = ( GEOMETRIC_REPRESENTATION_CONTEXT(2) 
PARAMETRIC_REPRESENTATION_CONTEXT() REPRESENTATION_CONTEXT('2D SPACE',''
  ) );
#140 = PCURVE('',#55,#141);
#141 = DEFINITIONAL_REPRESENTATION('',(#142),#146);
#142 = LINE('',#143,#144);
#143 = CARTESIAN_POINT('',(6.28318530718,-0.));
#144 = VECTOR('',#145,1.);
#145 = DIRECTION('',(0.,1.));
#146 = ( GEOMETRIC_REPRESENTATION_CONTEXT(2) 
PARAMETRIC_REPRESENTATION_CONTEXT() REPRESENTATION_CONTEXT('2D SPACE',''
  ) );
#147 = ORIENTED_EDGE('',*,*,#148,.F.);
#148 = EDGE_CURVE('',#126,#126,#149,.T.);
#149 = SURFACE_CURVE('',#150,(#155,#162),.PCURVE_S1.);
#150 = CIRCLE('',#151,13.);
#151 = AXIS2_PLACEMENT_3D('',#152,#153,#154);
#152 = CARTESIAN_POINT('',(0.,0.,-272.));
#153 = DIRECTION('',(0.,0.,1.));
#154 = DIRECTION('',(1.,0.,-0.));
#155 = PCURVE('',#55,#156);
#156 = DEFINITIONAL_REPRESENTATION('',(#157),#161);
#157 = LINE('',#158,#159);
#158 = CARTESIAN_POINT('',(0.,8.));
#159 = VECTOR('',#160,1.);
#160 = DIRECTION('',(1.,0.));
#161 = ( GEOMETRIC_REPRESENTATION_CONTEXT(2) 
PARAMETRIC_REPRESENTATION_CONTEXT() REPRESENTATION_CONTEXT('2D SPACE',''
  ) );
#162 = PCURVE('',#163,#168);
#163 = PLANE('',#164);
#164 = AXIS2_PLACEMENT_3D('',#165,#166,#167);
#165 = CARTESIAN_POINT('',(0.,0.,-272.));
#166 = DIRECTION('',(0.,0.,1.));
#167 = DIRECTION('',(1.,0.,-0.));
#168 = DEFINITIONAL_REPRESENTATION('',(#169),#173);
#169 = CIRCLE('',#170,13.);
#170 = AXIS2_PLACEMENT_2D('',#171,#172);
#171 = CARTESIAN_POINT('',(0.,0.));
#172 = DIRECTION('',(1.,0.));
#173 = ( GEOMETRIC_REPRESENTATION_CONTEXT(2) 
PARAMETRIC_REPRESENTATION_CONTEXT() REPRESENTATION_CONTEXT('2D SPACE',''
  ) );
#174 = ORIENTED_EDGE('',*,*,#125,.F.);
#175 = ORIENTED_EDGE('',*,*,#176,.F.);
#176 = EDGE_CURVE('',#24,#22,#177,.T.);
#177 = SURFACE_CURVE('',#178,(#205,#235),.PCURVE_S1.);
#178 = B_SPLINE_CURVE_WITH_KNOTS('',7,(#179,#180,#181,#182,#183,#184,
    #185,#186,#187,#188,#189,#190,#191,#192,#193,#194,#195,#196,#197,
    #198,#199,#200,#201,#202,#203,#204),.UNSPECIFIED.,.F.,.F.,(8,6,6,6,8
    ),(0.,0.245821341064,0.500010633098,0.754212789776,1.),
  .UNSPECIFIED.);
#179 = CARTESIAN_POINT('',(13.,-2.449293598295E-16,-279.5));
#180 = CARTESIAN_POINT('',(13.,0.265476577494,-279.5));
#181 = CARTESIAN_POINT('',(12.993674909593,0.523814251813,
    -279.4588883735));
#182 = CARTESIAN_POINT('',(12.98163821404,0.767656615303,-279.3806419596
    ));
#183 = CARTESIAN_POINT('',(12.965505316792,0.990893298735,
    -279.2706022188));
#184 = CARTESIAN_POINT('',(12.947487216826,1.188854554626,
    -279.1354380804));
#185 = CARTESIAN_POINT('',(12.929580817649,1.35875759706,-278.9830837565
    ));
#186 = CARTESIAN_POINT('',(12.896151249086,1.646502245269,
    -278.6567015197));
#187 = CARTESIAN_POINT('',(12.880277836072,1.766267227424,
    -278.4776969407));
#188 = CARTESIAN_POINT('',(12.866670626379,1.86057498949,-278.2898273557
    ));
#189 = CARTESIAN_POINT('',(12.85605645449,1.930483022396,-278.096062431)
  );
#190 = CARTESIAN_POINT('',(12.848843459651,1.976808554395,
    -277.8986413744));
#191 = CARTESIAN_POINT('',(12.845232578665,2.,-277.6993926741));
#192 = CARTESIAN_POINT('',(12.845232578665,2.,-277.3005972344));
#193 = CARTESIAN_POINT('',(12.848843815868,1.976806246692,
    -277.1013504278));
#194 = CARTESIAN_POINT('',(12.856056791766,1.930480911221,
    -276.9039350687));
#195 = CARTESIAN_POINT('',(12.866670546943,1.860575079829,
    -276.7101742155));
#196 = CARTESIAN_POINT('',(12.880277658377,1.766268725376,
    -276.5223049007));
#197 = CARTESIAN_POINT('',(12.896151229275,1.646502415786,
    -276.3432986736));
#198 = CARTESIAN_POINT('',(12.929577723265,1.358784231937,
    -276.0169464547));
#199 = CARTESIAN_POINT('',(12.947484585557,1.188883170583,
    -275.8645791374));
#200 = CARTESIAN_POINT('',(12.965505952139,0.990897707663,
    -275.7293888198));
#201 = CARTESIAN_POINT('',(12.981642037643,0.767621649873,
    -275.6193331176));
#202 = CARTESIAN_POINT('',(12.993677906282,0.523746856872,
    -275.5410921769));
#203 = CARTESIAN_POINT('',(13.,0.265413791491,-275.5));
#204 = CARTESIAN_POINT('',(13.,3.673940397442E-16,-275.5));
#205 = PCURVE('',#55,#206);
#206 = DEFINITIONAL_REPRESENTATION('',(#207),#234);
#207 = B_SPLINE_CURVE_WITH_KNOTS('',7,(#208,#209,#210,#211,#212,#213,
    #214,#215,#216,#217,#218,#219,#220,#221,#222,#223,#224,#225,#226,
    #227,#228,#229,#230,#231,#232,#233),.UNSPECIFIED.,.F.,.F.,(8,6,6,6,8
    ),(0.,0.245821341064,0.500010633098,0.754212789776,1.),
  .UNSPECIFIED.);
#208 = CARTESIAN_POINT('',(0.,0.5));
#209 = CARTESIAN_POINT('',(2.042127519184E-02,0.5));
#210 = CARTESIAN_POINT('',(4.029341902108E-02,0.541111626454));
#211 = CARTESIAN_POINT('',(5.906435001226E-02,0.61935804031));
#212 = CARTESIAN_POINT('',(7.627501421183E-02,0.729397781189));
#213 = CARTESIAN_POINT('',(9.156322533077E-02,0.864561919587));
#214 = CARTESIAN_POINT('',(0.104704315276,1.016916243412));
#215 = CARTESIAN_POINT('',(0.126987394353,1.343298480244));
#216 = CARTESIAN_POINT('',(0.136279443977,1.522303059298));
#217 = CARTESIAN_POINT('',(0.143608583968,1.71017264423));
#218 = CARTESIAN_POINT('',(0.149047705356,1.903937568977));
#219 = CARTESIAN_POINT('',(0.152654147671,2.101358625527));
#220 = CARTESIAN_POINT('',(0.154459598484,2.300607325852));
#221 = CARTESIAN_POINT('',(0.154459598484,2.699402765509));
#222 = CARTESIAN_POINT('',(0.152653968078,2.898649572196));
#223 = CARTESIAN_POINT('',(0.14904754086,3.096064931233));
#224 = CARTESIAN_POINT('',(0.143608591766,3.289825784466));
#225 = CARTESIAN_POINT('',(0.136279559961,3.477695099231));
#226 = CARTESIAN_POINT('',(0.126987407558,3.656701326342));
#227 = CARTESIAN_POINT('',(0.104706377893,3.983053545251));
#228 = CARTESIAN_POINT('',(9.156543558403E-02,4.135420862596));
#229 = CARTESIAN_POINT('',(7.627534528717E-02,4.270611180144));
#230 = CARTESIAN_POINT('',(5.906164995733E-02,4.380666882382));
#231 = CARTESIAN_POINT('',(4.028823477004E-02,4.458907823061));
#232 = CARTESIAN_POINT('',(2.041644549933E-02,4.5));
#233 = CARTESIAN_POINT('',(0.,4.5));
#234 = ( GEOMETRIC_REPRESENTATION_CONTEXT(2) 
PARAMETRIC_REPRESENTATION_CONTEXT() REPRESENTATION_CONTEXT('2D SPACE',''
  ) );
#235 = PCURVE('',#90,#236);
#236 = DEFINITIONAL_REPRESENTATION('',(#237),#264);
#237 = B_SPLINE_CURVE_WITH_KNOTS('',7,(#238,#239,#240,#241,#242,#243,
    #244,#245,#246,#247,#248,#249,#250,#251,#252,#253,#254,#255,#256,
    #257,#258,#259,#260,#261,#262,#263),.UNSPECIFIED.,.F.,.F.,(8,6,6,6,8
    ),(0.,0.245821341064,0.500010633098,0.754212789776,1.),
  .UNSPECIFIED.);
#238 = CARTESIAN_POINT('',(0.,2.5));
#239 = CARTESIAN_POINT('',(0.132738288747,2.5));
#240 = CARTESIAN_POINT('',(0.261907036861,2.493674909593));
#241 = CARTESIAN_POINT('',(0.387648505974,2.48163821404));
#242 = CARTESIAN_POINT('',(0.509802578281,2.465505316792));
#243 = CARTESIAN_POINT('',(0.627951661095,2.447487216826));
#244 = CARTESIAN_POINT('',(0.741272505484,2.429580817649));
#245 = CARTESIAN_POINT('',(0.958828444895,2.396151249086));
#246 = CARTESIAN_POINT('',(1.065566226372,2.380277836072));
#247 = CARTESIAN_POINT('',(1.169420003638,2.366670626379));
#248 = CARTESIAN_POINT('',(1.271146066653,2.35605645449));
#249 = CARTESIAN_POINT('',(1.371475783309,2.348843459651));
#250 = CARTESIAN_POINT('',(1.471099989721,2.345232578665));
#251 = CARTESIAN_POINT('',(1.67049770955,2.345232578665));
#252 = CARTESIAN_POINT('',(1.770120955389,2.348843815868));
#253 = CARTESIAN_POINT('',(1.870448100868,2.356056791766));
#254 = CARTESIAN_POINT('',(1.972171991771,2.366670546943));
#255 = CARTESIAN_POINT('',(2.076025248821,2.380277658377));
#256 = CARTESIAN_POINT('',(2.182764079772,2.396151229275));
#257 = CARTESIAN_POINT('',(2.400300010197,2.429577723265));
#258 = CARTESIAN_POINT('',(2.51362507632,2.447484585557));
#259 = CARTESIAN_POINT('',(2.631790829484,2.465505952139));
#260 = CARTESIAN_POINT('',(2.753964304779,2.481642037643));
#261 = CARTESIAN_POINT('',(2.879719321411,2.493677906282));
#262 = CARTESIAN_POINT('',(3.008885757844,2.5));
#263 = CARTESIAN_POINT('',(3.14159265359,2.5));
#264 = ( GEOMETRIC_REPRESENTATION_CONTEXT(2) 
PARAMETRIC_REPRESENTATION_CONTEXT() REPRESENTATION_CONTEXT('2D SPACE',''
  ) );
#265 = ORIENTED_EDGE('',*,*,#266,.F.);
#266 = EDGE_CURVE('',#267,#24,#269,.T.);
#267 = VERTEX_POINT('',#268);
#268 = CARTESIAN_POINT('',(13.,-3.184081677783E-15,-280.));
#269 = SEAM_CURVE('',#270,(#274,#281),.PCURVE_S1.);
#270 = LINE('',#271,#272);
#271 = CARTESIAN_POINT('',(13.,-3.184081677783E-15,-280.));
#272 = VECTOR('',#273,1.);
#273 = DIRECTION('',(0.,0.,1.));
#274 = PCURVE('',#55,#275);
#275 = DEFINITIONAL_REPRESENTATION('',(#276),#280);
#276 = LINE('',#277,#278);
#277 = CARTESIAN_POINT('',(6.28318530718,-0.));
#278 = VECTOR('',#279,1.);
#279 = DIRECTION('',(0.,1.));
#280 = ( GEOMETRIC_REPRESENTATION_CONTEXT(2) 
PARAMETRIC_REPRESENTATION_CONTEXT() REPRESENTATION_CONTEXT('2D SPACE',''
  ) );
#281 = PCURVE('',#55,#282);
#282 = DEFINITIONAL_REPRESENTATION('',(#283),#287);
#283 = LINE('',#284,#285);
#284 = CARTESIAN_POINT('',(0.,-0.));
#285 = VECTOR('',#286,1.);
#286 = DIRECTION('',(0.,1.));
#287 = ( GEOMETRIC_REPRESENTATION_CONTEXT(2) 
PARAMETRIC_REPRESENTATION_CONTEXT() REPRESENTATION_CONTEXT('2D SPACE',''
  ) );
#288 = ORIENTED_EDGE('',*,*,#289,.T.);
#289 = EDGE_CURVE('',#267,#267,#290,.T.);
#290 = SURFACE_CURVE('',#291,(#296,#303),.PCURVE_S1.);
#291 = CIRCLE('',#292,13.);
#292 = AXIS2_PLACEMENT_3D('',#293,#294,#295);
#293 = CARTESIAN_POINT('',(0.,0.,-280.));
#294 = DIRECTION('',(0.,0.,1.));
#295 = DIRECTION('',(1.,0.,-0.));
#296 = PCURVE('',#55,#297);
#297 = DEFINITIONAL_REPRESENTATION('',(#298),#302);
#298 = LINE('',#299,#300);
#299 = CARTESIAN_POINT('',(0.,0.));
#300 = VECTOR('',#301,1.);
#301 = DIRECTION('',(1.,0.));
#302 = ( GEOMETRIC_REPRESENTATION_CONTEXT(2) 
PARAMETRIC_REPRESENTATION_CONTEXT() REPRESENTATION_CONTEXT('2D SPACE',''
  ) );
#303 = PCURVE('',#304,#309);
#304 = PLANE('',#305);
#305 = AXIS2_PLACEMENT_3D('',#306,#307,#308);
#306 = CARTESIAN_POINT('',(0.,0.,-280.));
#307 = DIRECTION('',(0.,0.,1.));
#308 = DIRECTION('',(1.,0.,-0.));
#309 = DEFINITIONAL_REPRESENTATION('',(#310),#314);
#310 = CIRCLE('',#311,13.);
#311 = AXIS2_PLACEMENT_2D('',#312,#313);
#312 = CARTESIAN_POINT('',(0.,0.));
#313 = DIRECTION('',(1.,0.));
#314 = ( GEOMETRIC_REPRESENTATION_CONTEXT(2) 
PARAMETRIC_REPRESENTATION_CONTEXT() REPRESENTATION_CONTEXT('2D SPACE',''
  ) );
#315 = ORIENTED_EDGE('',*,*,#266,.T.);
#316 = FACE_BOUND('',#317,.T.);
#317 = EDGE_LOOP('',(#318));
#318 = ORIENTED_EDGE('',*,*,#319,.F.);
#319 = EDGE_CURVE('',#320,#320,#322,.T.);
#320 = VERTEX_POINT('',#321);
#321 = CARTESIAN_POINT('',(-6.5,11.258330249198,-279.5));
#322 = SURFACE_CURVE('',#323,(#382,#444),.PCURVE_S1.);
#323 = B_SPLINE_CURVE_WITH_KNOTS('',8,(#324,#325,#326,#327,#328,#329,
    #330,#331,#332,#333,#334,#335,#336,#337,#338,#339,#340,#341,#342,
    #343,#344,#345,#346,#347,#348,#349,#350,#351,#352,#353,#354,#355,
    #356,#357,#358,#359,#360,#361,#362,#363,#364,#365,#366,#367,#368,
    #369,#370,#371,#372,#373,#374,#375,#376,#377,#378,#379,#380,#381),
  .UNSPECIFIED.,.T.,.F.,(9,7,7,7,7,7,7,7,9),(0.,0.137082142971,
    0.278830669447,0.448731828747,0.594961690576,0.689502143188,
    0.793492841704,0.898494959254,1.),.UNSPECIFIED.);
#324 = CARTESIAN_POINT('',(-6.5,11.258330249198,-279.5));
#325 = CARTESIAN_POINT('',(-6.701170777692,11.142184246544,-279.5));
#326 = CARTESIAN_POINT('',(-6.895332792853,11.024607065851,
    -279.4691662801));
#327 = CARTESIAN_POINT('',(-7.078695987184,10.908229643148,
    -279.4099843648));
#328 = CARTESIAN_POINT('',(-7.248260332398,10.795805248161,
    -279.3256220892));
#329 = CARTESIAN_POINT('',(-7.401802837509,10.690041042785,
    -279.2199156669));
#330 = CARTESIAN_POINT('',(-7.537868641959,10.593310838184,
    -279.0973494994));
#331 = CARTESIAN_POINT('',(-7.655795800546,10.507345969248,
    -278.9630262533));
#332 = CARTESIAN_POINT('',(-7.859215267557,10.356125686995,
    -278.6774417961));
#333 = CARTESIAN_POINT('',(-7.945825504226,10.289921517626,
    -278.5224480854));
#334 = CARTESIAN_POINT('',(-8.016564527405,10.234677906189,
    -278.3602784501));
#335 = CARTESIAN_POINT('',(-8.072258042974,10.190503050352,
    -278.1929448933));
#336 = CARTESIAN_POINT('',(-8.113567787515,10.15740144484,
    -278.0220295348));
#337 = CARTESIAN_POINT('',(-8.140957891488,10.135339858743,
    -277.8488291993));
#338 = CARTESIAN_POINT('',(-8.154667096901,10.124297730643,
    -277.6744685898));
#339 = CARTESIAN_POINT('',(-8.154667096901,10.124297730643,
    -277.2908802552));
#340 = CARTESIAN_POINT('',(-8.134970979237,10.140161825057,
    -277.0820368663));
#341 = CARTESIAN_POINT('',(-8.095671449378,10.171816756532,
    -276.875129777));
#342 = CARTESIAN_POINT('',(-8.036213027039,10.219352776424,
    -276.672017312));
#343 = CARTESIAN_POINT('',(-7.9556021604,10.282874369909,-276.4751025813
    ));
#344 = CARTESIAN_POINT('',(-7.852496487161,10.362322449356,
    -276.2875467987));
#345 = CARTESIAN_POINT('',(-7.725341223963,10.457263477952,
    -276.1135592332));
#346 = CARTESIAN_POINT('',(-7.441363803716,10.660779588875,
    -275.8259252857));
#347 = CARTESIAN_POINT('',(-7.286323031176,10.769066919705,
    -275.7023661147));
#348 = CARTESIAN_POINT('',(-7.109204899018,10.888669265932,
    -275.5988655101));
#349 = CARTESIAN_POINT('',(-6.913508266461,11.015285487638,
    -275.5232903932));
#350 = CARTESIAN_POINT('',(-6.704430274619,11.143845982286,
    -275.4808327954));
#351 = CARTESIAN_POINT('',(-6.488459741008,11.269664982367,
    -275.4739784298));
#352 = CARTESIAN_POINT('',(-6.272811707983,11.388911214785,
    -275.5024090315));
#353 = CARTESIAN_POINT('',(-5.929817983579,11.569807367185,
    -275.6018993879));
#354 = CARTESIAN_POINT('',(-5.797226089436,11.63743266501,
    -275.6546223247));
#355 = CARTESIAN_POINT('',(-5.668074509088,11.701120995752,
    -275.7206295623));
#356 = CARTESIAN_POINT('',(-5.543709164198,11.760459540242,
    -275.7993763009));
#357 = CARTESIAN_POINT('',(-5.42545400409,11.815141872795,
    -275.8901493075));
#358 = CARTESIAN_POINT('',(-5.314583765016,11.864953369483,
    -275.9920743794));
#359 = CARTESIAN_POINT('',(-5.212284493614,11.909754708561,
    -276.1041278337));
#360 = CARTESIAN_POINT('',(-5.017654634296,11.993141497257,
    -276.3582737622));
#361 = CARTESIAN_POINT('',(-4.927307446556,12.030673503461,
    -276.5022965648));
#362 = CARTESIAN_POINT('',(-4.849978753148,12.061935916289,
    -276.6556806461));
#363 = CARTESIAN_POINT('',(-4.786859177721,12.086906645862,
    -276.8167232358));
#364 = CARTESIAN_POINT('',(-4.738876908792,12.105607788285,
    -276.9836019114));
#365 = CARTESIAN_POINT('',(-4.7066699906,12.118067027798,-277.1544127381
    ));
#366 = CARTESIAN_POINT('',(-4.690565481764,12.124297730643,
    -277.3272032108));
#367 = CARTESIAN_POINT('',(-4.690565481764,12.124297730643,
    -277.6744774198));
#368 = CARTESIAN_POINT('',(-4.706984480395,12.117945640521,
    -277.8488378705));
#369 = CARTESIAN_POINT('',(-4.739785858255,12.105255747539,
    -278.0220341715));
#370 = CARTESIAN_POINT('',(-4.789106436968,12.086031662734,
    -278.1929453578));
#371 = CARTESIAN_POINT('',(-4.855208209096,12.059887693297,
    -278.3602767775));
#372 = CARTESIAN_POINT('',(-4.938419606121,12.026247962852,
    -278.522446656));
#373 = CARTESIAN_POINT('',(-5.039060158063,11.984342978602,
    -278.6774416268));
#374 = CARTESIAN_POINT('',(-5.271685269585,11.883806240461,
    -278.9629705703));
#375 = CARTESIAN_POINT('',(-5.405093448583,11.824663303326,
    -279.0973133138));
#376 = CARTESIAN_POINT('',(-5.556931975696,11.755177735925,
    -279.2199229527));
#377 = CARTESIAN_POINT('',(-5.725353945231,11.675062067354,
    -279.3256630402));
#378 = CARTESIAN_POINT('',(-5.907551980354,11.584398490221,
    -279.4100323686));
#379 = CARTESIAN_POINT('',(-6.100043772782,11.48377245226,
    -279.4691947581));
#380 = CARTESIAN_POINT('',(-6.298922133396,11.37442260961,-279.5));
#381 = CARTESIAN_POINT('',(-6.5,11.258330249198,-279.5));
#382 = PCURVE('',#55,#383);
#383 = DEFINITIONAL_REPRESENTATION('',(#384),#443);
#384 = B_SPLINE_CURVE_WITH_KNOTS('',8,(#385,#386,#387,#388,#389,#390,
    #391,#392,#393,#394,#395,#396,#397,#398,#399,#400,#401,#402,#403,
    #404,#405,#406,#407,#408,#409,#410,#411,#412,#413,#414,#415,#416,
    #417,#418,#419,#420,#421,#422,#423,#424,#425,#426,#427,#428,#429,
    #430,#431,#432,#433,#434,#435,#436,#437,#438,#439,#440,#441,#442),
  .UNSPECIFIED.,.T.,.F.,(9,7,7,7,7,7,7,7,9),(0.,0.137082142971,
    0.278830669447,0.448731828747,0.594961690576,0.689502143188,
    0.793492841704,0.898494959254,1.),.UNSPECIFIED.);
#385 = CARTESIAN_POINT('',(2.094395102393,0.5));
#386 = CARTESIAN_POINT('',(2.112263718186,0.5));
#387 = CARTESIAN_POINT('',(2.129720485457,0.53083371984));
#388 = CARTESIAN_POINT('',(2.146420353284,0.590015635114));
#389 = CARTESIAN_POINT('',(2.162064784505,0.67437791075));
#390 = CARTESIAN_POINT('',(2.176403195775,0.780084333089));
#391 = CARTESIAN_POINT('',(2.18924360021,0.902650500543));
#392 = CARTESIAN_POINT('',(2.200468802643,1.036973746654));
#393 = CARTESIAN_POINT('',(2.219966496836,1.322558203883));
#394 = CARTESIAN_POINT('',(2.228351533964,1.477551914534));
#395 = CARTESIAN_POINT('',(2.235255258864,1.63972154988));
#396 = CARTESIAN_POINT('',(2.240723247055,1.807055106603));
#397 = CARTESIAN_POINT('',(2.244795223617,1.977970465183));
#398 = CARTESIAN_POINT('',(2.247500612768,2.151170800608));
#399 = CARTESIAN_POINT('',(2.248854700877,2.32553141012));
#400 = CARTESIAN_POINT('',(2.248854700877,2.709119744796));
#401 = CARTESIAN_POINT('',(2.246909280614,2.917963133658));
#402 = CARTESIAN_POINT('',(2.243027536315,3.124870222945));
#403 = CARTESIAN_POINT('',(2.237171823551,3.327982687945));
#404 = CARTESIAN_POINT('',(2.229277569529,3.524897418631));
#405 = CARTESIAN_POINT('',(2.219266344908,3.712453201299));
#406 = CARTESIAN_POINT('',(2.207061815532,3.88644076674));
#407 = CARTESIAN_POINT('',(2.180186915492,4.174074714273));
#408 = CARTESIAN_POINT('',(2.165640826662,4.297633885211));
#409 = CARTESIAN_POINT('',(2.149204386127,4.401134489893));
#410 = CARTESIAN_POINT('',(2.131282115658,4.476709606708));
#411 = CARTESIAN_POINT('',(2.112412536416,4.519167204524));
#412 = CARTESIAN_POINT('',(2.093193812336,4.526021570149));
#413 = CARTESIAN_POINT('',(2.074242002028,4.497590968498));
#414 = CARTESIAN_POINT('',(2.044413288554,4.398100612059));
#415 = CARTESIAN_POINT('',(2.032965014959,4.345377675211));
#416 = CARTESIAN_POINT('',(2.02188965344,4.27937043767));
#417 = CARTESIAN_POINT('',(2.011291596959,4.20062369901));
#418 = CARTESIAN_POINT('',(2.001270850813,4.109850692479));
#419 = CARTESIAN_POINT('',(1.991921886283,4.007925620588));
#420 = CARTESIAN_POINT('',(1.983331433614,3.89587216626));
#421 = CARTESIAN_POINT('',(1.967043684802,3.641726237734));
#422 = CARTESIAN_POINT('',(1.959518553317,3.497703435168));
#423 = CARTESIAN_POINT('',(1.953102854748,3.344319353849));
#424 = CARTESIAN_POINT('',(1.947881536295,3.183276764187));
#425 = CARTESIAN_POINT('',(1.943920185222,3.016398088551));
#426 = CARTESIAN_POINT('',(1.94126378558,2.845587261854));
#427 = CARTESIAN_POINT('',(1.939935503909,2.672796789111));
#428 = CARTESIAN_POINT('',(1.939935503909,2.325522580179));
#429 = CARTESIAN_POINT('',(1.941289726714,2.151162129476));
#430 = CARTESIAN_POINT('',(1.943995151326,1.977965828406));
#431 = CARTESIAN_POINT('',(1.94806703608,1.80705464215));
#432 = CARTESIAN_POINT('',(1.953534897554,1.639723222497));
#433 = CARTESIAN_POINT('',(1.960438580533,1.477553343991));
#434 = CARTESIAN_POINT('',(1.968823696396,1.32255837312));
#435 = CARTESIAN_POINT('',(1.9883176005,1.037029429666));
#436 = CARTESIAN_POINT('',(1.999542501832,0.902686686147));
#437 = CARTESIAN_POINT('',(2.012385798034,0.780077047275));
#438 = CARTESIAN_POINT('',(2.026728970694,0.674336959773));
#439 = CARTESIAN_POINT('',(2.04237806234,0.589967631305));
#440 = CARTESIAN_POINT('',(2.059080217478,0.530805241867));
#441 = CARTESIAN_POINT('',(2.076534739253,0.5));
#442 = CARTESIAN_POINT('',(2.094395102393,0.5));
#443 = ( GEOMETRIC_REPRESENTATION_CONTEXT(2) 
PARAMETRIC_REPRESENTATION_CONTEXT() REPRESENTATION_CONTEXT('2D SPACE',''
  ) );
#444 = PCURVE('',#445,#450);
#445 = CYLINDRICAL_SURFACE('',#446,2.);
#446 = AXIS2_PLACEMENT_3D('',#447,#448,#449);
#447 = CARTESIAN_POINT('',(-5.25,9.093266739737,-277.5));
#448 = DIRECTION('',(-0.5,0.866025403784,2.22044604925E-16));
#449 = DIRECTION('',(-1.110223024625E-16,1.922962686384E-16,-1.));
#450 = DEFINITIONAL_REPRESENTATION('',(#451),#510);
#451 = B_SPLINE_CURVE_WITH_KNOTS('',8,(#452,#453,#454,#455,#456,#457,
    #458,#459,#460,#461,#462,#463,#464,#465,#466,#467,#468,#469,#470,
    #471,#472,#473,#474,#475,#476,#477,#478,#479,#480,#481,#482,#483,
    #484,#485,#486,#487,#488,#489,#490,#491,#492,#493,#494,#495,#496,
    #497,#498,#499,#500,#501,#502,#503,#504,#505,#506,#507,#508,#509),
  .UNSPECIFIED.,.F.,.F.,(9,7,7,7,7,7,7,7,9),(0.,0.137082142971,
    0.278830669447,0.448731828747,0.594961690576,0.689502143188,
    0.793492841704,0.898494959254,1.),.UNSPECIFIED.);
#452 = CARTESIAN_POINT('',(0.,2.5));
#453 = CARTESIAN_POINT('',(0.116146002654,2.5));
#454 = CARTESIAN_POINT('',(0.229614849833,2.495256182195));
#455 = CARTESIAN_POINT('',(0.340495455057,2.486151974872));
#456 = CARTESIAN_POINT('',(0.448725542127,2.473571765416));
#457 = CARTESIAN_POINT('',(0.554108484336,2.458748529305));
#458 = CARTESIAN_POINT('',(0.656281872193,2.443010617032));
#459 = CARTESIAN_POINT('',(0.754642194357,2.427526435994));
#460 = CARTESIAN_POINT('',(0.945003641341,2.398275563501));
#461 = CARTESIAN_POINT('',(1.038881781003,2.384246189325));
#462 = CARTESIAN_POINT('',(1.130474837163,2.371773330014));
#463 = CARTESIAN_POINT('',(1.220283035145,2.361363540435));
#464 = CARTESIAN_POINT('',(1.308769710399,2.353351581425));
#465 = CARTESIAN_POINT('',(1.396381834912,2.347940739404));
#466 = CARTESIAN_POINT('',(1.483562031855,2.345232578665));
#467 = CARTESIAN_POINT('',(1.675356199193,2.345232578665));
#468 = CARTESIAN_POINT('',(1.77977758764,2.349123228603));
#469 = CARTESIAN_POINT('',(1.884974122152,2.356887438486));
#470 = CARTESIAN_POINT('',(1.99173556316,2.368325628138));
#471 = CARTESIAN_POINT('',(2.100824237612,2.383031508466));
#472 = CARTESIAN_POINT('',(2.213018934149,2.400282726929));
#473 = CARTESIAN_POINT('',(2.329184110947,2.418926437955));
#474 = CARTESIAN_POINT('',(2.554806265242,2.45318784997));
#475 = CARTESIAN_POINT('',(2.666773585933,2.469447043107));
#476 = CARTESIAN_POINT('',(2.783624047274,2.484466647213));
#477 = CARTESIAN_POINT('',(2.903655010999,2.496271195463));
#478 = CARTESIAN_POINT('',(3.025654095012,2.50306885383));
#479 = CARTESIAN_POINT('',(3.148579008859,2.504046037374));
#480 = CARTESIAN_POINT('',(3.271434132272,2.499492287441));
#481 = CARTESIAN_POINT('',(3.471463087154,2.484656088664));
#482 = CARTESIAN_POINT('',(3.550004267078,2.476925367448));
#483 = CARTESIAN_POINT('',(3.628539596336,2.46750528962));
#484 = CARTESIAN_POINT('',(3.707074452859,2.456711304127));
#485 = CARTESIAN_POINT('',(3.785614273597,2.444940013203));
#486 = CARTESIAN_POINT('',(3.864159358917,2.432642915198));
#487 = CARTESIAN_POINT('',(3.942703809622,2.420292377263));
#488 = CARTESIAN_POINT('',(4.107623706138,2.395192524954));
#489 = CARTESIAN_POINT('',(4.194027147509,2.382522601912));
#490 = CARTESIAN_POINT('',(4.28042780527,2.3709322989));
#491 = CARTESIAN_POINT('',(4.366819890093,2.360997797348));
#492 = CARTESIAN_POINT('',(4.45320685551,2.353202327302));
#493 = CARTESIAN_POINT('',(4.539595547346,2.347888886135));
#494 = CARTESIAN_POINT('',(4.625990585829,2.345232578665));
#495 = CARTESIAN_POINT('',(4.799627690295,2.345232578665));
#496 = CARTESIAN_POINT('',(4.886807797519,2.347941006567));
#497 = CARTESIAN_POINT('',(4.974418074903,2.353351925804));
#498 = CARTESIAN_POINT('',(5.062902699909,2.361363669354));
#499 = CARTESIAN_POINT('',(5.152709616754,2.371773213731));
#500 = CARTESIAN_POINT('',(5.244302610149,2.384246051101));
#501 = CARTESIAN_POINT('',(5.33818155303,2.398275546167));
#502 = CARTESIAN_POINT('',(5.528505996311,2.427520732684));
#503 = CARTESIAN_POINT('',(5.626872316106,2.443005536169));
#504 = CARTESIAN_POINT('',(5.729072795465,2.45874853316));
#505 = CARTESIAN_POINT('',(5.834488824259,2.473577313704));
#506 = CARTESIAN_POINT('',(5.942746407914,2.486159370271));
#507 = CARTESIAN_POINT('',(6.053638706676,2.495260561328));
#508 = CARTESIAN_POINT('',(6.167092946768,2.5));
#509 = CARTESIAN_POINT('',(6.28318530718,2.5));
#510 = ( GEOMETRIC_REPRESENTATION_CONTEXT(2) 
PARAMETRIC_REPRESENTATION_CONTEXT() REPRESENTATION_CONTEXT('2D SPACE',''
  ) );
#511 = FACE_BOUND('',#512,.T.);
#512 = EDGE_LOOP('',(#513));
#513 = ORIENTED_EDGE('',*,*,#514,.F.);
#514 = EDGE_CURVE('',#515,#515,#517,.T.);
#515 = VERTEX_POINT('',#516);
#516 = CARTESIAN_POINT('',(-6.5,-11.25833024919,-279.5));
#517 = SURFACE_CURVE('',#518,(#577,#639),.PCURVE_S1.);
#518 = B_SPLINE_CURVE_WITH_KNOTS('',8,(#519,#520,#521,#522,#523,#524,
    #525,#526,#527,#528,#529,#530,#531,#532,#533,#534,#535,#536,#537,
    #538,#539,#540,#541,#542,#543,#544,#545,#546,#547,#548,#549,#550,
    #551,#552,#553,#554,#555,#556,#557,#558,#559,#560,#561,#562,#563,
    #564,#565,#566,#567,#568,#569,#570,#571,#572,#573,#574,#575,#576),
  .UNSPECIFIED.,.T.,.F.,(9,7,7,7,7,7,7,7,9),(0.,0.137082142971,
    0.278830669448,0.448731828748,0.594961690577,0.689502143189,
    0.793492841705,0.898494959255,1.),.UNSPECIFIED.);
#519 = CARTESIAN_POINT('',(-6.5,-11.25833024919,-279.5));
#520 = CARTESIAN_POINT('',(-6.298829222308,-11.37447625185,-279.5));
#521 = CARTESIAN_POINT('',(-6.099923389342,-11.48383689908,
    -279.4691662801));
#522 = CARTESIAN_POINT('',(-5.907455987688,-11.58444537214,
    -279.4099843648));
#523 = CARTESIAN_POINT('',(-5.725311433018,-11.67508020518,
    -279.3256220892));
#524 = CARTESIAN_POINT('',(-5.556945691796,-11.75516981247,
    -279.2199156669));
#525 = CARTESIAN_POINT('',(-5.405141975073,-11.82464115341,
    -279.0973494994));
#526 = CARTESIAN_POINT('',(-5.271730635447,-11.88378663408,
    -278.9630262533));
#527 = CARTESIAN_POINT('',(-5.039060295944,-11.98434291901,
    -278.6774417961));
#528 = CARTESIAN_POINT('',(-4.938420685099,-12.02624749951,
    -278.5224480854));
#529 = CARTESIAN_POINT('',(-4.855208802609,-12.0598874849,
    -278.3602784501));
#530 = CARTESIAN_POINT('',(-4.78910549746,-12.08603205629,
    -278.1929448933));
#531 = CARTESIAN_POINT('',(-4.73978379391,-12.10525654173,
    -278.0220295348));
#532 = CARTESIAN_POINT('',(-4.706982847917,-12.11794627453,
    -277.8488291993));
#533 = CARTESIAN_POINT('',(-4.690565481764,-12.12429773064,
    -277.6744685898));
#534 = CARTESIAN_POINT('',(-4.690565481764,-12.12429773064,
    -277.2908802552));
#535 = CARTESIAN_POINT('',(-4.714152249366,-12.11517243959,
    -277.0820368663));
#536 = CARTESIAN_POINT('',(-4.761215989108,-12.09696551412,
    -276.875129777));
#537 = CARTESIAN_POINT('',(-4.832112601099,-12.06924101985,
    -276.672017312));
#538 = CARTESIAN_POINT('',(-4.927429348065,-12.03119075826,
    -276.4751025813));
#539 = CARTESIAN_POINT('',(-5.047786239768,-11.98162266568,
    -276.2875467987));
#540 = CARTESIAN_POINT('',(-5.193585213992,-11.91897349183,
    -276.1135592332));
#541 = CARTESIAN_POINT('',(-5.511824046254,-11.77479988725,
    -275.8259252857));
#542 = CARTESIAN_POINT('',(-5.683124011932,-11.69467430503,
    -275.7023661147));
#543 = CARTESIAN_POINT('',(-5.875261748194,-11.60108667622,
    -275.5988655101));
#544 = CARTESIAN_POINT('',(-6.082762929005,-11.49491653184,
    -275.5232903932));
#545 = CARTESIAN_POINT('',(-6.29863857921,-11.37812992686,
    -275.4808327954));
#546 = CARTESIAN_POINT('',(-6.515586296366,-11.25400345832,
    -275.4739784298));
#547 = CARTESIAN_POINT('',(-6.726680579458,-11.12686989966,
    -275.5024090315));
#548 = CARTESIAN_POINT('',(-7.054838105085,-10.92027669719,
    -275.6018993879));
#549 = CARTESIAN_POINT('',(-7.179699278012,-10.83926139743,
    -275.6546223247));
#550 = CARTESIAN_POINT('',(-7.299430780533,-10.75925701328,
    -275.7206295623));
#551 = CARTESIAN_POINT('',(-7.413002139929,-10.6812227375,
    -275.7993763009));
#552 = CARTESIAN_POINT('',(-7.519486009113,-10.606151931,-275.8901493075
    ));
#553 = CARTESIAN_POINT('',(-7.618059150182,-10.53504123578,
    -275.9920743794));
#554 = CARTESIAN_POINT('',(-7.708007883648,-10.4688481375,
    -276.1041278337));
#555 = CARTESIAN_POINT('',(-7.877537890658,-10.34198712934,
    -276.3582737622));
#556 = CARTESIAN_POINT('',(-7.955215155356,-10.2825101727,
    -276.5022965648));
#557 = CARTESIAN_POINT('',(-8.020953545752,-10.23117276618,
    -276.6556806461));
#558 = CARTESIAN_POINT('',(-8.074138619627,-10.18899497517,
    -276.8167232358));
#559 = CARTESIAN_POINT('',(-8.11432541851,-10.15679168256,
    -276.9836019114));
#560 = CARTESIAN_POINT('',(-8.141218895535,-10.13512929298,
    -277.1544127381));
#561 = CARTESIAN_POINT('',(-8.154667096901,-10.12429773064,
    -277.3272032108));
#562 = CARTESIAN_POINT('',(-8.154667096901,-10.12429773064,
    -277.6744774198));
#563 = CARTESIAN_POINT('',(-8.140956526172,-10.1353409555,
    -277.8488378705));
#564 = CARTESIAN_POINT('',(-8.113566067549,-10.15740283551,
    -278.0220341715));
#565 = CARTESIAN_POINT('',(-8.072257232387,-10.1905036672,
    -278.1929453578));
#566 = CARTESIAN_POINT('',(-8.016565004635,-10.23467749638,
    -278.3602767775));
#567 = CARTESIAN_POINT('',(-7.94582644498,-10.28992081487,-278.522446656
    ));
#568 = CARTESIAN_POINT('',(-7.859215388104,-10.35612559738,
    -278.6774416268));
#569 = CARTESIAN_POINT('',(-7.655835463101,-10.50731648444,
    -278.9629705703));
#570 = CARTESIAN_POINT('',(-7.537912087587,-10.59327988796,
    -279.0973133138));
#571 = CARTESIAN_POINT('',(-7.401816557463,-10.69003312601,
    -279.2199229527));
#572 = CARTESIAN_POINT('',(-7.248223368471,-10.7958329959,
    -279.3256630402));
#573 = CARTESIAN_POINT('',(-7.078607389915,-10.90828933427,
    -279.4100323686));
#574 = CARTESIAN_POINT('',(-6.895216788547,-11.02467909755,
    -279.4691947581));
#575 = CARTESIAN_POINT('',(-6.701077866606,-11.14223788878,-279.5));
#576 = CARTESIAN_POINT('',(-6.5,-11.25833024919,-279.5));
#577 = PCURVE('',#55,#578);
#578 = DEFINITIONAL_REPRESENTATION('',(#579),#638);
#579 = B_SPLINE_CURVE_WITH_KNOTS('',8,(#580,#581,#582,#583,#584,#585,
    #586,#587,#588,#589,#590,#591,#592,#593,#594,#595,#596,#597,#598,
    #599,#600,#601,#602,#603,#604,#605,#606,#607,#608,#609,#610,#611,
    #612,#613,#614,#615,#616,#617,#618,#619,#620,#621,#622,#623,#624,
    #625,#626,#627,#628,#629,#630,#631,#632,#633,#634,#635,#636,#637),
  .UNSPECIFIED.,.T.,.F.,(9,7,7,7,7,7,7,7,9),(0.,0.137082142971,
    0.278830669448,0.448731828748,0.594961690577,0.689502143189,
    0.793492841705,0.898494959255,1.),.UNSPECIFIED.);
#580 = CARTESIAN_POINT('',(4.188790204786,0.5));
#581 = CARTESIAN_POINT('',(4.206658820579,0.5));
#582 = CARTESIAN_POINT('',(4.22411558785,0.53083371984));
#583 = CARTESIAN_POINT('',(4.240815455677,0.590015635114));
#584 = CARTESIAN_POINT('',(4.256459886898,0.67437791075));
#585 = CARTESIAN_POINT('',(4.270798298168,0.780084333089));
#586 = CARTESIAN_POINT('',(4.283638702603,0.902650500543));
#587 = CARTESIAN_POINT('',(4.294863905036,1.036973746654));
#588 = CARTESIAN_POINT('',(4.314361599229,1.322558203883));
#589 = CARTESIAN_POINT('',(4.322746636357,1.477551914534));
#590 = CARTESIAN_POINT('',(4.329650361257,1.63972154988));
#591 = CARTESIAN_POINT('',(4.335118349448,1.807055106603));
#592 = CARTESIAN_POINT('',(4.339190326011,1.977970465183));
#593 = CARTESIAN_POINT('',(4.341895715161,2.151170800608));
#594 = CARTESIAN_POINT('',(4.343249803271,2.32553141012));
#595 = CARTESIAN_POINT('',(4.343249803271,2.709119744796));
#596 = CARTESIAN_POINT('',(4.341304383008,2.917963133658));
#597 = CARTESIAN_POINT('',(4.337422638709,3.124870222945));
#598 = CARTESIAN_POINT('',(4.331566925945,3.327982687945));
#599 = CARTESIAN_POINT('',(4.323672671923,3.524897418631));
#600 = CARTESIAN_POINT('',(4.313661447301,3.712453201299));
#601 = CARTESIAN_POINT('',(4.301456917925,3.88644076674));
#602 = CARTESIAN_POINT('',(4.274582017885,4.174074714273));
#603 = CARTESIAN_POINT('',(4.260035929055,4.29763388521));
#604 = CARTESIAN_POINT('',(4.24359948852,4.401134489895));
#605 = CARTESIAN_POINT('',(4.225677218051,4.476709606706));
#606 = CARTESIAN_POINT('',(4.206807638809,4.519167204525));
#607 = CARTESIAN_POINT('',(4.187588914729,4.526021570148));
#608 = CARTESIAN_POINT('',(4.168637104422,4.497590968498));
#609 = CARTESIAN_POINT('',(4.138808390947,4.398100612059));
#610 = CARTESIAN_POINT('',(4.127360117352,4.345377675211));
#611 = CARTESIAN_POINT('',(4.116284755833,4.27937043767));
#612 = CARTESIAN_POINT('',(4.105686699353,4.20062369901));
#613 = CARTESIAN_POINT('',(4.095665953206,4.109850692479));
#614 = CARTESIAN_POINT('',(4.086316988676,4.007925620589));
#615 = CARTESIAN_POINT('',(4.077726536007,3.89587216626));
#616 = CARTESIAN_POINT('',(4.061438787195,3.641726237734));
#617 = CARTESIAN_POINT('',(4.05391365571,3.497703435168));
#618 = CARTESIAN_POINT('',(4.047497957142,3.344319353849));
#619 = CARTESIAN_POINT('',(4.042276638689,3.183276764187));
#620 = CARTESIAN_POINT('',(4.038315287615,3.016398088551));
#621 = CARTESIAN_POINT('',(4.035658887973,2.845587261854));
#622 = CARTESIAN_POINT('',(4.034330606302,2.672796789111));
#623 = CARTESIAN_POINT('',(4.034330606302,2.325522580179));
#624 = CARTESIAN_POINT('',(4.035684829107,2.151162129476));
#625 = CARTESIAN_POINT('',(4.038390253719,1.977965828406));
#626 = CARTESIAN_POINT('',(4.042462138473,1.80705464215));
#627 = CARTESIAN_POINT('',(4.047929999947,1.639723222497));
#628 = CARTESIAN_POINT('',(4.054833682926,1.477553343991));
#629 = CARTESIAN_POINT('',(4.06321879879,1.32255837312));
#630 = CARTESIAN_POINT('',(4.082712702893,1.037029429669));
#631 = CARTESIAN_POINT('',(4.093937604225,0.902686686147));
#632 = CARTESIAN_POINT('',(4.106780900428,0.780077047274));
#633 = CARTESIAN_POINT('',(4.121124073087,0.674336959772));
#634 = CARTESIAN_POINT('',(4.136773164733,0.589967631305));
#635 = CARTESIAN_POINT('',(4.153475319871,0.530805241868));
#636 = CARTESIAN_POINT('',(4.170929841646,0.5));
#637 = CARTESIAN_POINT('',(4.188790204786,0.5));
#638 = ( GEOMETRIC_REPRESENTATION_CONTEXT(2) 
PARAMETRIC_REPRESENTATION_CONTEXT() REPRESENTATION_CONTEXT('2D SPACE',''
  ) );
#639 = PCURVE('',#640,#645);
#640 = CYLINDRICAL_SURFACE('',#641,2.);
#641 = AXIS2_PLACEMENT_3D('',#642,#643,#644);
#642 = CARTESIAN_POINT('',(-5.25,-9.093266739737,-277.5));
#643 = DIRECTION('',(-0.5,-0.866025403784,2.22044604925E-16));
#644 = DIRECTION('',(-1.110223024625E-16,-1.922962686384E-16,-1.));
#645 = DEFINITIONAL_REPRESENTATION('',(#646),#705);
#646 = B_SPLINE_CURVE_WITH_KNOTS('',8,(#647,#648,#649,#650,#651,#652,
    #653,#654,#655,#656,#657,#658,#659,#660,#661,#662,#663,#664,#665,
    #666,#667,#668,#669,#670,#671,#672,#673,#674,#675,#676,#677,#678,
    #679,#680,#681,#682,#683,#684,#685,#686,#687,#688,#689,#690,#691,
    #692,#693,#694,#695,#696,#697,#698,#699,#700,#701,#702,#703,#704),
  .UNSPECIFIED.,.F.,.F.,(9,7,7,7,7,7,7,7,9),(0.,0.137082142971,
    0.278830669448,0.448731828748,0.594961690577,0.689502143189,
    0.793492841705,0.898494959255,1.),.UNSPECIFIED.);
#647 = CARTESIAN_POINT('',(0.,2.5));
#648 = CARTESIAN_POINT('',(0.116146002654,2.5));
#649 = CARTESIAN_POINT('',(0.229614849833,2.495256182195));
#650 = CARTESIAN_POINT('',(0.340495455057,2.486151974872));
#651 = CARTESIAN_POINT('',(0.448725542127,2.473571765416));
#652 = CARTESIAN_POINT('',(0.554108484336,2.458748529305));
#653 = CARTESIAN_POINT('',(0.656281872193,2.443010617032));
#654 = CARTESIAN_POINT('',(0.754642194357,2.427526435994));
#655 = CARTESIAN_POINT('',(0.945003641341,2.398275563501));
#656 = CARTESIAN_POINT('',(1.038881781002,2.384246189325));
#657 = CARTESIAN_POINT('',(1.130474837163,2.371773330014));
#658 = CARTESIAN_POINT('',(1.220283035145,2.361363540435));
#659 = CARTESIAN_POINT('',(1.308769710399,2.353351581425));
#660 = CARTESIAN_POINT('',(1.396381834912,2.347940739404));
#661 = CARTESIAN_POINT('',(1.483562031855,2.345232578665));
#662 = CARTESIAN_POINT('',(1.675356199193,2.345232578665));
#663 = CARTESIAN_POINT('',(1.77977758764,2.349123228603));
#664 = CARTESIAN_POINT('',(1.884974122152,2.356887438486));
#665 = CARTESIAN_POINT('',(1.99173556316,2.368325628138));
#666 = CARTESIAN_POINT('',(2.100824237612,2.383031508466));
#667 = CARTESIAN_POINT('',(2.213018934149,2.400282726929));
#668 = CARTESIAN_POINT('',(2.329184110947,2.418926437955));
#669 = CARTESIAN_POINT('',(2.554806265242,2.45318784997));
#670 = CARTESIAN_POINT('',(2.666773585933,2.469447043107));
#671 = CARTESIAN_POINT('',(2.783624047274,2.484466647214));
#672 = CARTESIAN_POINT('',(2.903655010999,2.496271195463));
#673 = CARTESIAN_POINT('',(3.025654095012,2.503068853831));
#674 = CARTESIAN_POINT('',(3.148579008859,2.504046037374));
#675 = CARTESIAN_POINT('',(3.271434132272,2.499492287441));
#676 = CARTESIAN_POINT('',(3.471463087154,2.484656088664));
#677 = CARTESIAN_POINT('',(3.550004267078,2.476925367448));
#678 = CARTESIAN_POINT('',(3.628539596336,2.46750528962));
#679 = CARTESIAN_POINT('',(3.707074452859,2.456711304127));
#680 = CARTESIAN_POINT('',(3.785614273597,2.444940013203));
#681 = CARTESIAN_POINT('',(3.864159358917,2.432642915198));
#682 = CARTESIAN_POINT('',(3.942703809622,2.420292377263));
#683 = CARTESIAN_POINT('',(4.107623706138,2.395192524954));
#684 = CARTESIAN_POINT('',(4.194027147509,2.382522601912));
#685 = CARTESIAN_POINT('',(4.28042780527,2.3709322989));
#686 = CARTESIAN_POINT('',(4.366819890093,2.360997797348));
#687 = CARTESIAN_POINT('',(4.45320685551,2.353202327302));
#688 = CARTESIAN_POINT('',(4.539595547346,2.347888886135));
#689 = CARTESIAN_POINT('',(4.625990585829,2.345232578665));
#690 = CARTESIAN_POINT('',(4.799627690295,2.345232578665));
#691 = CARTESIAN_POINT('',(4.886807797519,2.347941006567));
#692 = CARTESIAN_POINT('',(4.974418074903,2.353351925804));
#693 = CARTESIAN_POINT('',(5.062902699909,2.361363669354));
#694 = CARTESIAN_POINT('',(5.152709616754,2.371773213731));
#695 = CARTESIAN_POINT('',(5.244302610149,2.384246051101));
#696 = CARTESIAN_POINT('',(5.33818155303,2.398275546167));
#697 = CARTESIAN_POINT('',(5.52850599631,2.427520732683));
#698 = CARTESIAN_POINT('',(5.626872316106,2.443005536169));
#699 = CARTESIAN_POINT('',(5.729072795466,2.45874853316));
#700 = CARTESIAN_POINT('',(5.83448882426,2.473577313704));
#701 = CARTESIAN_POINT('',(5.942746407914,2.486159370271));
#702 = CARTESIAN_POINT('',(6.053638706675,2.495260561328));
#703 = CARTESIAN_POINT('',(6.167092946766,2.5));
#704 = CARTESIAN_POINT('',(6.28318530718,2.5));
#705 = ( GEOMETRIC_REPRESENTATION_CONTEXT(2) 
PARAMETRIC_REPRESENTATION_CONTEXT() REPRESENTATION_CONTEXT('2D SPACE',''
  ) );
#706 = FACE_BOUND('',#707,.T.);
#707 = EDGE_LOOP('',(#708));
#708 = ORIENTED_EDGE('',*,*,#709,.F.);
#709 = EDGE_CURVE('',#710,#710,#712,.T.);
#710 = VERTEX_POINT('',#711);
#711 = CARTESIAN_POINT('',(6.5,11.258330249198,-275.25));
#712 = SURFACE_CURVE('',#713,(#765,#820),.PCURVE_S1.);
#713 = B_SPLINE_CURVE_WITH_KNOTS('',8,(#714,#715,#716,#717,#718,#719,
    #720,#721,#722,#723,#724,#725,#726,#727,#728,#729,#730,#731,#732,
    #733,#734,#735,#736,#737,#738,#739,#740,#741,#742,#743,#744,#745,
    #746,#747,#748,#749,#750,#751,#752,#753,#754,#755,#756,#757,#758,
    #759,#760,#761,#762,#763,#764),.UNSPECIFIED.,.T.,.F.,(9,7,7,7,7,7,7,
    9),(0.,0.135377424943,0.250182411469,0.400447131671,0.535472903537,
    0.749971178048,0.864725543155,1.),.UNSPECIFIED.);
#714 = CARTESIAN_POINT('',(6.5,11.258330249198,-275.25));
#715 = CARTESIAN_POINT('',(6.366681673259,11.335301621029,-275.25));
#716 = CARTESIAN_POINT('',(6.234957458325,11.408946898889,
    -275.2283330716));
#717 = CARTESIAN_POINT('',(6.107888076635,11.477665829808,
    -275.1864976395));
#718 = CARTESIAN_POINT('',(5.988303759078,11.540284961189,-275.126570505
    ));
#719 = CARTESIAN_POINT('',(5.878698909154,11.596041052307,
    -275.0511816736));
#720 = CARTESIAN_POINT('',(5.78106047282,11.644525254398,-274.9634832579
    ));
#721 = CARTESIAN_POINT('',(5.696660651095,11.685641957079,
    -274.8671106076));
#722 = CARTESIAN_POINT('',(5.5657899939,11.748464553828,-274.6805018213)
  );
#723 = CARTESIAN_POINT('',(5.51450832616,11.772648765166,-274.5901387729
    ));
#724 = CARTESIAN_POINT('',(5.471948102874,11.79243943706,-274.4961473037
    ));
#725 = CARTESIAN_POINT('',(5.438029977787,11.808046821807,
    -274.3994467619));
#726 = CARTESIAN_POINT('',(5.41266818367,11.819635963466,-274.3008190785
    ));
#727 = CARTESIAN_POINT('',(5.395789592022,11.82732185346,-274.200951261)
  );
#728 = CARTESIAN_POINT('',(5.387350392573,11.831164598113,
    -274.1004745162));
#729 = CARTESIAN_POINT('',(5.387350392573,11.831164598113,
    -273.8684919921));
#730 = CARTESIAN_POINT('',(5.401807352947,11.82458152008,-273.7369311579
    ));
#731 = CARTESIAN_POINT('',(5.430743674843,11.811405551899,
    -273.6066743297));
#732 = CARTESIAN_POINT('',(5.474308557325,11.791448325308,-273.479185847
    ));
#733 = CARTESIAN_POINT('',(5.532700476818,11.764380945777,
    -273.3561555392));
#734 = CARTESIAN_POINT('',(5.606091401431,11.729745933947,
    -273.2396132321));
#735 = CARTESIAN_POINT('',(5.694523360306,11.686988685865,-273.132087758
    ));
#736 = CARTESIAN_POINT('',(5.890504192151,11.589335624588,
    -272.9512867216));
#737 = CARTESIAN_POINT('',(5.997303443944,11.535064487341,
    -272.8737066685));
#738 = CARTESIAN_POINT('',(6.116278401185,11.473098215549,
    -272.8097267776));
#739 = CARTESIAN_POINT('',(6.244298013078,11.404391970172,
    -272.7635422299));
#740 = CARTESIAN_POINT('',(6.377478411466,11.330466651036,
    -272.7379036276));
#741 = CARTESIAN_POINT('',(6.511654020789,11.253386700769,
    -272.7340828411));
#742 = CARTESIAN_POINT('',(6.642794866436,11.175623440699,
    -272.7518244241));
#743 = CARTESIAN_POINT('',(6.965230592196,10.979037827434,
    -272.8487577392));
#744 = CARTESIAN_POINT('',(7.136959677948,10.868806046896,
    -272.9551020795));
#745 = CARTESIAN_POINT('',(7.278727922747,10.773630617528,
    -273.0947670701));
#746 = CARTESIAN_POINT('',(7.390347201635,10.696290538716,
    -273.2577666111));
#747 = CARTESIAN_POINT('',(7.472410688698,10.638265852143,
    -273.4359211392));
#748 = CARTESIAN_POINT('',(7.526044857227,10.599986159431,
    -273.6225743388));
#749 = CARTESIAN_POINT('',(7.552413902034,10.581164598113,
    -273.8121957445));
#750 = CARTESIAN_POINT('',(7.552413902034,10.581164598113,
    -274.1004733401));
#751 = CARTESIAN_POINT('',(7.54486655827,10.586551674791,-274.2009494838
    ));
#752 = CARTESIAN_POINT('',(7.529771282377,10.597325868197,
    -274.3008175259));
#753 = CARTESIAN_POINT('',(7.507053898822,10.613495248357,
    -274.3994461549));
#754 = CARTESIAN_POINT('',(7.476578088831,10.635065778798,
    -274.4961479692));
#755 = CARTESIAN_POINT('',(7.438158094644,10.662029143992,
    -274.5901404372));
#756 = CARTESIAN_POINT('',(7.391572684103,10.694348540719,
    -274.6805034999));
#757 = CARTESIAN_POINT('',(7.271754478435,10.776258772888,
    -274.8670763357));
#758 = CARTESIAN_POINT('',(7.193950111587,10.828790758727,
    -274.9634601549));
#759 = CARTESIAN_POINT('',(7.103126089022,10.889117525398,
    -275.0511852398));
#760 = CARTESIAN_POINT('',(7.000007940515,10.95617963272,-275.1265951933
    ));
#761 = CARTESIAN_POINT('',(6.88595523792,11.028451823878,-275.1865271087
    ));
#762 = CARTESIAN_POINT('',(6.762891527036,11.104145981915,
    -275.2283507328));
#763 = CARTESIAN_POINT('',(6.633263994609,11.181390246037,-275.25));
#764 = CARTESIAN_POINT('',(6.5,11.258330249198,-275.25));
#765 = PCURVE('',#55,#766);
#766 = DEFINITIONAL_REPRESENTATION('',(#767),#819);
#767 = B_SPLINE_CURVE_WITH_KNOTS('',8,(#768,#769,#770,#771,#772,#773,
    #774,#775,#776,#777,#778,#779,#780,#781,#782,#783,#784,#785,#786,
    #787,#788,#789,#790,#791,#792,#793,#794,#795,#796,#797,#798,#799,
    #800,#801,#802,#803,#804,#805,#806,#807,#808,#809,#810,#811,#812,
    #813,#814,#815,#816,#817,#818),.UNSPECIFIED.,.T.,.F.,(9,7,7,7,7,7,7,
    9),(0.,0.135377424943,0.250182411469,0.400447131671,0.535472903537,
    0.749971178048,0.864725543155,1.),.UNSPECIFIED.);
#768 = CARTESIAN_POINT('',(1.047197551197,4.75));
#769 = CARTESIAN_POINT('',(1.059039300709,4.75));
#770 = CARTESIAN_POINT('',(1.070646932793,4.771666928348));
#771 = CARTESIAN_POINT('',(1.081757502502,4.813502360462));
#772 = CARTESIAN_POINT('',(1.092139529548,4.873429494981));
#773 = CARTESIAN_POINT('',(1.101597891961,4.948818326367));
#774 = CARTESIAN_POINT('',(1.109983164611,5.036516742009));
#775 = CARTESIAN_POINT('',(1.117204766402,5.132889392389));
#776 = CARTESIAN_POINT('',(1.128371551358,5.319498178689));
#777 = CARTESIAN_POINT('',(1.132732848492,5.409861227048));
#778 = CARTESIAN_POINT('',(1.136343286041,5.503852696246));
#779 = CARTESIAN_POINT('',(1.139215319033,5.600553238023));
#780 = CARTESIAN_POINT('',(1.141360256523,5.699180921486));
#781 = CARTESIAN_POINT('',(1.142786882408,5.799048738944));
#782 = CARTESIAN_POINT('',(1.14350018327,5.89952548373));
#783 = CARTESIAN_POINT('',(1.14350018327,6.131508007897));
#784 = CARTESIAN_POINT('',(1.142278241697,6.263068842079));
#785 = CARTESIAN_POINT('',(1.139832480868,6.393325670259));
#786 = CARTESIAN_POINT('',(1.136146443494,6.520814152914));
#787 = CARTESIAN_POINT('',(1.131195756847,6.643844460757));
#788 = CARTESIAN_POINT('',(1.124953569979,6.760386767863));
#789 = CARTESIAN_POINT('',(1.117398241848,6.867912241968));
#790 = CARTESIAN_POINT('',(1.100554967274,7.048713278306));
#791 = CARTESIAN_POINT('',(1.091340073446,7.126293331465));
#792 = CARTESIAN_POINT('',(1.081022070157,7.190273222365));
#793 = CARTESIAN_POINT('',(1.069847703363,7.236457770066));
#794 = CARTESIAN_POINT('',(1.058133032987,7.262096372383));
#795 = CARTESIAN_POINT('',(1.046231905918,7.26591715887));
#796 = CARTESIAN_POINT('',(1.03450483552,7.248175575816));
#797 = CARTESIAN_POINT('',(1.005455733996,7.151242260758));
#798 = CARTESIAN_POINT('',(0.98976274946,7.044897920402));
#799 = CARTESIAN_POINT('',(0.976631775399,6.905232929878));
#800 = CARTESIAN_POINT('',(0.966186738825,6.74223338882));
#801 = CARTESIAN_POINT('',(0.95845578122,6.564078860786));
#802 = CARTESIAN_POINT('',(0.953387002672,6.377425661103));
#803 = CARTESIAN_POINT('',(0.950894919124,6.187804255434));
#804 = CARTESIAN_POINT('',(0.950894919124,5.899526659849));
#805 = CARTESIAN_POINT('',(0.951608204352,5.799050516156));
#806 = CARTESIAN_POINT('',(0.953034811194,5.699182474064));
#807 = CARTESIAN_POINT('',(0.955179748037,5.600553845097));
#808 = CARTESIAN_POINT('',(0.958051815154,5.503852030732));
#809 = CARTESIAN_POINT('',(0.961662314796,5.409859562706));
#810 = CARTESIAN_POINT('',(0.966023651485,5.319496500064));
#811 = CARTESIAN_POINT('',(0.97718828514,5.13292366429));
#812 = CARTESIAN_POINT('',(0.984409565733,5.036539845086));
#813 = CARTESIAN_POINT('',(0.992796369943,4.948814760127));
#814 = CARTESIAN_POINT('',(1.002257455939,4.873404806649));
#815 = CARTESIAN_POINT('',(1.012642251182,4.813472891244));
#816 = CARTESIAN_POINT('',(1.023754248402,4.771649267156));
#817 = CARTESIAN_POINT('',(1.035360627633,4.75));
#818 = CARTESIAN_POINT('',(1.047197551197,4.75));
#819 = ( GEOMETRIC_REPRESENTATION_CONTEXT(2) 
PARAMETRIC_REPRESENTATION_CONTEXT() REPRESENTATION_CONTEXT('2D SPACE',''
  ) );
#820 = PCURVE('',#821,#826);
#821 = CYLINDRICAL_SURFACE('',#822,1.25);
#822 = AXIS2_PLACEMENT_3D('',#823,#824,#825);
#823 = CARTESIAN_POINT('',(4.5,7.79422863406,-274.));
#824 = DIRECTION('',(0.5,0.866025403784,2.22044604925E-16));
#825 = DIRECTION('',(1.110223024625E-16,1.922962686384E-16,-1.));
#826 = DEFINITIONAL_REPRESENTATION('',(#827),#879);
#827 = B_SPLINE_CURVE_WITH_KNOTS('',8,(#828,#829,#830,#831,#832,#833,
    #834,#835,#836,#837,#838,#839,#840,#841,#842,#843,#844,#845,#846,
    #847,#848,#849,#850,#851,#852,#853,#854,#855,#856,#857,#858,#859,
    #860,#861,#862,#863,#864,#865,#866,#867,#868,#869,#870,#871,#872,
    #873,#874,#875,#876,#877,#878),.UNSPECIFIED.,.F.,.F.,(9,7,7,7,7,7,7,
    9),(0.,0.135377424943,0.250182411469,0.400447131671,0.535472903537,
    0.749971178048,0.864725543155,1.),.UNSPECIFIED.);
#828 = CARTESIAN_POINT('',(0.,4.));
#829 = CARTESIAN_POINT('',(0.123154194931,4.));
#830 = CARTESIAN_POINT('',(0.24387351042,3.997916574028));
#831 = CARTESIAN_POINT('',(0.362243537473,3.99389422308));
#832 = CARTESIAN_POINT('',(0.478208403882,3.98833182284));
#833 = CARTESIAN_POINT('',(0.591576578849,3.981815589202));
#834 = CARTESIAN_POINT('',(0.701988116335,3.974984921728));
#835 = CARTESIAN_POINT('',(0.808826952125,3.968393119907));
#836 = CARTESIAN_POINT('',(0.997760802701,3.957363756026));
#837 = CARTESIAN_POINT('',(1.082587092759,3.952667063545));
#838 = CARTESIAN_POINT('',(1.165917214488,3.94852617652));
#839 = CARTESIAN_POINT('',(1.248073492868,3.945083505655));
#840 = CARTESIAN_POINT('',(1.329350562899,3.942439099681));
#841 = CARTESIAN_POINT('',(1.410034798971,3.940655979842));
#842 = CARTESIAN_POINT('',(1.490416713779,3.939764294608));
#843 = CARTESIAN_POINT('',(1.676002733112,3.939764294608));
#844 = CARTESIAN_POINT('',(1.781251048294,3.941291661983));
#845 = CARTESIAN_POINT('',(1.887232161731,3.944349099767));
#846 = CARTESIAN_POINT('',(1.994550939335,3.948848075791));
#847 = CARTESIAN_POINT('',(2.10382536817,3.95460299725));
#848 = CARTESIAN_POINT('',(2.215707371258,3.961303659451));
#849 = CARTESIAN_POINT('',(2.330924569766,3.968490775853));
#850 = CARTESIAN_POINT('',(2.55783920021,3.981911159953));
#851 = CARTESIAN_POINT('',(2.671139861188,3.988310602301));
#852 = CARTESIAN_POINT('',(2.788260987137,3.994133715372));
#853 = CARTESIAN_POINT('',(2.907869598988,3.998642167424));
#854 = CARTESIAN_POINT('',(3.028991764417,4.001211162263));
#855 = CARTESIAN_POINT('',(3.15079978983,4.00154577187));
#856 = CARTESIAN_POINT('',(3.272459600574,3.999771235992));
#857 = CARTESIAN_POINT('',(3.58428028991,3.990740963766));
#858 = CARTESIAN_POINT('',(3.763387075035,3.981141984391));
#859 = CARTESIAN_POINT('',(3.933843569598,3.969601767143));
#860 = CARTESIAN_POINT('',(4.097491185365,3.958432933605));
#861 = CARTESIAN_POINT('',(4.255966337766,3.949213824518));
#862 = CARTESIAN_POINT('',(4.410446590964,3.942879722444));
#863 = CARTESIAN_POINT('',(4.562145576037,3.939764294608));
#864 = CARTESIAN_POINT('',(4.792767652505,3.939764294608));
#865 = CARTESIAN_POINT('',(4.873149144556,3.94065596798));
#866 = CARTESIAN_POINT('',(4.953833486568,3.942439055229));
#867 = CARTESIAN_POINT('',(5.035111209053,3.945083457434));
#868 = CARTESIAN_POINT('',(5.117268540237,3.948526179773));
#869 = CARTESIAN_POINT('',(5.20059968764,3.952667141909));
#870 = CARTESIAN_POINT('',(5.285426204018,3.957363855239));
#871 = CARTESIAN_POINT('',(5.474323656141,3.968391094294));
#872 = CARTESIAN_POINT('',(5.581167508839,3.974982945117));
#873 = CARTESIAN_POINT('',(5.691603916811,3.9818154463));
#874 = CARTESIAN_POINT('',(5.805002819247,3.988333860619));
#875 = CARTESIAN_POINT('',(5.920993538903,3.993897062851));
#876 = CARTESIAN_POINT('',(6.039375030231,3.997918271187));
#877 = CARTESIAN_POINT('',(6.160081302122,4.));
#878 = CARTESIAN_POINT('',(6.28318530718,4.));
#879 = ( GEOMETRIC_REPRESENTATION_CONTEXT(2) 
PARAMETRIC_REPRESENTATION_CONTEXT() REPRESENTATION_CONTEXT('2D SPACE',''
  ) );
#880 = ADVANCED_FACE('',(#881),#90,.T.);
#881 = FACE_BOUND('',#882,.T.);
#882 = EDGE_LOOP('',(#883,#906,#933,#934,#935));
#883 = ORIENTED_EDGE('',*,*,#884,.T.);
#884 = EDGE_CURVE('',#24,#885,#887,.T.);
#885 = VERTEX_POINT('',#886);
#886 = CARTESIAN_POINT('',(44.5,-4.898587196589E-16,-279.5));
#887 = SEAM_CURVE('',#888,(#892,#899),.PCURVE_S1.);
#888 = LINE('',#889,#890);
#889 = CARTESIAN_POINT('',(10.5,-4.898587196589E-16,-279.5));
#890 = VECTOR('',#891,1.);
#891 = DIRECTION('',(1.,0.,2.22044604925E-16));
#892 = PCURVE('',#90,#893);
#893 = DEFINITIONAL_REPRESENTATION('',(#894),#898);
#894 = LINE('',#895,#896);
#895 = CARTESIAN_POINT('',(6.28318530718,-0.));
#896 = VECTOR('',#897,1.);
#897 = DIRECTION('',(0.,1.));
#898 = ( GEOMETRIC_REPRESENTATION_CONTEXT(2) 
PARAMETRIC_REPRESENTATION_CONTEXT() REPRESENTATION_CONTEXT('2D SPACE',''
  ) );
#899 = PCURVE('',#90,#900);
#900 = DEFINITIONAL_REPRESENTATION('',(#901),#905);
#901 = LINE('',#902,#903);
#902 = CARTESIAN_POINT('',(0.,-0.));
#903 = VECTOR('',#904,1.);
#904 = DIRECTION('',(0.,1.));
#905 = ( GEOMETRIC_REPRESENTATION_CONTEXT(2) 
PARAMETRIC_REPRESENTATION_CONTEXT() REPRESENTATION_CONTEXT('2D SPACE',''
  ) );
#906 = ORIENTED_EDGE('',*,*,#907,.F.);
#907 = EDGE_CURVE('',#885,#885,#908,.T.);
#908 = SURFACE_CURVE('',#909,(#914,#921),.PCURVE_S1.);
#909 = CIRCLE('',#910,2.);
#910 = AXIS2_PLACEMENT_3D('',#911,#912,#913);
#911 = CARTESIAN_POINT('',(44.5,0.,-277.5));
#912 = DIRECTION('',(1.,-0.,2.22044604925E-16));
#913 = DIRECTION('',(2.22044604925E-16,0.,-1.));
#914 = PCURVE('',#90,#915);
#915 = DEFINITIONAL_REPRESENTATION('',(#916),#920);
#916 = LINE('',#917,#918);
#917 = CARTESIAN_POINT('',(0.,34.));
#918 = VECTOR('',#919,1.);
#919 = DIRECTION('',(1.,0.));
#920 = ( GEOMETRIC_REPRESENTATION_CONTEXT(2) 
PARAMETRIC_REPRESENTATION_CONTEXT() REPRESENTATION_CONTEXT('2D SPACE',''
  ) );
#921 = PCURVE('',#922,#927);
#922 = PLANE('',#923);
#923 = AXIS2_PLACEMENT_3D('',#924,#925,#926);
#924 = CARTESIAN_POINT('',(44.5,0.,-277.5));
#925 = DIRECTION('',(1.,0.,2.22044604925E-16));
#926 = DIRECTION('',(2.22044604925E-16,0.,-1.));
#927 = DEFINITIONAL_REPRESENTATION('',(#928),#932);
#928 = CIRCLE('',#929,2.);
#929 = AXIS2_PLACEMENT_2D('',#930,#931);
#930 = CARTESIAN_POINT('',(0.,0.));
#931 = DIRECTION('',(1.,0.));
#932 = ( GEOMETRIC_REPRESENTATION_CONTEXT(2) 
PARAMETRIC_REPRESENTATION_CONTEXT() REPRESENTATION_CONTEXT('2D SPACE',''
  ) );
#933 = ORIENTED_EDGE('',*,*,#884,.F.);
#934 = ORIENTED_EDGE('',*,*,#176,.T.);
#935 = ORIENTED_EDGE('',*,*,#21,.T.);
#936 = ADVANCED_FACE('',(#937,#940),#304,.F.);
#937 = FACE_BOUND('',#938,.F.);
#938 = EDGE_LOOP('',(#939));
#939 = ORIENTED_EDGE('',*,*,#289,.T.);
#940 = FACE_BOUND('',#941,.F.);
#941 = EDGE_LOOP('',(#942));
#942 = ORIENTED_EDGE('',*,*,#943,.F.);
#943 = EDGE_CURVE('',#944,#944,#946,.T.);
#944 = VERTEX_POINT('',#945);
#945 = CARTESIAN_POINT('',(10.1,-2.473786534278E-15,-280.));
#946 = SURFACE_CURVE('',#947,(#952,#959),.PCURVE_S1.);
#947 = CIRCLE('',#948,10.1);
#948 = AXIS2_PLACEMENT_3D('',#949,#950,#951);
#949 = CARTESIAN_POINT('',(0.,0.,-280.));
#950 = DIRECTION('',(0.,0.,1.));
#951 = DIRECTION('',(1.,0.,-0.));
#952 = PCURVE('',#304,#953);
#953 = DEFINITIONAL_REPRESENTATION('',(#954),#958);
#954 = CIRCLE('',#955,10.1);
#955 = AXIS2_PLACEMENT_2D('',#956,#957);
#956 = CARTESIAN_POINT('',(0.,0.));
#957 = DIRECTION('',(1.,0.));
#958 = ( GEOMETRIC_REPRESENTATION_CONTEXT(2) 
PARAMETRIC_REPRESENTATION_CONTEXT() REPRESENTATION_CONTEXT('2D SPACE',''
  ) );
#959 = PCURVE('',#960,#965);
#960 = CYLINDRICAL_SURFACE('',#961,10.1);
#961 = AXIS2_PLACEMENT_3D('',#962,#963,#964);
#962 = CARTESIAN_POINT('',(0.,0.,-281.));
#963 = DIRECTION('',(0.,0.,1.));
#964 = DIRECTION('',(1.,0.,-0.));
#965 = DEFINITIONAL_REPRESENTATION('',(#966),#970);
#966 = LINE('',#967,#968);
#967 = CARTESIAN_POINT('',(0.,1.));
#968 = VECTOR('',#969,1.);
#969 = DIRECTION('',(1.,0.));
#970 = ( GEOMETRIC_REPRESENTATION_CONTEXT(2) 
PARAMETRIC_REPRESENTATION_CONTEXT() REPRESENTATION_CONTEXT('2D SPACE',''
  ) );
#971 = ADVANCED_FACE('',(#972,#975),#163,.T.);
#972 = FACE_BOUND('',#973,.T.);
#973 = EDGE_LOOP('',(#974));
#974 = ORIENTED_EDGE('',*,*,#148,.T.);
#975 = FACE_BOUND('',#976,.T.);
#976 = EDGE_LOOP('',(#977));
#977 = ORIENTED_EDGE('',*,*,#978,.F.);
#978 = EDGE_CURVE('',#979,#979,#981,.T.);
#979 = VERTEX_POINT('',#980);
#980 = CARTESIAN_POINT('',(10.1,-2.473786534278E-15,-272.));
#981 = SURFACE_CURVE('',#982,(#987,#994),.PCURVE_S1.);
#982 = CIRCLE('',#983,10.1);
#983 = AXIS2_PLACEMENT_3D('',#984,#985,#986);
#984 = CARTESIAN_POINT('',(0.,0.,-272.));
#985 = DIRECTION('',(0.,0.,1.));
#986 = DIRECTION('',(1.,0.,-0.));
#987 = PCURVE('',#163,#988);
#988 = DEFINITIONAL_REPRESENTATION('',(#989),#993);
#989 = CIRCLE('',#990,10.1);
#990 = AXIS2_PLACEMENT_2D('',#991,#992);
#991 = CARTESIAN_POINT('',(0.,0.));
#992 = DIRECTION('',(1.,0.));
#993 = ( GEOMETRIC_REPRESENTATION_CONTEXT(2) 
PARAMETRIC_REPRESENTATION_CONTEXT() REPRESENTATION_CONTEXT('2D SPACE',''
  ) );
#994 = PCURVE('',#960,#995);
#995 = DEFINITIONAL_REPRESENTATION('',(#996),#1000);
#996 = LINE('',#997,#998);
#997 = CARTESIAN_POINT('',(0.,9.));
#998 = VECTOR('',#999,1.);
#999 = DIRECTION('',(1.,0.));
#1000 = ( GEOMETRIC_REPRESENTATION_CONTEXT(2) 
PARAMETRIC_REPRESENTATION_CONTEXT() REPRESENTATION_CONTEXT('2D SPACE',''
  ) );
#1001 = ADVANCED_FACE('',(#1002),#445,.T.);
#1002 = FACE_BOUND('',#1003,.T.);
#1003 = EDGE_LOOP('',(#1004,#1027,#1054,#1055));
#1004 = ORIENTED_EDGE('',*,*,#1005,.T.);
#1005 = EDGE_CURVE('',#320,#1006,#1008,.T.);
#1006 = VERTEX_POINT('',#1007);
#1007 = CARTESIAN_POINT('',(-22.25,38.538130468408,-279.5));
#1008 = SEAM_CURVE('',#1009,(#1013,#1020),.PCURVE_S1.);
#1009 = LINE('',#1010,#1011);
#1010 = CARTESIAN_POINT('',(-5.25,9.093266739737,-279.5));
#1011 = VECTOR('',#1012,1.);
#1012 = DIRECTION('',(-0.5,0.866025403784,2.22044604925E-16));
#1013 = PCURVE('',#445,#1014);
#1014 = DEFINITIONAL_REPRESENTATION('',(#1015),#1019);
#1015 = LINE('',#1016,#1017);
#1016 = CARTESIAN_POINT('',(6.28318530718,-0.));
#1017 = VECTOR('',#1018,1.);
#1018 = DIRECTION('',(0.,1.));
#1019 = ( GEOMETRIC_REPRESENTATION_CONTEXT(2) 
PARAMETRIC_REPRESENTATION_CONTEXT() REPRESENTATION_CONTEXT('2D SPACE',''
  ) );
#1020 = PCURVE('',#445,#1021);
#1021 = DEFINITIONAL_REPRESENTATION('',(#1022),#1026);
#1022 = LINE('',#1023,#1024);
#1023 = CARTESIAN_POINT('',(0.,-0.));
#1024 = VECTOR('',#1025,1.);
#1025 = DIRECTION('',(0.,1.));
#1026 = ( GEOMETRIC_REPRESENTATION_CONTEXT(2) 
PARAMETRIC_REPRESENTATION_CONTEXT() REPRESENTATION_CONTEXT('2D SPACE',''
  ) );
#1027 = ORIENTED_EDGE('',*,*,#1028,.F.);
#1028 = EDGE_CURVE('',#1006,#1006,#1029,.T.);
#1029 = SURFACE_CURVE('',#1030,(#1035,#1042),.PCURVE_S1.);
#1030 = CIRCLE('',#1031,2.);
#1031 = AXIS2_PLACEMENT_3D('',#1032,#1033,#1034);
#1032 = CARTESIAN_POINT('',(-22.25,38.538130468408,-277.5));
#1033 = DIRECTION('',(-0.5,0.866025403784,2.22044604925E-16));
#1034 = DIRECTION('',(-1.110223024625E-16,1.922962686384E-16,-1.));
#1035 = PCURVE('',#445,#1036);
#1036 = DEFINITIONAL_REPRESENTATION('',(#1037),#1041);
#1037 = LINE('',#1038,#1039);
#1038 = CARTESIAN_POINT('',(0.,34.));
#1039 = VECTOR('',#1040,1.);
#1040 = DIRECTION('',(1.,0.));
#1041 = ( GEOMETRIC_REPRESENTATION_CONTEXT(2) 
PARAMETRIC_REPRESENTATION_CONTEXT() REPRESENTATION_CONTEXT('2D SPACE',''
  ) );
#1042 = PCURVE('',#1043,#1048);
#1043 = PLANE('',#1044);
#1044 = AXIS2_PLACEMENT_3D('',#1045,#1046,#1047);
#1045 = CARTESIAN_POINT('',(-22.25,38.538130468408,-277.5));
#1046 = DIRECTION('',(-0.5,0.866025403784,2.22044604925E-16));
#1047 = DIRECTION('',(-1.110223024625E-16,1.922962686384E-16,-1.));
#1048 = DEFINITIONAL_REPRESENTATION('',(#1049),#1053);
#1049 = CIRCLE('',#1050,2.);
#1050 = AXIS2_PLACEMENT_2D('',#1051,#1052);
#1051 = CARTESIAN_POINT('',(0.,0.));
#1052 = DIRECTION('',(1.,0.));
#1053 = ( GEOMETRIC_REPRESENTATION_CONTEXT(2) 
PARAMETRIC_REPRESENTATION_CONTEXT() REPRESENTATION_CONTEXT('2D SPACE',''
  ) );
#1054 = ORIENTED_EDGE('',*,*,#1005,.F.);
#1055 = ORIENTED_EDGE('',*,*,#319,.T.);
#1056 = ADVANCED_FACE('',(#1057),#640,.T.);
#1057 = FACE_BOUND('',#1058,.T.);
#1058 = EDGE_LOOP('',(#1059,#1082,#1109,#1110));
#1059 = ORIENTED_EDGE('',*,*,#1060,.T.);
#1060 = EDGE_CURVE('',#515,#1061,#1063,.T.);
#1061 = VERTEX_POINT('',#1062);
#1062 = CARTESIAN_POINT('',(-22.25,-38.5381304684,-279.5));
#1063 = SEAM_CURVE('',#1064,(#1068,#1075),.PCURVE_S1.);
#1064 = LINE('',#1065,#1066);
#1065 = CARTESIAN_POINT('',(-5.25,-9.093266739737,-279.5));
#1066 = VECTOR('',#1067,1.);
#1067 = DIRECTION('',(-0.5,-0.866025403784,2.22044604925E-16));
#1068 = PCURVE('',#640,#1069);
#1069 = DEFINITIONAL_REPRESENTATION('',(#1070),#1074);
#1070 = LINE('',#1071,#1072);
#1071 = CARTESIAN_POINT('',(6.28318530718,-0.));
#1072 = VECTOR('',#1073,1.);
#1073 = DIRECTION('',(0.,1.));
#1074 = ( GEOMETRIC_REPRESENTATION_CONTEXT(2) 
PARAMETRIC_REPRESENTATION_CONTEXT() REPRESENTATION_CONTEXT('2D SPACE',''
  ) );
#1075 = PCURVE('',#640,#1076);
#1076 = DEFINITIONAL_REPRESENTATION('',(#1077),#1081);
#1077 = LINE('',#1078,#1079);
#1078 = CARTESIAN_POINT('',(0.,-0.));
#1079 = VECTOR('',#1080,1.);
#1080 = DIRECTION('',(0.,1.));
#1081 = ( GEOMETRIC_REPRESENTATION_CONTEXT(2) 
PARAMETRIC_REPRESENTATION_CONTEXT() REPRESENTATION_CONTEXT('2D SPACE',''
  ) );
#1082 = ORIENTED_EDGE('',*,*,#1083,.F.);
#1083 = EDGE_CURVE('',#1061,#1061,#1084,.T.);
#1084 = SURFACE_CURVE('',#1085,(#1090,#1097),.PCURVE_S1.);
#1085 = CIRCLE('',#1086,2.);
#1086 = AXIS2_PLACEMENT_3D('',#1087,#1088,#1089);
#1087 = CARTESIAN_POINT('',(-22.25,-38.5381304684,-277.5));
#1088 = DIRECTION('',(-0.5,-0.866025403784,2.22044604925E-16));
#1089 = DIRECTION('',(-1.110223024625E-16,-1.922962686384E-16,-1.));
#1090 = PCURVE('',#640,#1091);
#1091 = DEFINITIONAL_REPRESENTATION('',(#1092),#1096);
#1092 = LINE('',#1093,#1094);
#1093 = CARTESIAN_POINT('',(0.,34.));
#1094 = VECTOR('',#1095,1.);
#1095 = DIRECTION('',(1.,0.));
#1096 = ( GEOMETRIC_REPRESENTATION_CONTEXT(2) 
PARAMETRIC_REPRESENTATION_CONTEXT() REPRESENTATION_CONTEXT('2D SPACE',''
  ) );
#1097 = PCURVE('',#1098,#1103);
#1098 = PLANE('',#1099);
#1099 = AXIS2_PLACEMENT_3D('',#1100,#1101,#1102);
#1100 = CARTESIAN_POINT('',(-22.25,-38.5381304684,-277.5));
#1101 = DIRECTION('',(-0.5,-0.866025403784,2.22044604925E-16));
#1102 = DIRECTION('',(-1.110223024625E-16,-1.922962686384E-16,-1.));
#1103 = DEFINITIONAL_REPRESENTATION('',(#1104),#1108);
#1104 = CIRCLE('',#1105,2.);
#1105 = AXIS2_PLACEMENT_2D('',#1106,#1107);
#1106 = CARTESIAN_POINT('',(0.,0.));
#1107 = DIRECTION('',(1.,0.));
#1108 = ( GEOMETRIC_REPRESENTATION_CONTEXT(2) 
PARAMETRIC_REPRESENTATION_CONTEXT() REPRESENTATION_CONTEXT('2D SPACE',''
  ) );
#1109 = ORIENTED_EDGE('',*,*,#1060,.F.);
#1110 = ORIENTED_EDGE('',*,*,#514,.T.);
#1111 = ADVANCED_FACE('',(#1112),#821,.F.);
#1112 = FACE_BOUND('',#1113,.F.);
#1113 = EDGE_LOOP('',(#1114,#1115,#1138,#1303));
#1114 = ORIENTED_EDGE('',*,*,#709,.F.);
#1115 = ORIENTED_EDGE('',*,*,#1116,.F.);
#1116 = EDGE_CURVE('',#1117,#710,#1119,.T.);
#1117 = VERTEX_POINT('',#1118);
#1118 = CARTESIAN_POINT('',(5.05,8.746856578223,-275.25));
#1119 = SEAM_CURVE('',#1120,(#1124,#1131),.PCURVE_S1.);
#1120 = LINE('',#1121,#1122);
#1121 = CARTESIAN_POINT('',(4.5,7.79422863406,-275.25));
#1122 = VECTOR('',#1123,1.);
#1123 = DIRECTION('',(0.5,0.866025403784,2.22044604925E-16));
#1124 = PCURVE('',#821,#1125);
#1125 = DEFINITIONAL_REPRESENTATION('',(#1126),#1130);
#1126 = LINE('',#1127,#1128);
#1127 = CARTESIAN_POINT('',(6.28318530718,-0.));
#1128 = VECTOR('',#1129,1.);
#1129 = DIRECTION('',(0.,1.));
#1130 = ( GEOMETRIC_REPRESENTATION_CONTEXT(2) 
PARAMETRIC_REPRESENTATION_CONTEXT() REPRESENTATION_CONTEXT('2D SPACE',''
  ) );
#1131 = PCURVE('',#821,#1132);
#1132 = DEFINITIONAL_REPRESENTATION('',(#1133),#1137);
#1133 = LINE('',#1134,#1135);
#1134 = CARTESIAN_POINT('',(0.,-0.));
#1135 = VECTOR('',#1136,1.);
#1136 = DIRECTION('',(0.,1.));
#1137 = ( GEOMETRIC_REPRESENTATION_CONTEXT(2) 
PARAMETRIC_REPRESENTATION_CONTEXT() REPRESENTATION_CONTEXT('2D SPACE',''
  ) );
#1138 = ORIENTED_EDGE('',*,*,#1139,.T.);
#1139 = EDGE_CURVE('',#1117,#1117,#1140,.T.);
#1140 = SURFACE_CURVE('',#1141,(#1193,#1248),.PCURVE_S1.);
#1141 = B_SPLINE_CURVE_WITH_KNOTS('',8,(#1142,#1143,#1144,#1145,#1146,
    #1147,#1148,#1149,#1150,#1151,#1152,#1153,#1154,#1155,#1156,#1157,
    #1158,#1159,#1160,#1161,#1162,#1163,#1164,#1165,#1166,#1167,#1168,
    #1169,#1170,#1171,#1172,#1173,#1174,#1175,#1176,#1177,#1178,#1179,
    #1180,#1181,#1182,#1183,#1184,#1185,#1186,#1187,#1188,#1189,#1190,
    #1191,#1192),.UNSPECIFIED.,.T.,.F.,(9,7,7,7,7,7,7,9),(0.,
    0.130411492316,0.2503369025,0.400552755295,0.535615829512,
    0.749992076332,0.869778070347,1.),.UNSPECIFIED.);
#1142 = CARTESIAN_POINT('',(5.05,8.746856578223,-275.25));
#1143 = CARTESIAN_POINT('',(4.921847236618,8.820845610659,-275.25));
#1144 = CARTESIAN_POINT('',(4.794767496588,8.891353936407,
    -275.2299795494));
#1145 = CARTESIAN_POINT('',(4.671545122854,8.95695520879,-275.1912020476
    ));
#1146 = CARTESIAN_POINT('',(4.554816308186,9.016636386376,
    -275.1354730951));
#1147 = CARTESIAN_POINT('',(4.446962077791,9.069783341671,
    -275.0651173827));
#1148 = CARTESIAN_POINT('',(4.349939208655,9.116114796973,
    -274.9829548278));
#1149 = CARTESIAN_POINT('',(4.265078658951,9.155621327133,
    -274.8922713888));
#1150 = CARTESIAN_POINT('',(4.126488740549,9.218861993432,-274.708966825
    ));
#1151 = CARTESIAN_POINT('',(4.069701133853,9.244112612531,
    -274.6156277898));
#1152 = CARTESIAN_POINT('',(4.022520193376,9.264661343366,
    -274.5180739416));
#1153 = CARTESIAN_POINT('',(3.984892840191,9.280797472164,
    -274.4173800715));
#1154 = CARTESIAN_POINT('',(3.956745760796,9.292744153073,
    -274.3144570113));
#1155 = CARTESIAN_POINT('',(3.938010518436,9.300654623586,
    -274.2101041889));
#1156 = CARTESIAN_POINT('',(3.92864325718,9.304609726249,-274.1050515547
    ));
#1157 = CARTESIAN_POINT('',(3.92864325718,9.304609726249,-273.8684148016
    ));
#1158 = CARTESIAN_POINT('',(3.943339770199,9.298404406702,
    -273.7367833554));
#1159 = CARTESIAN_POINT('',(3.972752951824,9.285985719482,
    -273.6064765916));
#1160 = CARTESIAN_POINT('',(4.017009281081,9.267145917498,
    -273.4789692099));
#1161 = CARTESIAN_POINT('',(4.076265359323,9.241513016256,
    -273.3559555877));
#1162 = CARTESIAN_POINT('',(4.150631611321,9.208556367171,
    -273.2394631854));
#1163 = CARTESIAN_POINT('',(4.240068697771,9.167613088381,
    -273.1320107288));
#1164 = CARTESIAN_POINT('',(4.437883153727,9.073365150779,
    -272.9513044951));
#1165 = CARTESIAN_POINT('',(4.545601584279,9.020693543204,
    -272.8737192491));
#1166 = CARTESIAN_POINT('',(4.66541242256,8.960179480331,-272.8097359671
    ));
#1167 = CARTESIAN_POINT('',(4.79407932811,8.892593932135,-272.7635499669
    ));
#1168 = CARTESIAN_POINT('',(4.927625939997,8.81930813869,-272.7379077008
    ));
#1169 = CARTESIAN_POINT('',(5.061847085862,8.74231431588,-272.7340809697
    ));
#1170 = CARTESIAN_POINT('',(5.192744226849,8.664104367826,
    -272.7518189927));
#1171 = CARTESIAN_POINT('',(5.513762474448,8.46534566256,-272.8487160984
    ));
#1172 = CARTESIAN_POINT('',(5.684031982234,8.352782020249,
    -272.9549596808));
#1173 = CARTESIAN_POINT('',(5.824121670906,8.25474616248,-273.0945132395
    ));
#1174 = CARTESIAN_POINT('',(5.934158289618,8.174584893935,-273.257428208
    ));
#1175 = CARTESIAN_POINT('',(6.014948621681,8.114191612148,
    -273.4355528514));
#1176 = CARTESIAN_POINT('',(6.067736080926,8.074258347716,
    -273.6222498137));
#1177 = CARTESIAN_POINT('',(6.093706766641,8.054609726249,
    -273.8119962257));
#1178 = CARTESIAN_POINT('',(6.093706766641,8.054609726249,
    -274.1050499731));
#1179 = CARTESIAN_POINT('',(6.085598391944,8.060744269957,
    -274.2101016043));
#1180 = CARTESIAN_POINT('',(6.069379767324,8.073014047748,
    -274.3144553777));
#1181 = CARTESIAN_POINT('',(6.044960446476,8.091416800294,
    -274.4173792212));
#1182 = CARTESIAN_POINT('',(6.012172388757,8.115935319376,
    -274.5180742379));
#1183 = CARTESIAN_POINT('',(5.970784835996,8.146521428635,
    -274.6156298892));
#1184 = CARTESIAN_POINT('',(5.920523089366,8.183075944249,
    -274.7089686286));
#1185 = CARTESIAN_POINT('',(5.79648148662,8.271462766641,-274.8922416031
    ));
#1186 = CARTESIAN_POINT('',(5.719840269549,8.325199501757,
    -274.9829351187));
#1187 = CARTESIAN_POINT('',(5.631189624123,8.386069158275,
    -275.0651208583));
#1188 = CARTESIAN_POINT('',(5.531209386709,8.452918277154,
    -275.1354947415));
#1189 = CARTESIAN_POINT('',(5.421132190701,8.524184580183,
    -275.1912276567));
#1190 = CARTESIAN_POINT('',(5.302693901895,8.598104668117,
    -275.2299948018));
#1191 = CARTESIAN_POINT('',(5.178103941655,8.672895733024,-275.25));
#1192 = CARTESIAN_POINT('',(5.05,8.746856578223,-275.25));
#1193 = PCURVE('',#821,#1194);
#1194 = DEFINITIONAL_REPRESENTATION('',(#1195),#1247);
#1195 = B_SPLINE_CURVE_WITH_KNOTS('',8,(#1196,#1197,#1198,#1199,#1200,
    #1201,#1202,#1203,#1204,#1205,#1206,#1207,#1208,#1209,#1210,#1211,
    #1212,#1213,#1214,#1215,#1216,#1217,#1218,#1219,#1220,#1221,#1222,
    #1223,#1224,#1225,#1226,#1227,#1228,#1229,#1230,#1231,#1232,#1233,
    #1234,#1235,#1236,#1237,#1238,#1239,#1240,#1241,#1242,#1243,#1244,
    #1245,#1246),.UNSPECIFIED.,.F.,.F.,(9,7,7,7,7,7,7,9),(0.,
    0.130411492316,0.2503369025,0.400552755295,0.535615829512,
    0.749992076332,0.869778070347,1.),.UNSPECIFIED.);
#1196 = CARTESIAN_POINT('',(0.,1.1));
#1197 = CARTESIAN_POINT('',(0.118382451898,1.1));
#1198 = CARTESIAN_POINT('',(0.234629164583,1.097522131261));
#1199 = CARTESIAN_POINT('',(0.348768825056,1.092723312798));
#1200 = CARTESIAN_POINT('',(0.460714729094,1.086044321381));
#1201 = CARTESIAN_POINT('',(0.570261731495,1.078143819604));
#1202 = CARTESIAN_POINT('',(0.677052809109,1.069756602321));
#1203 = CARTESIAN_POINT('',(0.780500182615,1.061539986203));
#1204 = CARTESIAN_POINT('',(0.970819625413,1.047013050569));
#1205 = CARTESIAN_POINT('',(1.059871539697,1.040486924823));
#1206 = CARTESIAN_POINT('',(1.147234790739,1.034692177502));
#1207 = CARTESIAN_POINT('',(1.233274255136,1.029852798368));
#1208 = CARTESIAN_POINT('',(1.318326103849,1.026125387828));
#1209 = CARTESIAN_POINT('',(1.402713018693,1.023608435069));
#1210 = CARTESIAN_POINT('',(1.486755082998,1.022350023822));
#1211 = CARTESIAN_POINT('',(1.676064485458,1.022350023822));
#1212 = CARTESIAN_POINT('',(1.781369299492,1.024324315964));
#1213 = CARTESIAN_POINT('',(1.88739345517,1.028276008163));
#1214 = CARTESIAN_POINT('',(1.994736028615,1.03408842567));
#1215 = CARTESIAN_POINT('',(2.104010142649,1.041517721144));
#1216 = CARTESIAN_POINT('',(2.215863797837,1.050159551811));
#1217 = CARTESIAN_POINT('',(2.331021245414,1.05942017549));
#1218 = CARTESIAN_POINT('',(2.55781689358,1.076706295251));
#1219 = CARTESIAN_POINT('',(2.671118040857,1.084950560308));
#1220 = CARTESIAN_POINT('',(2.788237896379,1.092449263715));
#1221 = CARTESIAN_POINT('',(2.907847219637,1.098251914824));
#1222 = CARTESIAN_POINT('',(3.028968466826,1.101557861907));
#1223 = CARTESIAN_POINT('',(3.150773416433,1.101989828352));
#1224 = CARTESIAN_POINT('',(3.272442128273,1.099706597001));
#1225 = CARTESIAN_POINT('',(3.58414633729,1.088085632817));
#1226 = CARTESIAN_POINT('',(3.763157056623,1.075737412926));
#1227 = CARTESIAN_POINT('',(3.933550841359,1.060880713953));
#1228 = CARTESIAN_POINT('',(4.097170917126,1.046477328348));
#1229 = CARTESIAN_POINT('',(4.255655185871,1.034570378135));
#1230 = CARTESIAN_POINT('',(4.410186979895,1.026380886303));
#1231 = CARTESIAN_POINT('',(4.561985960957,1.022350023822));
#1232 = CARTESIAN_POINT('',(4.796428958937,1.022350023822));
#1233 = CARTESIAN_POINT('',(4.880470970883,1.023608507164));
#1234 = CARTESIAN_POINT('',(4.964856660402,1.026125134121));
#1235 = CARTESIAN_POINT('',(5.049910266597,1.029852724901));
#1236 = CARTESIAN_POINT('',(5.135951863321,1.034692356429));
#1237 = CARTESIAN_POINT('',(5.223314830123,1.04048692767));
#1238 = CARTESIAN_POINT('',(5.312367554318,1.0470131935));
#1239 = CARTESIAN_POINT('',(5.502654198987,1.061537625678));
#1240 = CARTESIAN_POINT('',(5.606106237638,1.069754394869));
#1241 = CARTESIAN_POINT('',(5.712919634969,1.078143741021));
#1242 = CARTESIAN_POINT('',(5.822494210994,1.086046657483));
#1243 = CARTESIAN_POINT('',(5.934463299831,1.092726488337));
#1244 = CARTESIAN_POINT('',(6.048613124456,1.097524017935));
#1245 = CARTESIAN_POINT('',(6.164847954861,1.1));
#1246 = CARTESIAN_POINT('',(6.28318530718,1.1));
#1247 = ( GEOMETRIC_REPRESENTATION_CONTEXT(2) 
PARAMETRIC_REPRESENTATION_CONTEXT() REPRESENTATION_CONTEXT('2D SPACE',''
  ) );
#1248 = PCURVE('',#960,#1249);
#1249 = DEFINITIONAL_REPRESENTATION('',(#1250),#1302);
#1250 = B_SPLINE_CURVE_WITH_KNOTS('',8,(#1251,#1252,#1253,#1254,#1255,
    #1256,#1257,#1258,#1259,#1260,#1261,#1262,#1263,#1264,#1265,#1266,
    #1267,#1268,#1269,#1270,#1271,#1272,#1273,#1274,#1275,#1276,#1277,
    #1278,#1279,#1280,#1281,#1282,#1283,#1284,#1285,#1286,#1287,#1288,
    #1289,#1290,#1291,#1292,#1293,#1294,#1295,#1296,#1297,#1298,#1299,
    #1300,#1301),.UNSPECIFIED.,.T.,.F.,(9,7,7,7,7,7,7,9),(0.,
    0.130411492316,0.2503369025,0.400552755295,0.535615829512,
    0.749992076332,0.869778070347,1.),.UNSPECIFIED.);
#1251 = CARTESIAN_POINT('',(1.047197551197,5.75));
#1252 = CARTESIAN_POINT('',(1.061848844748,5.75));
#1253 = CARTESIAN_POINT('',(1.076235827834,5.770020450541));
#1254 = CARTESIAN_POINT('',(1.090053886308,5.808797952359));
#1255 = CARTESIAN_POINT('',(1.103031039937,5.864526904877));
#1256 = CARTESIAN_POINT('',(1.114933791031,5.934882617282));
#1257 = CARTESIAN_POINT('',(1.125578253995,6.017045172129));
#1258 = CARTESIAN_POINT('',(1.134845896707,6.107728611132));
#1259 = CARTESIAN_POINT('',(1.149928763375,6.291033174924));
#1260 = CARTESIAN_POINT('',(1.156081782903,6.384372210102));
#1261 = CARTESIAN_POINT('',(1.161176795503,6.48192605839));
#1262 = CARTESIAN_POINT('',(1.165230329797,6.582619928465));
#1263 = CARTESIAN_POINT('',(1.168257795692,6.685542988663));
#1264 = CARTESIAN_POINT('',(1.170271338928,6.789895811009));
#1265 = CARTESIAN_POINT('',(1.171278072545,6.894948445254));
#1266 = CARTESIAN_POINT('',(1.171278072545,7.131585198329));
#1267 = CARTESIAN_POINT('',(1.169698580979,7.26321664456));
#1268 = CARTESIAN_POINT('',(1.166537456676,7.393523408321));
#1269 = CARTESIAN_POINT('',(1.16177514575,7.52103079002));
#1270 = CARTESIAN_POINT('',(1.155383053108,7.644044412271));
#1271 = CARTESIAN_POINT('',(1.147330173623,7.760536814526));
#1272 = CARTESIAN_POINT('',(1.137592374014,7.86798927119));
#1273 = CARTESIAN_POINT('',(1.115897401702,8.048695504829));
#1274 = CARTESIAN_POINT('',(1.104026109721,8.126280750827));
#1275 = CARTESIAN_POINT('',(1.090738211136,8.190264032811));
#1276 = CARTESIAN_POINT('',(1.076352392802,8.236450033057));
#1277 = CARTESIAN_POINT('',(1.061274982878,8.262092299176));
#1278 = CARTESIAN_POINT('',(1.045958669711,8.265919030225));
#1279 = CARTESIAN_POINT('',(1.030863274571,8.248181007296));
#1280 = CARTESIAN_POINT('',(0.993480285447,8.151283901585));
#1281 = CARTESIAN_POINT('',(0.973279995127,8.045040319106));
#1282 = CARTESIAN_POINT('',(0.956358978763,7.905486760469));
#1283 = CARTESIAN_POINT('',(0.942881514714,7.742571791967));
#1284 = CARTESIAN_POINT('',(0.932894975736,7.564447148531));
#1285 = CARTESIAN_POINT('',(0.926341371382,7.377750186289));
#1286 = CARTESIAN_POINT('',(0.923117029849,7.188003774284));
#1287 = CARTESIAN_POINT('',(0.923117029849,6.89495002681));
#1288 = CARTESIAN_POINT('',(0.92412371577,6.789898395665));
#1289 = CARTESIAN_POINT('',(0.926137271286,6.685544622257));
#1290 = CARTESIAN_POINT('',(0.92916471213,6.582620778756));
#1291 = CARTESIAN_POINT('',(0.933218275313,6.48192576204));
#1292 = CARTESIAN_POINT('',(0.938313426766,6.384370110782));
#1293 = CARTESIAN_POINT('',(0.944466487418,6.291031371392));
#1294 = CARTESIAN_POINT('',(0.959546754826,6.107758396841));
#1295 = CARTESIAN_POINT('',(0.968814098368,6.017064881252));
#1296 = CARTESIAN_POINT('',(0.979460408908,5.934879141677));
#1297 = CARTESIAN_POINT('',(0.991366334898,5.864505258455));
#1298 = CARTESIAN_POINT('',(1.004346662417,5.808772343215));
#1299 = CARTESIAN_POINT('',(1.018166325747,5.770005198176));
#1300 = CARTESIAN_POINT('',(1.032551839276,5.75));
#1301 = CARTESIAN_POINT('',(1.047197551197,5.75));
#1302 = ( GEOMETRIC_REPRESENTATION_CONTEXT(2) 
PARAMETRIC_REPRESENTATION_CONTEXT() REPRESENTATION_CONTEXT('2D SPACE',''
  ) );
#1303 = ORIENTED_EDGE('',*,*,#1116,.T.);
#1304 = ADVANCED_FACE('',(#1305),#922,.T.);
#1305 = FACE_BOUND('',#1306,.T.);
#1306 = EDGE_LOOP('',(#1307));
#1307 = ORIENTED_EDGE('',*,*,#907,.T.);
#1308 = ADVANCED_FACE('',(#1309,#1335),#960,.F.);
#1309 = FACE_BOUND('',#1310,.F.);
#1310 = EDGE_LOOP('',(#1311,#1332,#1333,#1334));
#1311 = ORIENTED_EDGE('',*,*,#1312,.T.);
#1312 = EDGE_CURVE('',#944,#979,#1313,.T.);
#1313 = SEAM_CURVE('',#1314,(#1318,#1325),.PCURVE_S1.);
#1314 = LINE('',#1315,#1316);
#1315 = CARTESIAN_POINT('',(10.1,-2.473786534278E-15,-281.));
#1316 = VECTOR('',#1317,1.);
#1317 = DIRECTION('',(0.,0.,1.));
#1318 = PCURVE('',#960,#1319);
#1319 = DEFINITIONAL_REPRESENTATION('',(#1320),#1324);
#1320 = LINE('',#1321,#1322);
#1321 = CARTESIAN_POINT('',(6.28318530718,-0.));
#1322 = VECTOR('',#1323,1.);
#1323 = DIRECTION('',(0.,1.));
#1324 = ( GEOMETRIC_REPRESENTATION_CONTEXT(2) 
PARAMETRIC_REPRESENTATION_CONTEXT() REPRESENTATION_CONTEXT('2D SPACE',''
  ) );
#1325 = PCURVE('',#960,#1326);
#1326 = DEFINITIONAL_REPRESENTATION('',(#1327),#1331);
#1327 = LINE('',#1328,#1329);
#1328 = CARTESIAN_POINT('',(0.,-0.));
#1329 = VECTOR('',#1330,1.);
#1330 = DIRECTION('',(0.,1.));
#1331 = ( GEOMETRIC_REPRESENTATION_CONTEXT(2) 
PARAMETRIC_REPRESENTATION_CONTEXT() REPRESENTATION_CONTEXT('2D SPACE',''
  ) );
#1332 = ORIENTED_EDGE('',*,*,#978,.F.);
#1333 = ORIENTED_EDGE('',*,*,#1312,.F.);
#1334 = ORIENTED_EDGE('',*,*,#943,.T.);
#1335 = FACE_BOUND('',#1336,.F.);
#1336 = EDGE_LOOP('',(#1337));
#1337 = ORIENTED_EDGE('',*,*,#1139,.F.);
#1338 = ADVANCED_FACE('',(#1339),#1043,.T.);
#1339 = FACE_BOUND('',#1340,.T.);
#1340 = EDGE_LOOP('',(#1341));
#1341 = ORIENTED_EDGE('',*,*,#1028,.T.);
#1342 = ADVANCED_FACE('',(#1343),#1098,.T.);
#1343 = FACE_BOUND('',#1344,.T.);
#1344 = EDGE_LOOP('',(#1345));
#1345 = ORIENTED_EDGE('',*,*,#1083,.T.);
#1346 = ( GEOMETRIC_REPRESENTATION_CONTEXT(3) 
GLOBAL_UNCERTAINTY_ASSIGNED_CONTEXT((#1350)) 
GLOBAL_UNIT_ASSIGNED_CONTEXT((#1347,#1348,#1349)) REPRESENTATION_CONTEXT
('Context #1','3D Context with UNIT and UNCERTAINTY') );
#1347 = ( LENGTH_UNIT() NAMED_UNIT(*) SI_UNIT(.MILLI.,.METRE.) );
#1348 = ( NAMED_UNIT(*) PLANE_ANGLE_UNIT() SI_UNIT($,.RADIAN.) );
#1349 = ( NAMED_UNIT(*) SI_UNIT($,.STERADIAN.) SOLID_ANGLE_UNIT() );
#1350 = UNCERTAINTY_MEASURE_WITH_UNIT(LENGTH_MEASURE(1.E-07),#1347,
  'distance_accuracy_value','confusion accuracy');
#1351 = PRODUCT_RELATED_PRODUCT_CATEGORY('part',$,(#7));
ENDSEC;
END-ISO-10303-21;
