ISO-10303-21;
HEADER;
FILE_DESCRIPTION(('Open CASCADE Model'),'2;1');
FILE_NAME('agitator','2026-08-07T09:44:19',('Author'),('Open CASCADE'),
  'Open CASCADE STEP processor 7.9','build123d','Unknown');
FILE_SCHEMA(('AUTOMOTIVE_DESIGN { 1 0 10303 214 1 1 1 1 }'));
ENDSEC;
DATA;
#1 = APPLICATION_PROTOCOL_DEFINITION('international standard',
  'automotive_design',2000,#2);
#2 = APPLICATION_CONTEXT(
  'core data for automotive mechanical design processes');
#3 = SHAPE_DEFINITION_REPRESENTATION(#4,#10);
#4 = PRODUCT_DEFINITION_SHAPE('','',#5);
#5 = PRODUCT_DEFINITION('design','',#6,#9);
#6 = PRODUCT_DEFINITION_FORMATION('','',#7);
#7 = PRODUCT('agitator','agitator','',(#8));
#8 = PRODUCT_CONTEXT('',#2,'mechanical');
#9 = PRODUCT_DEFINITION_CONTEXT('part definition',#2,'design');
#10 = ADVANCED_BREP_SHAPE_REPRESENTATION('',(#11,#15),#1448);
#11 = AXIS2_PLACEMENT_3D('',#12,#13,#14);
#12 = CARTESIAN_POINT('',(0.,0.,0.));
#13 = DIRECTION('',(0.,0.,1.));
#14 = DIRECTION('',(1.,0.,-0.));
#15 = MANIFOLD_SOLID_BREP('',#16);
#16 = CLOSED_SHELL('',(#17,#706,#741,#797,#959,#1014,#1069,#1124,#1128,
    #1204,#1253,#1302,#1351,#1400,#1427,#1431,#1435,#1439));
#17 = ADVANCED_FACE('',(#18,#316,#511),#32,.T.);
#18 = FACE_BOUND('',#19,.T.);
#19 = EDGE_LOOP('',(#20,#50,#147,#170,#197,#198,#288,#289));
#20 = ORIENTED_EDGE('',*,*,#21,.F.);
#21 = EDGE_CURVE('',#22,#24,#26,.T.);
#22 = VERTEX_POINT('',#23);
#23 = CARTESIAN_POINT('',(14.5,-3.551475717527E-15,-269.65));
#24 = VERTEX_POINT('',#25);
#25 = CARTESIAN_POINT('',(14.5,-3.551475717527E-15,-269.3));
#26 = SEAM_CURVE('',#27,(#31,#43),.PCURVE_S1.);
#27 = LINE('',#28,#29);
#28 = CARTESIAN_POINT('',(14.5,-3.551475717527E-15,-273.85));
#29 = VECTOR('',#30,1.);
#30 = DIRECTION('',(0.,0.,1.));
#31 = PCURVE('',#32,#37);
#32 = CYLINDRICAL_SURFACE('',#33,14.5);
#33 = AXIS2_PLACEMENT_3D('',#34,#35,#36);
#34 = CARTESIAN_POINT('',(0.,0.,-273.85));
#35 = DIRECTION('',(0.,0.,1.));
#36 = DIRECTION('',(1.,0.,-0.));
#37 = DEFINITIONAL_REPRESENTATION('',(#38),#42);
#38 = LINE('',#39,#40);
#39 = CARTESIAN_POINT('',(0.,-0.));
#40 = VECTOR('',#41,1.);
#41 = DIRECTION('',(0.,1.));
#42 = ( GEOMETRIC_REPRESENTATION_CONTEXT(2) 
PARAMETRIC_REPRESENTATION_CONTEXT() REPRESENTATION_CONTEXT('2D SPACE',''
  ) );
#43 = PCURVE('',#32,#44);
#44 = DEFINITIONAL_REPRESENTATION('',(#45),#49);
#45 = LINE('',#46,#47);
#46 = CARTESIAN_POINT('',(6.28318530718,-0.));
#47 = VECTOR('',#48,1.);
#48 = DIRECTION('',(0.,1.));
#49 = ( GEOMETRIC_REPRESENTATION_CONTEXT(2) 
PARAMETRIC_REPRESENTATION_CONTEXT() REPRESENTATION_CONTEXT('2D SPACE',''
  ) );
#50 = ORIENTED_EDGE('',*,*,#51,.F.);
#51 = EDGE_CURVE('',#52,#22,#54,.T.);
#52 = VERTEX_POINT('',#53);
#53 = CARTESIAN_POINT('',(14.5,-2.020667218593E-15,-273.65));
#54 = SURFACE_CURVE('',#55,(#82,#112),.PCURVE_S1.);
#55 = B_SPLINE_CURVE_WITH_KNOTS('',7,(#56,#57,#58,#59,#60,#61,#62,#63,
    #64,#65,#66,#67,#68,#69,#70,#71,#72,#73,#74,#75,#76,#77,#78,#79,#80,
    #81),.UNSPECIFIED.,.F.,.F.,(8,6,6,6,8),(0.,0.245772441953,
    0.500010789144,0.754261524018,1.),.UNSPECIFIED.);
#56 = CARTESIAN_POINT('',(14.5,-2.449293598295E-16,-273.65));
#57 = CARTESIAN_POINT('',(14.5,0.265364625997,-273.65));
#58 = CARTESIAN_POINT('',(14.494334032197,0.523670655675,-273.6089230234
    ));
#59 = CARTESIAN_POINT('',(14.483545560848,0.767535090147,-273.5306996083
    ));
#60 = CARTESIAN_POINT('',(14.469083933446,0.990813452688,-273.420658649)
  );
#61 = CARTESIAN_POINT('',(14.452938529163,1.188813172272,-273.2854767395
    ));
#62 = CARTESIAN_POINT('',(14.436898906112,1.358743122959,-273.1331001742
    ));
#63 = CARTESIAN_POINT('',(14.406958146046,1.646574557704,-272.8066194973
    ));
#64 = CARTESIAN_POINT('',(14.392746532233,1.76635861728,-272.6275506066)
  );
#65 = CARTESIAN_POINT('',(14.380572353699,1.86065020326,-272.4396507177)
  );
#66 = CARTESIAN_POINT('',(14.371081702254,1.930526751631,-272.2458944541
    ));
#67 = CARTESIAN_POINT('',(14.364634198265,1.97682353791,-272.0485153718)
  );
#68 = CARTESIAN_POINT('',(14.361406616345,2.,-271.8493282687));
#69 = CARTESIAN_POINT('',(14.361406616345,2.,-271.450662019));
#70 = CARTESIAN_POINT('',(14.36463450434,1.976821319726,-271.2514768668)
  );
#71 = CARTESIAN_POINT('',(14.371081985976,1.930524769368,-271.0541033449
    ));
#72 = CARTESIAN_POINT('',(14.380572272617,1.860650383043,-270.8603508797
    ));
#73 = CARTESIAN_POINT('',(14.392746386146,1.766360028941,-270.6724510433
    ));
#74 = CARTESIAN_POINT('',(14.406958144723,1.646574570423,-270.493380517)
  );
#75 = CARTESIAN_POINT('',(14.436896156558,1.358769555426,-270.1669298075
    ));
#76 = CARTESIAN_POINT('',(14.45293619035,1.188841566301,-270.0145403415)
  );
#77 = CARTESIAN_POINT('',(14.46908449309,0.990817847085,-269.8793324783)
  );
#78 = CARTESIAN_POINT('',(14.483548960407,0.767500432741,-269.7692756781
    ));
#79 = CARTESIAN_POINT('',(14.494336699658,0.523603788966,-269.6910576644
    ));
#80 = CARTESIAN_POINT('',(14.5,0.265302256328,-269.65));
#81 = CARTESIAN_POINT('',(14.5,3.673940397442E-16,-269.65));
#82 = PCURVE('',#32,#83);
#83 = DEFINITIONAL_REPRESENTATION('',(#84),#111);
#84 = B_SPLINE_CURVE_WITH_KNOTS('',7,(#85,#86,#87,#88,#89,#90,#91,#92,
    #93,#94,#95,#96,#97,#98,#99,#100,#101,#102,#103,#104,#105,#106,#107,
    #108,#109,#110),.UNSPECIFIED.,.F.,.F.,(8,6,6,6,8),(0.,0.245772441953
    ,0.500010789144,0.754261524018,1.),.UNSPECIFIED.);
#85 = CARTESIAN_POINT('',(0.,0.2));
#86 = CARTESIAN_POINT('',(1.830100868944E-02,0.2));
#87 = CARTESIAN_POINT('',(3.61152287417E-02,0.241076976593));
#88 = CARTESIAN_POINT('',(5.294341507771E-02,0.319300391664));
#89 = CARTESIAN_POINT('',(6.836974540666E-02,0.429341350912));
#90 = CARTESIAN_POINT('',(8.206840930653E-02,0.564523260409));
#91 = CARTESIAN_POINT('',(9.383926163432E-02,0.716899825767));
#92 = CARTESIAN_POINT('',(0.113796812775,1.043380502602));
#93 = CARTESIAN_POINT('',(0.12211485392,1.222449393352));
#94 = CARTESIAN_POINT('',(0.128671395844,1.410349282286));
#95 = CARTESIAN_POINT('',(0.133534678424,1.604105545821));
#96 = CARTESIAN_POINT('',(0.136758376303,1.801484628127));
#97 = CARTESIAN_POINT('',(0.138372177385,2.000671731221));
#98 = CARTESIAN_POINT('',(0.138372177385,2.399337980986));
#99 = CARTESIAN_POINT('',(0.136758221894,2.598523133116));
#100 = CARTESIAN_POINT('',(0.133534540293,2.795896655045));
#101 = CARTESIAN_POINT('',(0.128671408891,2.989649120209));
#102 = CARTESIAN_POINT('',(0.122114951758,3.177548956631));
#103 = CARTESIAN_POINT('',(0.113796813657,3.356619482971));
#104 = CARTESIAN_POINT('',(9.384109439903E-02,3.683070192485));
#105 = CARTESIAN_POINT('',(8.207037396812E-02,3.835459658436));
#106 = CARTESIAN_POINT('',(6.837004270905E-02,3.970667521655));
#107 = CARTESIAN_POINT('',(5.294101747744E-02,4.080724321848));
#108 = CARTESIAN_POINT('',(3.611061722144E-02,4.158942335578));
#109 = CARTESIAN_POINT('',(1.829670733299E-02,4.2));
#110 = CARTESIAN_POINT('',(0.,4.2));
#111 = ( GEOMETRIC_REPRESENTATION_CONTEXT(2) 
PARAMETRIC_REPRESENTATION_CONTEXT() REPRESENTATION_CONTEXT('2D SPACE',''
  ) );
#112 = PCURVE('',#113,#118);
#113 = CYLINDRICAL_SURFACE('',#114,2.);
#114 = AXIS2_PLACEMENT_3D('',#115,#116,#117);
#115 = CARTESIAN_POINT('',(10.,0.,-271.65));
#116 = DIRECTION('',(1.,0.,2.22044604925E-16));
#117 = DIRECTION('',(2.22044604925E-16,0.,-1.));
#118 = DEFINITIONAL_REPRESENTATION('',(#119),#146);
#119 = B_SPLINE_CURVE_WITH_KNOTS('',7,(#120,#121,#122,#123,#124,#125,
    #126,#127,#128,#129,#130,#131,#132,#133,#134,#135,#136,#137,#138,
    #139,#140,#141,#142,#143,#144,#145),.UNSPECIFIED.,.F.,.F.,(8,6,6,6,8
    ),(0.,0.245772441953,0.500010789144,0.754261524018,1.),
  .UNSPECIFIED.);
#120 = CARTESIAN_POINT('',(0.,4.5));
#121 = CARTESIAN_POINT('',(0.132682312998,4.5));
#122 = CARTESIAN_POINT('',(0.261835235112,4.494334032197));
#123 = CARTESIAN_POINT('',(0.387582934489,4.483545560848));
#124 = CARTESIAN_POINT('',(0.509754420106,4.469083933446));
#125 = CARTESIAN_POINT('',(0.627923472614,4.452938529163));
#126 = CARTESIAN_POINT('',(0.741261562008,4.436898906112));
#127 = CARTESIAN_POINT('',(0.95888311837,4.406958146046));
#128 = CARTESIAN_POINT('',(1.065651329693,4.392746532233));
#129 = CARTESIAN_POINT('',(1.169514393919,4.380572353699));
#130 = CARTESIAN_POINT('',(1.27123161646,4.371081702254));
#131 = CARTESIAN_POINT('',(1.371538786255,4.364634198265));
#132 = CARTESIAN_POINT('',(1.471132192406,4.361406616345));
#133 = CARTESIAN_POINT('',(1.670465317288,4.361406616345));
#134 = CARTESIAN_POINT('',(1.770057733611,4.36463450434));
#135 = CARTESIAN_POINT('',(1.870362394115,4.371081985976));
#136 = CARTESIAN_POINT('',(1.972077570606,4.380572272617));
#137 = CARTESIAN_POINT('',(2.075940245562,4.392746386146));
#138 = CARTESIAN_POINT('',(2.182709525604,4.406958144723));
#139 = CARTESIAN_POINT('',(2.40031110671,4.436896156558));
#140 = CARTESIAN_POINT('',(2.513653389591,4.45293619035));
#141 = CARTESIAN_POINT('',(2.63183896711,4.46908449309));
#142 = CARTESIAN_POINT('',(2.754029702494,4.483548960407));
#143 = CARTESIAN_POINT('',(2.879790858888,4.494336699658));
#144 = CARTESIAN_POINT('',(3.008941525426,4.5));
#145 = CARTESIAN_POINT('',(3.14159265359,4.5));
#146 = ( GEOMETRIC_REPRESENTATION_CONTEXT(2) 
PARAMETRIC_REPRESENTATION_CONTEXT() REPRESENTATION_CONTEXT('2D SPACE',''
  ) );
#147 = ORIENTED_EDGE('',*,*,#148,.F.);
#148 = EDGE_CURVE('',#149,#52,#151,.T.);
#149 = VERTEX_POINT('',#150);
#150 = CARTESIAN_POINT('',(14.5,-3.551475717527E-15,-273.85));
#151 = SEAM_CURVE('',#152,(#156,#163),.PCURVE_S1.);
#152 = LINE('',#153,#154);
#153 = CARTESIAN_POINT('',(14.5,-3.551475717527E-15,-273.85));
#154 = VECTOR('',#155,1.);
#155 = DIRECTION('',(0.,0.,1.));
#156 = PCURVE('',#32,#157);
#157 = DEFINITIONAL_REPRESENTATION('',(#158),#162);
#158 = LINE('',#159,#160);
#159 = CARTESIAN_POINT('',(6.28318530718,-0.));
#160 = VECTOR('',#161,1.);
#161 = DIRECTION('',(0.,1.));
#162 = ( GEOMETRIC_REPRESENTATION_CONTEXT(2) 
PARAMETRIC_REPRESENTATION_CONTEXT() REPRESENTATION_CONTEXT('2D SPACE',''
  ) );
#163 = PCURVE('',#32,#164);
#164 = DEFINITIONAL_REPRESENTATION('',(#165),#169);
#165 = LINE('',#166,#167);
#166 = CARTESIAN_POINT('',(0.,-0.));
#167 = VECTOR('',#168,1.);
#168 = DIRECTION('',(0.,1.));
#169 = ( GEOMETRIC_REPRESENTATION_CONTEXT(2) 
PARAMETRIC_REPRESENTATION_CONTEXT() REPRESENTATION_CONTEXT('2D SPACE',''
  ) );
#170 = ORIENTED_EDGE('',*,*,#171,.T.);
#171 = EDGE_CURVE('',#149,#149,#172,.T.);
#172 = SURFACE_CURVE('',#173,(#178,#185),.PCURVE_S1.);
#173 = CIRCLE('',#174,14.5);
#174 = AXIS2_PLACEMENT_3D('',#175,#176,#177);
#175 = CARTESIAN_POINT('',(0.,0.,-273.85));
#176 = DIRECTION('',(0.,0.,1.));
#177 = DIRECTION('',(1.,0.,-0.));
#178 = PCURVE('',#32,#179);
#179 = DEFINITIONAL_REPRESENTATION('',(#180),#184);
#180 = LINE('',#181,#182);
#181 = CARTESIAN_POINT('',(0.,0.));
#182 = VECTOR('',#183,1.);
#183 = DIRECTION('',(1.,0.));
#184 = ( GEOMETRIC_REPRESENTATION_CONTEXT(2) 
PARAMETRIC_REPRESENTATION_CONTEXT() REPRESENTATION_CONTEXT('2D SPACE',''
  ) );
#185 = PCURVE('',#186,#191);
#186 = PLANE('',#187);
#187 = AXIS2_PLACEMENT_3D('',#188,#189,#190);
#188 = CARTESIAN_POINT('',(0.,0.,-273.85));
#189 = DIRECTION('',(0.,0.,1.));
#190 = DIRECTION('',(1.,0.,-0.));
#191 = DEFINITIONAL_REPRESENTATION('',(#192),#196);
#192 = CIRCLE('',#193,14.5);
#193 = AXIS2_PLACEMENT_2D('',#194,#195);
#194 = CARTESIAN_POINT('',(0.,0.));
#195 = DIRECTION('',(1.,0.));
#196 = ( GEOMETRIC_REPRESENTATION_CONTEXT(2) 
PARAMETRIC_REPRESENTATION_CONTEXT() REPRESENTATION_CONTEXT('2D SPACE',''
  ) );
#197 = ORIENTED_EDGE('',*,*,#148,.T.);
#198 = ORIENTED_EDGE('',*,*,#199,.F.);
#199 = EDGE_CURVE('',#22,#52,#200,.T.);
#200 = SURFACE_CURVE('',#201,(#228,#258),.PCURVE_S1.);
#201 = B_SPLINE_CURVE_WITH_KNOTS('',7,(#202,#203,#204,#205,#206,#207,
    #208,#209,#210,#211,#212,#213,#214,#215,#216,#217,#218,#219,#220,
    #221,#222,#223,#224,#225,#226,#227),.UNSPECIFIED.,.F.,.F.,(8,6,6,6,8
    ),(0.,0.245796642199,0.500052490841,0.75430782437,1.),
  .UNSPECIFIED.);
#202 = CARTESIAN_POINT('',(14.5,-1.33226762955E-15,-269.65));
#203 = CARTESIAN_POINT('',(14.5,-0.265364625997,-269.65));
#204 = CARTESIAN_POINT('',(14.494334032197,-0.523670655675,
    -269.6910769765));
#205 = CARTESIAN_POINT('',(14.483545560848,-0.767535090146,
    -269.7693003916));
#206 = CARTESIAN_POINT('',(14.469083933446,-0.990813452689,
    -269.8793413509));
#207 = CARTESIAN_POINT('',(14.452938529163,-1.188813172272,
    -270.0145232604));
#208 = CARTESIAN_POINT('',(14.436898906112,-1.358743122959,
    -270.1668998257));
#209 = CARTESIAN_POINT('',(14.406958597043,-1.646570222102,
    -270.4933755848));
#210 = CARTESIAN_POINT('',(14.392746463611,-1.766360272284,
    -270.6724487426));
#211 = CARTESIAN_POINT('',(14.380571887701,-1.860653107991,
    -270.8603545868));
#212 = CARTESIAN_POINT('',(14.371081754861,-1.930526428339,
    -271.054109627));
#213 = CARTESIAN_POINT('',(14.364634520994,-1.976821204478,
    -271.2514806003));
#214 = CARTESIAN_POINT('',(14.361406616345,-2.,-271.450661609));
#215 = CARTESIAN_POINT('',(14.361406616345,-2.,-271.849337987));
#216 = CARTESIAN_POINT('',(14.364634504475,-1.976821318182,
    -272.0485231181));
#217 = CARTESIAN_POINT('',(14.371081985248,-1.930524776688,
    -272.2458966658));
#218 = CARTESIAN_POINT('',(14.380572274051,-1.860650369281,
    -272.4396491255));
#219 = CARTESIAN_POINT('',(14.392746384845,-1.766360041298,
    -272.6275489447));
#220 = CARTESIAN_POINT('',(14.406958145212,-1.646574565721,
    -272.8066194883));
#221 = CARTESIAN_POINT('',(14.436893117663,-1.358798769428,
    -273.1330370557));
#222 = CARTESIAN_POINT('',(14.452934434477,-1.188864893321,
    -273.2854498748));
#223 = CARTESIAN_POINT('',(14.469086381963,-0.99080765859,
    -273.4206862699));
#224 = CARTESIAN_POINT('',(14.483552969803,-0.76744995601,
    -273.5307531986));
#225 = CARTESIAN_POINT('',(14.49433922183,-0.523530683388,-273.608960669
    ));
#226 = CARTESIAN_POINT('',(14.5,-0.265243014876,-273.65));
#227 = CARTESIAN_POINT('',(14.5,-1.998401444325E-15,-273.65));
#228 = PCURVE('',#32,#229);
#229 = DEFINITIONAL_REPRESENTATION('',(#230),#257);
#230 = B_SPLINE_CURVE_WITH_KNOTS('',7,(#231,#232,#233,#234,#235,#236,
    #237,#238,#239,#240,#241,#242,#243,#244,#245,#246,#247,#248,#249,
    #250,#251,#252,#253,#254,#255,#256),.UNSPECIFIED.,.F.,.F.,(8,6,6,6,8
    ),(0.,0.245796642199,0.500052490841,0.75430782437,1.),
  .UNSPECIFIED.);
#231 = CARTESIAN_POINT('',(6.28318530718,4.2));
#232 = CARTESIAN_POINT('',(6.26488429849,4.2));
#233 = CARTESIAN_POINT('',(6.247070078438,4.158923023407));
#234 = CARTESIAN_POINT('',(6.230241892102,4.080699608336));
#235 = CARTESIAN_POINT('',(6.214815561773,3.970658649088));
#236 = CARTESIAN_POINT('',(6.201116897873,3.835476739591));
#237 = CARTESIAN_POINT('',(6.189346045545,3.683100174233));
#238 = CARTESIAN_POINT('',(6.169388795025,3.356624415173));
#239 = CARTESIAN_POINT('',(6.161070339297,3.177551257353));
#240 = CARTESIAN_POINT('',(6.154513708684,2.989645413106));
#241 = CARTESIAN_POINT('',(6.149650651261,2.795890372993));
#242 = CARTESIAN_POINT('',(6.146427093351,2.598519399615));
#243 = CARTESIAN_POINT('',(6.144813129794,2.399338390951));
#244 = CARTESIAN_POINT('',(6.144813129794,2.000662012901));
#245 = CARTESIAN_POINT('',(6.146427085392,1.801476881835));
#246 = CARTESIAN_POINT('',(6.14965076638,1.604103334129));
#247 = CARTESIAN_POINT('',(6.154513899243,1.410350874441));
#248 = CARTESIAN_POINT('',(6.161070354565,1.222451055293));
#249 = CARTESIAN_POINT('',(6.169388493849,1.043380511695));
#250 = CARTESIAN_POINT('',(6.189342187151,0.716962944296));
#251 = CARTESIAN_POINT('',(6.201113320534,0.564550125122));
#252 = CARTESIAN_POINT('',(6.214815976122,0.429313730081));
#253 = CARTESIAN_POINT('',(6.230247778309,0.319246801349));
#254 = CARTESIAN_POINT('',(6.247079731504,0.241039330925));
#255 = CARTESIAN_POINT('',(6.264892685464,0.2));
#256 = CARTESIAN_POINT('',(6.28318530718,0.2));
#257 = ( GEOMETRIC_REPRESENTATION_CONTEXT(2) 
PARAMETRIC_REPRESENTATION_CONTEXT() REPRESENTATION_CONTEXT('2D SPACE',''
  ) );
#258 = PCURVE('',#113,#259);
#259 = DEFINITIONAL_REPRESENTATION('',(#260),#287);
#260 = B_SPLINE_CURVE_WITH_KNOTS('',7,(#261,#262,#263,#264,#265,#266,
    #267,#268,#269,#270,#271,#272,#273,#274,#275,#276,#277,#278,#279,
    #280,#281,#282,#283,#284,#285,#286),.UNSPECIFIED.,.F.,.F.,(8,6,6,6,8
    ),(0.,0.245796642199,0.500052490841,0.75430782437,1.),
  .UNSPECIFIED.);
#261 = CARTESIAN_POINT('',(3.14159265359,4.5));
#262 = CARTESIAN_POINT('',(3.274274966588,4.5));
#263 = CARTESIAN_POINT('',(3.403427888702,4.494334032197));
#264 = CARTESIAN_POINT('',(3.529175588079,4.483545560848));
#265 = CARTESIAN_POINT('',(3.651347073696,4.469083933446));
#266 = CARTESIAN_POINT('',(3.769516126204,4.452938529163));
#267 = CARTESIAN_POINT('',(3.882854215597,4.436898906112));
#268 = CARTESIAN_POINT('',(4.100472493928,4.406958597043));
#269 = CARTESIAN_POINT('',(4.207244276526,4.392746463611));
#270 = CARTESIAN_POINT('',(4.311109844178,4.380571887701));
#271 = CARTESIAN_POINT('',(4.412826070487,4.371081754861));
#272 = CARTESIAN_POINT('',(4.513129430146,4.364634520994));
#273 = CARTESIAN_POINT('',(4.612719784909,4.361406616345));
#274 = CARTESIAN_POINT('',(4.812057973934,4.361406616345));
#275 = CARTESIAN_POINT('',(4.911650380108,4.364634504475));
#276 = CARTESIAN_POINT('',(5.011955051625,4.371081985248));
#277 = CARTESIAN_POINT('',(5.113670229445,4.380572274051));
#278 = CARTESIAN_POINT('',(5.217532890919,4.392746384845));
#279 = CARTESIAN_POINT('',(5.324302182749,4.406958145212));
#280 = CARTESIAN_POINT('',(5.541881672383,4.436893117663));
#281 = CARTESIAN_POINT('',(5.655234670672,4.452934434477));
#282 = CARTESIAN_POINT('',(5.773440738728,4.469086381963));
#283 = CARTESIAN_POINT('',(5.895650117011,4.483552969803));
#284 = CARTESIAN_POINT('',(6.021420071222,4.49433922183));
#285 = CARTESIAN_POINT('',(6.150563799742,4.5));
#286 = CARTESIAN_POINT('',(6.28318530718,4.5));
#287 = ( GEOMETRIC_REPRESENTATION_CONTEXT(2) 
PARAMETRIC_REPRESENTATION_CONTEXT() REPRESENTATION_CONTEXT('2D SPACE',''
  ) );
#288 = ORIENTED_EDGE('',*,*,#21,.T.);
#289 = ORIENTED_EDGE('',*,*,#290,.F.);
#290 = EDGE_CURVE('',#24,#24,#291,.T.);
#291 = SURFACE_CURVE('',#292,(#297,#304),.PCURVE_S1.);
#292 = CIRCLE('',#293,14.5);
#293 = AXIS2_PLACEMENT_3D('',#294,#295,#296);
#294 = CARTESIAN_POINT('',(0.,0.,-269.3));
#295 = DIRECTION('',(0.,0.,1.));
#296 = DIRECTION('',(1.,0.,-0.));
#297 = PCURVE('',#32,#298);
#298 = DEFINITIONAL_REPRESENTATION('',(#299),#303);
#299 = LINE('',#300,#301);
#300 = CARTESIAN_POINT('',(0.,4.55));
#301 = VECTOR('',#302,1.);
#302 = DIRECTION('',(1.,0.));
#303 = ( GEOMETRIC_REPRESENTATION_CONTEXT(2) 
PARAMETRIC_REPRESENTATION_CONTEXT() REPRESENTATION_CONTEXT('2D SPACE',''
  ) );
#304 = PCURVE('',#305,#310);
#305 = PLANE('',#306);
#306 = AXIS2_PLACEMENT_3D('',#307,#308,#309);
#307 = CARTESIAN_POINT('',(0.,0.,-269.3));
#308 = DIRECTION('',(0.,0.,1.));
#309 = DIRECTION('',(1.,0.,-0.));
#310 = DEFINITIONAL_REPRESENTATION('',(#311),#315);
#311 = CIRCLE('',#312,14.5);
#312 = AXIS2_PLACEMENT_2D('',#313,#314);
#313 = CARTESIAN_POINT('',(0.,0.));
#314 = DIRECTION('',(1.,0.));
#315 = ( GEOMETRIC_REPRESENTATION_CONTEXT(2) 
PARAMETRIC_REPRESENTATION_CONTEXT() REPRESENTATION_CONTEXT('2D SPACE',''
  ) );
#316 = FACE_BOUND('',#317,.T.);
#317 = EDGE_LOOP('',(#318));
#318 = ORIENTED_EDGE('',*,*,#319,.F.);
#319 = EDGE_CURVE('',#320,#320,#322,.T.);
#320 = VERTEX_POINT('',#321);
#321 = CARTESIAN_POINT('',(-7.25,-12.55736835487,-273.65));
#322 = SURFACE_CURVE('',#323,(#382,#444),.PCURVE_S1.);
#323 = B_SPLINE_CURVE_WITH_KNOTS('',8,(#324,#325,#326,#327,#328,#329,
    #330,#331,#332,#333,#334,#335,#336,#337,#338,#339,#340,#341,#342,
    #343,#344,#345,#346,#347,#348,#349,#350,#351,#352,#353,#354,#355,
    #356,#357,#358,#359,#360,#361,#362,#363,#364,#365,#366,#367,#368,
    #369,#370,#371,#372,#373,#374,#375,#376,#377,#378,#379,#380,#381),
  .UNSPECIFIED.,.T.,.F.,(9,7,7,7,7,7,7,7,9),(0.,0.137057061401,
    0.278835205787,0.44849651151,0.594790387124,0.689393751139,
    0.793455262896,0.89849649401,1.),.UNSPECIFIED.);
#324 = CARTESIAN_POINT('',(-7.25,-12.55736835487,-273.65));
#325 = CARTESIAN_POINT('',(-7.048914056043,-12.67346537874,-273.65));
#326 = CARTESIAN_POINT('',(-6.850288066956,-12.78323527496,
    -273.6191922675));
#327 = CARTESIAN_POINT('',(-6.658288030689,-12.88466501501,
    -273.5600333889));
#328 = CARTESIAN_POINT('',(-6.476770120172,-12.97644345991,
    -273.4756791287));
#329 = CARTESIAN_POINT('',(-6.309142787817,-13.05788255577,
    -273.369965433));
#330 = CARTESIAN_POINT('',(-6.158130990619,-13.1287870753,
    -273.2473825982));
#331 = CARTESIAN_POINT('',(-6.025508031712,-13.18934205233,
    -273.1130406187));
#332 = CARTESIAN_POINT('',(-5.794298281498,-13.29258002856,
    -272.8273700265));
#333 = CARTESIAN_POINT('',(-5.694372292725,-13.33576733298,
    -272.6723178293));
#334 = CARTESIAN_POINT('',(-5.611820582553,-13.37054008897,
    -272.510113176));
#335 = CARTESIAN_POINT('',(-5.546285737399,-13.39762564536,
    -272.3427725859));
#336 = CARTESIAN_POINT('',(-5.497411412144,-13.41757196891,
    -272.1718772983));
#337 = CARTESIAN_POINT('',(-5.464916397529,-13.4307481665,-271.998718596
    ));
#338 = CARTESIAN_POINT('',(-5.448652500604,-13.43734296383,
    -271.8244122351));
#339 = CARTESIAN_POINT('',(-5.448652500604,-13.43734296383,
    -271.4412865365));
#340 = CARTESIAN_POINT('',(-5.471943086387,-13.4278988038,
    -271.2326128879));
#341 = CARTESIAN_POINT('',(-5.518508291383,-13.4090178656,
    -271.0256318633));
#342 = CARTESIAN_POINT('',(-5.588801138397,-13.3802510598,
    -270.8222710446));
#343 = CARTESIAN_POINT('',(-5.683466587094,-13.34081348718,
    -270.6250592365));
#344 = CARTESIAN_POINT('',(-5.803109395408,-13.28959562608,
    -270.4373095265));
#345 = CARTESIAN_POINT('',(-5.948032755895,-13.22520319162,
    -270.2633475449));
#346 = CARTESIAN_POINT('',(-6.264322226808,-13.07801051842,
    -269.9758613995));
#347 = CARTESIAN_POINT('',(-6.434810749807,-12.99640146767,
    -269.8523010249));
#348 = CARTESIAN_POINT('',(-6.626180028338,-12.90145604522,
    -269.7488175781));
#349 = CARTESIAN_POINT('',(-6.833069318981,-12.79422702773,
    -269.6732614603));
#350 = CARTESIAN_POINT('',(-7.048584246934,-12.67683505763,
    -269.6308236949));
#351 = CARTESIAN_POINT('',(-7.265459517483,-12.55263013895,
    -269.623986742));
#352 = CARTESIAN_POINT('',(-7.476753332486,-12.42592383208,
    -269.6524231768));
#353 = CARTESIAN_POINT('',(-7.805631589311,-12.22069115694,
    -269.7518991313));
#354 = CARTESIAN_POINT('',(-7.930893783004,-12.14036955428,
    -269.8046219873));
#355 = CARTESIAN_POINT('',(-8.051114654058,-12.06121111362,
    -269.8706295356));
#356 = CARTESIAN_POINT('',(-8.165247151637,-11.98414789193,
    -269.9493766935));
#357 = CARTESIAN_POINT('',(-8.272343529108,-11.91013843438,
    -270.0401498021));
#358 = CARTESIAN_POINT('',(-8.371557549151,-11.84013895895,
    -270.1420744473));
#359 = CARTESIAN_POINT('',(-8.462151443596,-11.77506397202,
    -270.2541273064));
#360 = CARTESIAN_POINT('',(-8.632997548559,-11.65047726559,
    -270.508276406));
#361 = CARTESIAN_POINT('',(-8.711337656043,-11.59215271577,
    -270.6522976673));
#362 = CARTESIAN_POINT('',(-8.777684295414,-11.54187150936,
    -270.8056789823));
#363 = CARTESIAN_POINT('',(-8.831393008336,-11.50059985482,
    -270.9667203833));
#364 = CARTESIAN_POINT('',(-8.871991884538,-11.46910813072,
    -271.1336004995));
#365 = CARTESIAN_POINT('',(-8.899166167688,-11.44793130434,
    -271.3044141927));
#366 = CARTESIAN_POINT('',(-8.912754115741,-11.43734296383,
    -271.4772060884));
#367 = CARTESIAN_POINT('',(-8.912754115741,-11.43734296383,
    -271.8244207333));
#368 = CARTESIAN_POINT('',(-8.898909579282,-11.44813154368,
    -271.998726845));
#369 = CARTESIAN_POINT('',(-8.871250828858,-11.46968521076,
    -272.1718815843));
#370 = CARTESIAN_POINT('',(-8.829540560741,-11.50203770628,
    -272.3427728876));
#371 = CARTESIAN_POINT('',(-8.773317591128,-11.54524881826,
    -272.5101115588));
#372 = CARTESIAN_POINT('',(-8.701928007668,-11.59935410446,
    -272.6723165882));
#373 = CARTESIAN_POINT('',(-8.614562854882,-11.66429951659,
    -272.8273700139));
#374 = CARTESIAN_POINT('',(-8.409590895586,-11.81288532066,-273.11298539
    ));
#375 = CARTESIAN_POINT('',(-8.290841015348,-11.89746115134,-273.24734667
    ));
#376 = CARTESIAN_POINT('',(-8.153900277176,-11.99281131671,
    -273.3699726217));
#377 = CARTESIAN_POINT('',(-7.99950771824,-12.09729618898,
    -273.4757197342));
#378 = CARTESIAN_POINT('',(-7.82921495772,-12.20863763262,-273.560081));
#379 = CARTESIAN_POINT('',(-7.645347159066,-12.32421218846,
    -273.6192205017));
#380 = CARTESIAN_POINT('',(-7.450993790452,-12.44132453585,-273.65));
#381 = CARTESIAN_POINT('',(-7.25,-12.55736835487,-273.65));
#382 = PCURVE('',#32,#383);
#383 = DEFINITIONAL_REPRESENTATION('',(#384),#443);
#384 = B_SPLINE_CURVE_WITH_KNOTS('',8,(#385,#386,#387,#388,#389,#390,
    #391,#392,#393,#394,#395,#396,#397,#398,#399,#400,#401,#402,#403,
    #404,#405,#406,#407,#408,#409,#410,#411,#412,#413,#414,#415,#416,
    #417,#418,#419,#420,#421,#422,#423,#424,#425,#426,#427,#428,#429,
    #430,#431,#432,#433,#434,#435,#436,#437,#438,#439,#440,#441,#442),
  .UNSPECIFIED.,.T.,.F.,(9,7,7,7,7,7,7,7,9),(0.,0.137057061401,
    0.278835205787,0.44849651151,0.594790387124,0.689393751139,
    0.793455262896,0.89849649401,1.),.UNSPECIFIED.);
#385 = CARTESIAN_POINT('',(4.188790204786,0.2));
#386 = CARTESIAN_POINT('',(4.20480358739,0.2));
#387 = CARTESIAN_POINT('',(4.220451878515,0.230807732445));
#388 = CARTESIAN_POINT('',(4.235423049988,0.289966611012));
#389 = CARTESIAN_POINT('',(4.249446785029,0.374320871288));
#390 = CARTESIAN_POINT('',(4.262296949156,0.480034566973));
#391 = CARTESIAN_POINT('',(4.273801327175,0.602617401748));
#392 = CARTESIAN_POINT('',(4.283855693981,0.736959381215));
#393 = CARTESIAN_POINT('',(4.301318551228,1.022629973446));
#394 = CARTESIAN_POINT('',(4.30882554842,1.177682170664));
#395 = CARTESIAN_POINT('',(4.315002897409,1.339886823936));
#396 = CARTESIAN_POINT('',(4.31989324192,1.507227414054));
#397 = CARTESIAN_POINT('',(4.323533769915,1.678122701686));
#398 = CARTESIAN_POINT('',(4.32595203136,1.851281403901));
#399 = CARTESIAN_POINT('',(4.327162382171,2.025587764819));
#400 = CARTESIAN_POINT('',(4.327162382171,2.408713463441));
#401 = CARTESIAN_POINT('',(4.325429102867,2.617387112057));
#402 = CARTESIAN_POINT('',(4.321963767517,2.824368136653));
#403 = CARTESIAN_POINT('',(4.316725760102,3.027728955342));
#404 = CARTESIAN_POINT('',(4.309653534051,3.224940763452));
#405 = CARTESIAN_POINT('',(4.300679063988,3.412690473457));
#406 = CARTESIAN_POINT('',(4.289743842289,3.586652455056));
#407 = CARTESIAN_POINT('',(4.265684392293,3.874138600415));
#408 = CARTESIAN_POINT('',(4.252649704486,3.997698975044));
#409 = CARTESIAN_POINT('',(4.237919225191,4.101182421842));
#410 = CARTESIAN_POINT('',(4.221853759365,4.176738539626));
#411 = CARTESIAN_POINT('',(4.204936308536,4.219176305046));
#412 = CARTESIAN_POINT('',(4.187705967502,4.226013257967));
#413 = CARTESIAN_POINT('',(4.170717414785,4.197576823123));
#414 = CARTESIAN_POINT('',(4.143982146023,4.098100868698));
#415 = CARTESIAN_POINT('',(4.133720678863,4.045378012629));
#416 = CARTESIAN_POINT('',(4.123794876822,3.97937046439));
#417 = CARTESIAN_POINT('',(4.114298594209,3.900623306491));
#418 = CARTESIAN_POINT('',(4.105321510644,3.809850197874));
#419 = CARTESIAN_POINT('',(4.09694808082,3.707925552692));
#420 = CARTESIAN_POINT('',(4.089255605759,3.59587269359));
#421 = CARTESIAN_POINT('',(4.074672987956,3.341723593918));
#422 = CARTESIAN_POINT('',(4.067937642419,3.197702332676));
#423 = CARTESIAN_POINT('',(4.062196736958,3.0443210177));
#424 = CARTESIAN_POINT('',(4.057525511959,2.883279616616));
#425 = CARTESIAN_POINT('',(4.053982018139,2.71639950044));
#426 = CARTESIAN_POINT('',(4.051606040372,2.545585807209));
#427 = CARTESIAN_POINT('',(4.050418027401,2.372793911522));
#428 = CARTESIAN_POINT('',(4.050418027401,2.025579266637));
#429 = CARTESIAN_POINT('',(4.051628494019,1.851273154916));
#430 = CARTESIAN_POINT('',(4.054046783893,1.678118415679));
#431 = CARTESIAN_POINT('',(4.057687230194,1.507227112373));
#432 = CARTESIAN_POINT('',(4.06257746732,1.339888441132));
#433 = CARTESIAN_POINT('',(4.068754787554,1.177683411784));
#434 = CARTESIAN_POINT('',(4.076261857573,1.022629986069));
#435 = CARTESIAN_POINT('',(4.093721339495,0.737014609951));
#436 = CARTESIAN_POINT('',(4.103775434794,0.602653329918));
#437 = CARTESIAN_POINT('',(4.115282377884,0.480027378207));
#438 = CARTESIAN_POINT('',(4.128136774824,0.374280265703));
#439 = CARTESIAN_POINT('',(4.142164658365,0.289918999941));
#440 = CARTESIAN_POINT('',(4.1571378676,0.230779498201));
#441 = CARTESIAN_POINT('',(4.172784160783,0.2));
#442 = CARTESIAN_POINT('',(4.188790204786,0.2));
#443 = ( GEOMETRIC_REPRESENTATION_CONTEXT(2) 
PARAMETRIC_REPRESENTATION_CONTEXT() REPRESENTATION_CONTEXT('2D SPACE',''
  ) );
#444 = PCURVE('',#445,#450);
#445 = CYLINDRICAL_SURFACE('',#446,2.);
#446 = AXIS2_PLACEMENT_3D('',#447,#448,#449);
#447 = CARTESIAN_POINT('',(-5.,-8.660254037844,-271.65));
#448 = DIRECTION('',(-0.5,-0.866025403784,2.22044604925E-16));
#449 = DIRECTION('',(-1.110223024625E-16,-1.922962686384E-16,-1.));
#450 = DEFINITIONAL_REPRESENTATION('',(#451),#510);
#451 = B_SPLINE_CURVE_WITH_KNOTS('',8,(#452,#453,#454,#455,#456,#457,
    #458,#459,#460,#461,#462,#463,#464,#465,#466,#467,#468,#469,#470,
    #471,#472,#473,#474,#475,#476,#477,#478,#479,#480,#481,#482,#483,
    #484,#485,#486,#487,#488,#489,#490,#491,#492,#493,#494,#495,#496,
    #497,#498,#499,#500,#501,#502,#503,#504,#505,#506,#507,#508,#509),
  .UNSPECIFIED.,.F.,.F.,(9,7,7,7,7,7,7,7,9),(0.,0.137057061401,
    0.278835205787,0.44849651151,0.594790387124,0.689393751139,
    0.793455262896,0.89849649401,1.),.UNSPECIFIED.);
#452 = CARTESIAN_POINT('',(0.,4.5));
#453 = CARTESIAN_POINT('',(0.116097023874,4.5));
#454 = CARTESIAN_POINT('',(0.229547004584,4.495750524148));
#455 = CARTESIAN_POINT('',(0.340427547223,4.487591237604));
#456 = CARTESIAN_POINT('',(0.448668677298,4.476314747147));
#457 = CARTESIAN_POINT('',(0.554067814797,4.46302940684));
#458 = CARTESIAN_POINT('',(0.656257994963,4.4489286234));
#459 = CARTESIAN_POINT('',(0.754632618815,4.435059292379));
#460 = CARTESIAN_POINT('',(0.945051480632,4.408861127321));
#461 = CARTESIAN_POINT('',(1.038959276862,4.396299435686));
#462 = CARTESIAN_POINT('',(1.130565744834,4.385137670649));
#463 = CARTESIAN_POINT('',(1.220373005189,4.375827027977));
#464 = CARTESIAN_POINT('',(1.308846805133,4.368663888258));
#465 = CARTESIAN_POINT('',(1.396437137792,4.363827302785));
#466 = CARTESIAN_POINT('',(1.483590209204,4.361406616345));
#467 = CARTESIAN_POINT('',(1.675153058515,4.361406616345));
#468 = CARTESIAN_POINT('',(1.779489660793,4.364873026736));
#469 = CARTESIAN_POINT('',(1.884712697076,4.371804257103));
#470 = CARTESIAN_POINT('',(1.991585028926,4.382037896));
#471 = CARTESIAN_POINT('',(2.100824161,4.395216680603));
#472 = CARTESIAN_POINT('',(2.213149595826,4.410682115913));
#473 = CARTESIAN_POINT('',(2.329350160797,4.427378312101));
#474 = CARTESIAN_POINT('',(2.554856377995,4.458050453317));
#475 = CARTESIAN_POINT('',(2.666839104131,4.472619203687));
#476 = CARTESIAN_POINT('',(2.783691786593,4.486078695138));
#477 = CARTESIAN_POINT('',(2.903720046214,4.496660287294));
#478 = CARTESIAN_POINT('',(3.025712691282,4.50275332296));
#479 = CARTESIAN_POINT('',(3.148626502226,4.503626343383));
#480 = CARTESIAN_POINT('',(3.27146257206,4.499542370318));
#481 = CARTESIAN_POINT('',(3.471462571172,4.486244788374));
#482 = CARTESIAN_POINT('',(3.550003958318,4.479315336841));
#483 = CARTESIAN_POINT('',(3.628539711593,4.470872551839));
#484 = CARTESIAN_POINT('',(3.707074846092,4.46120009294));
#485 = CARTESIAN_POINT('',(3.785614613063,4.450654211324));
#486 = CARTESIAN_POINT('',(3.864159348847,4.439639897366));
#487 = CARTESIAN_POINT('',(3.942703467428,4.428580252756));
#488 = CARTESIAN_POINT('',(4.107625421758,4.406108052494));
#489 = CARTESIAN_POINT('',(4.19402759464,4.394767564427));
#490 = CARTESIAN_POINT('',(4.280426778344,4.384396082031));
#491 = CARTESIAN_POINT('',(4.366818452438,4.375508137208));
#492 = CARTESIAN_POINT('',(4.453206216512,4.368534942229));
#493 = CARTESIAN_POINT('',(4.539596263765,4.363782414188));
#494 = CARTESIAN_POINT('',(4.625992024624,4.361406616345));
#495 = CARTESIAN_POINT('',(4.799599347066,4.361406616345));
#496 = CARTESIAN_POINT('',(4.88675228312,4.363827532341));
#497 = CARTESIAN_POINT('',(4.974340800016,4.368664180363));
#498 = CARTESIAN_POINT('',(5.06281263595,4.375827129297));
#499 = CARTESIAN_POINT('',(5.152618727304,4.38513756519));
#500 = CARTESIAN_POINT('',(5.244225219162,4.396299325791));
#501 = CARTESIAN_POINT('',(5.338133818133,4.408861126163));
#502 = CARTESIAN_POINT('',(5.528515874659,4.435054227484));
#503 = CARTESIAN_POINT('',(5.626896421095,4.448924105273));
#504 = CARTESIAN_POINT('',(5.729113463216,4.463029401657));
#505 = CARTESIAN_POINT('',(5.834545427883,4.476319675885));
#506 = CARTESIAN_POINT('',(5.942813849847,4.487597814313));
#507 = CARTESIAN_POINT('',(6.053706003346,4.495754416372));
#508 = CARTESIAN_POINT('',(6.167141488157,4.5));
#509 = CARTESIAN_POINT('',(6.28318530718,4.5));
#510 = ( GEOMETRIC_REPRESENTATION_CONTEXT(2) 
PARAMETRIC_REPRESENTATION_CONTEXT() REPRESENTATION_CONTEXT('2D SPACE',''
  ) );
#511 = FACE_BOUND('',#512,.T.);
#512 = EDGE_LOOP('',(#513));
#513 = ORIENTED_EDGE('',*,*,#514,.F.);
#514 = EDGE_CURVE('',#515,#515,#517,.T.);
#515 = VERTEX_POINT('',#516);
#516 = CARTESIAN_POINT('',(-7.25,12.557368354874,-273.65));
#517 = SURFACE_CURVE('',#518,(#577,#639),.PCURVE_S1.);
#518 = B_SPLINE_CURVE_WITH_KNOTS('',8,(#519,#520,#521,#522,#523,#524,
    #525,#526,#527,#528,#529,#530,#531,#532,#533,#534,#535,#536,#537,
    #538,#539,#540,#541,#542,#543,#544,#545,#546,#547,#548,#549,#550,
    #551,#552,#553,#554,#555,#556,#557,#558,#559,#560,#561,#562,#563,
    #564,#565,#566,#567,#568,#569,#570,#571,#572,#573,#574,#575,#576),
  .UNSPECIFIED.,.T.,.F.,(9,7,7,7,7,7,7,7,9),(0.,0.137057061107,
    0.278835205189,0.448496512822,0.594790388087,0.689393751877,
    0.793455263386,0.89849649425,1.),.UNSPECIFIED.);
#519 = CARTESIAN_POINT('',(-7.25,12.557368354874,-273.65));
#520 = CARTESIAN_POINT('',(-7.451085943957,12.441271331001,-273.65));
#521 = CARTESIAN_POINT('',(-7.645462457192,12.324141126706,
    -273.6191922675));
#522 = CARTESIAN_POINT('',(-7.829303206915,12.2085790878,-273.5600333889
    ));
#523 = CARTESIAN_POINT('',(-7.999544626975,12.0972691885,-273.4756791287
    ));
#524 = CARTESIAN_POINT('',(-8.153886619023,11.992819208238,
    -273.369965433));
#525 = CARTESIAN_POINT('',(-8.290797632781,11.89749141536,
    -273.2473825982));
#526 = CARTESIAN_POINT('',(-8.409551260667,11.812914052336,
    -273.1130406187));
#527 = CARTESIAN_POINT('',(-8.614562845823,11.664299523163,
    -272.8273700265));
#528 = CARTESIAN_POINT('',(-8.701927142961,11.599354730599,
    -272.6723178293));
#529 = CARTESIAN_POINT('',(-8.773317088096,11.54524923046,-272.510113176
    ));
#530 = CARTESIAN_POINT('',(-8.829541290577,11.502037167916,
    -272.3427725859));
#531 = CARTESIAN_POINT('',(-8.871252476114,11.469683922429,
    -272.1718772983));
#532 = CARTESIAN_POINT('',(-8.898910905257,11.448130513068,
    -271.998718596));
#533 = CARTESIAN_POINT('',(-8.912754115741,11.437342963833,
    -271.8244122351));
#534 = CARTESIAN_POINT('',(-8.912754115741,11.437342963833,
    -271.4412865337));
#535 = CARTESIAN_POINT('',(-8.892929941941,11.452791121635,
    -271.232612896));
#536 = CARTESIAN_POINT('',(-8.853295962188,11.483677306657,
    -271.025631855));
#537 = CARTESIAN_POINT('',(-8.793236759063,11.530169291425,
    -270.8222710441));
#538 = CARTESIAN_POINT('',(-8.711750096965,11.592433187108,
    -270.6250592449));
#539 = CARTESIAN_POINT('',(-8.607572715709,11.670437973798,
    -270.4373095194));
#540 = CARTESIAN_POINT('',(-8.479345558297,11.763749063491,
    -270.263347547));
#541 = CARTESIAN_POINT('',(-8.193728226509,11.964067445118,
    -269.9758613995));
#542 = CARTESIAN_POINT('',(-8.037808453879,12.070910311714,
    -269.8523010249));
#543 = CARTESIAN_POINT('',(-7.859898666803,12.189168257199,
    -269.7488175781));
#544 = CARTESIAN_POINT('',(-7.663590968309,12.314725129927,
    -269.6732614603));
#545 = CARTESIAN_POINT('',(-7.454169076029,12.442670547373,
    -269.6308236949));
#546 = CARTESIAN_POINT('',(-7.238166825899,12.568387581783,
    -269.623986742));
#547 = CARTESIAN_POINT('',(-7.022789037831,12.688020239805,
    -269.6524231768));
#548 = CARTESIAN_POINT('',(-6.680613199063,12.870220827398,
    -269.7518991313));
#549 = CARTESIAN_POINT('',(-6.548421553836,12.938540267938,
    -269.8046219873));
#550 = CARTESIAN_POINT('',(-6.419757897781,13.00307537601,
    -269.8706295356));
#551 = CARTESIAN_POINT('',(-6.295952941303,13.063385407462,
    -269.9493766935));
#552 = CARTESIAN_POINT('',(-6.178310682216,13.119128862233,
    -270.0401498021));
#553 = CARTESIAN_POINT('',(-6.068082348215,13.170050986285,
    -270.1420744473));
#554 = CARTESIAN_POINT('',(-5.966428809161,13.215970106836,
    -270.2541273064));
#555 = CARTESIAN_POINT('',(-5.773110503935,13.301633820656,
    -270.508276406));
#556 = CARTESIAN_POINT('',(-5.683429908384,13.340316068963,
    -270.6522976673));
#557 = CARTESIAN_POINT('',(-5.606711786617,13.37263334091,
    -270.8056789823));
#558 = CARTESIAN_POINT('',(-5.544115128872,13.398510623437,
    -270.9667203833));
#559 = CARTESIAN_POINT('',(-5.496543057691,13.417924419542,
    -271.1336004995));
#560 = CARTESIAN_POINT('',(-5.4646162465,13.430869625891,-271.3044141927
    ));
#561 = CARTESIAN_POINT('',(-5.448652500604,13.437342963833,
    -271.4772060884));
#562 = CARTESIAN_POINT('',(-5.448652500604,13.437342963833,
    -271.8244207333));
#563 = CARTESIAN_POINT('',(-5.46491795306,13.430747533483,-271.998726845
    ));
#564 = CARTESIAN_POINT('',(-5.497413351504,13.417571186518,
    -272.1718815843));
#565 = CARTESIAN_POINT('',(-5.546286568556,13.397625282487,
    -272.3427728876));
#566 = CARTESIAN_POINT('',(-5.611819974063,13.370540318516,
    -272.5101115588));
#567 = CARTESIAN_POINT('',(-5.694371318123,13.335767768775,
    -272.6723165882));
#568 = CARTESIAN_POINT('',(-5.794298271281,13.292580033124,
    -272.8273700139));
#569 = CARTESIAN_POINT('',(-6.0254633319,13.189362011345,-273.11298539)
  );
#570 = CARTESIAN_POINT('',(-6.158083089927,13.128809513698,-273.24734667
    ));
#571 = CARTESIAN_POINT('',(-6.309129124479,13.057890438318,
    -273.3699726217));
#572 = CARTESIAN_POINT('',(-6.476811957642,12.976424996259,
    -273.4757197342));
#573 = CARTESIAN_POINT('',(-6.658382856593,12.884617861388,-273.560081)
  );
#574 = CARTESIAN_POINT('',(-6.850407257306,12.783170954734,
    -273.6192205018));
#575 = CARTESIAN_POINT('',(-7.049006209552,12.673412173895,-273.65));
#576 = CARTESIAN_POINT('',(-7.25,12.557368354874,-273.65));
#577 = PCURVE('',#32,#578);
#578 = DEFINITIONAL_REPRESENTATION('',(#579),#638);
#579 = B_SPLINE_CURVE_WITH_KNOTS('',8,(#580,#581,#582,#583,#584,#585,
    #586,#587,#588,#589,#590,#591,#592,#593,#594,#595,#596,#597,#598,
    #599,#600,#601,#602,#603,#604,#605,#606,#607,#608,#609,#610,#611,
    #612,#613,#614,#615,#616,#617,#618,#619,#620,#621,#622,#623,#624,
    #625,#626,#627,#628,#629,#630,#631,#632,#633,#634,#635,#636,#637),
  .UNSPECIFIED.,.T.,.F.,(9,7,7,7,7,7,7,7,9),(0.,0.137057061107,
    0.278835205189,0.448496512822,0.594790388087,0.689393751877,
    0.793455263386,0.89849649425,1.),.UNSPECIFIED.);
#580 = CARTESIAN_POINT('',(2.094395102393,0.2));
#581 = CARTESIAN_POINT('',(2.110408484996,0.2));
#582 = CARTESIAN_POINT('',(2.126056776122,0.230807732445));
#583 = CARTESIAN_POINT('',(2.141027947595,0.289966611012));
#584 = CARTESIAN_POINT('',(2.155051682635,0.374320871288));
#585 = CARTESIAN_POINT('',(2.167901846762,0.480034566973));
#586 = CARTESIAN_POINT('',(2.179406224782,0.602617401748));
#587 = CARTESIAN_POINT('',(2.189460591587,0.736959381215));
#588 = CARTESIAN_POINT('',(2.206923448835,1.022629973446));
#589 = CARTESIAN_POINT('',(2.214430446027,1.177682170664));
#590 = CARTESIAN_POINT('',(2.220607795016,1.339886823936));
#591 = CARTESIAN_POINT('',(2.225498139527,1.507227414054));
#592 = CARTESIAN_POINT('',(2.229138667522,1.678122701686));
#593 = CARTESIAN_POINT('',(2.231556928967,1.851281403901));
#594 = CARTESIAN_POINT('',(2.232767279778,2.025587764819));
#595 = CARTESIAN_POINT('',(2.232767279778,2.408713466237));
#596 = CARTESIAN_POINT('',(2.231034000609,2.617387103969));
#597 = CARTESIAN_POINT('',(2.227568664824,2.82436814499));
#598 = CARTESIAN_POINT('',(2.222330657832,3.027728955803));
#599 = CARTESIAN_POINT('',(2.215258431951,3.224940755082));
#600 = CARTESIAN_POINT('',(2.20628396119,3.412690480523));
#601 = CARTESIAN_POINT('',(2.195348740072,3.586652452951));
#602 = CARTESIAN_POINT('',(2.1712892899,3.874138600415));
#603 = CARTESIAN_POINT('',(2.158254602093,3.997698975045));
#604 = CARTESIAN_POINT('',(2.143524122798,4.101182421841));
#605 = CARTESIAN_POINT('',(2.127458656972,4.176738539627));
#606 = CARTESIAN_POINT('',(2.110541206142,4.219176305045));
#607 = CARTESIAN_POINT('',(2.093310865109,4.226013257967));
#608 = CARTESIAN_POINT('',(2.076322312391,4.197576823123));
#609 = CARTESIAN_POINT('',(2.04958704363,4.098100868698));
#610 = CARTESIAN_POINT('',(2.03932557647,4.045378012629));
#611 = CARTESIAN_POINT('',(2.029399774429,3.979370464391));
#612 = CARTESIAN_POINT('',(2.019903491816,3.900623306491));
#613 = CARTESIAN_POINT('',(2.010926408251,3.809850197874));
#614 = CARTESIAN_POINT('',(2.002552978427,3.707925552692));
#615 = CARTESIAN_POINT('',(1.994860503366,3.59587269359));
#616 = CARTESIAN_POINT('',(1.980277885563,3.341723593918));
#617 = CARTESIAN_POINT('',(1.973542540026,3.197702332676));
#618 = CARTESIAN_POINT('',(1.967801634565,3.0443210177));
#619 = CARTESIAN_POINT('',(1.963130409566,2.883279616616));
#620 = CARTESIAN_POINT('',(1.959586915745,2.71639950044));
#621 = CARTESIAN_POINT('',(1.957210937979,2.545585807209));
#622 = CARTESIAN_POINT('',(1.956022925008,2.372793911522));
#623 = CARTESIAN_POINT('',(1.956022925008,2.025579266637));
#624 = CARTESIAN_POINT('',(1.957233391626,1.851273154916));
#625 = CARTESIAN_POINT('',(1.9596516815,1.678118415679));
#626 = CARTESIAN_POINT('',(1.963292127801,1.507227112373));
#627 = CARTESIAN_POINT('',(1.968182364927,1.339888441132));
#628 = CARTESIAN_POINT('',(1.97435968516,1.177683411784));
#629 = CARTESIAN_POINT('',(1.98186675518,1.022629986069));
#630 = CARTESIAN_POINT('',(1.999326237102,0.737014609949));
#631 = CARTESIAN_POINT('',(2.009380332401,0.602653329917));
#632 = CARTESIAN_POINT('',(2.020887275491,0.480027378208));
#633 = CARTESIAN_POINT('',(2.03374167243,0.374280265704));
#634 = CARTESIAN_POINT('',(2.047769555972,0.28991899994));
#635 = CARTESIAN_POINT('',(2.062742765207,0.2307794982));
#636 = CARTESIAN_POINT('',(2.07838905839,0.2));
#637 = CARTESIAN_POINT('',(2.094395102393,0.2));
#638 = ( GEOMETRIC_REPRESENTATION_CONTEXT(2) 
PARAMETRIC_REPRESENTATION_CONTEXT() REPRESENTATION_CONTEXT('2D SPACE',''
  ) );
#639 = PCURVE('',#640,#645);
#640 = CYLINDRICAL_SURFACE('',#641,2.);
#641 = AXIS2_PLACEMENT_3D('',#642,#643,#644);
#642 = CARTESIAN_POINT('',(-5.,8.660254037844,-271.65));
#643 = DIRECTION('',(-0.5,0.866025403784,2.22044604925E-16));
#644 = DIRECTION('',(-1.110223024625E-16,1.922962686384E-16,-1.));
#645 = DEFINITIONAL_REPRESENTATION('',(#646),#705);
#646 = B_SPLINE_CURVE_WITH_KNOTS('',8,(#647,#648,#649,#650,#651,#652,
    #653,#654,#655,#656,#657,#658,#659,#660,#661,#662,#663,#664,#665,
    #666,#667,#668,#669,#670,#671,#672,#673,#674,#675,#676,#677,#678,
    #679,#680,#681,#682,#683,#684,#685,#686,#687,#688,#689,#690,#691,
    #692,#693,#694,#695,#696,#697,#698,#699,#700,#701,#702,#703,#704),
  .UNSPECIFIED.,.F.,.F.,(9,7,7,7,7,7,7,7,9),(0.,0.137057061107,
    0.278835205189,0.448496512822,0.594790388087,0.689393751877,
    0.793455263386,0.89849649425,1.),.UNSPECIFIED.);
#647 = CARTESIAN_POINT('',(0.,4.5));
#648 = CARTESIAN_POINT('',(0.116097023874,4.5));
#649 = CARTESIAN_POINT('',(0.229547004584,4.495750524148));
#650 = CARTESIAN_POINT('',(0.340427547223,4.487591237604));
#651 = CARTESIAN_POINT('',(0.448668677298,4.476314747147));
#652 = CARTESIAN_POINT('',(0.554067814797,4.46302940684));
#653 = CARTESIAN_POINT('',(0.656257994963,4.4489286234));
#654 = CARTESIAN_POINT('',(0.754632618815,4.435059292379));
#655 = CARTESIAN_POINT('',(0.945051480632,4.408861127321));
#656 = CARTESIAN_POINT('',(1.038959276862,4.396299435686));
#657 = CARTESIAN_POINT('',(1.130565744834,4.385137670649));
#658 = CARTESIAN_POINT('',(1.220373005189,4.375827027977));
#659 = CARTESIAN_POINT('',(1.308846805133,4.368663888258));
#660 = CARTESIAN_POINT('',(1.396437137792,4.363827302785));
#661 = CARTESIAN_POINT('',(1.483590209204,4.361406616345));
#662 = CARTESIAN_POINT('',(1.675153059913,4.361406616345));
#663 = CARTESIAN_POINT('',(1.779489656363,4.364873026543));
#664 = CARTESIAN_POINT('',(1.884712702136,4.371804257522));
#665 = CARTESIAN_POINT('',(1.991585028742,4.382037895841));
#666 = CARTESIAN_POINT('',(2.100824155946,4.395216680192));
#667 = CARTESIAN_POINT('',(2.213149600657,4.410682116454));
#668 = CARTESIAN_POINT('',(2.329350159146,4.427378311877));
#669 = CARTESIAN_POINT('',(2.554856377995,4.458050453317));
#670 = CARTESIAN_POINT('',(2.666839104132,4.472619203687));
#671 = CARTESIAN_POINT('',(2.783691786592,4.486078695138));
#672 = CARTESIAN_POINT('',(2.903720046215,4.496660287294));
#673 = CARTESIAN_POINT('',(3.025712691281,4.50275332296));
#674 = CARTESIAN_POINT('',(3.148626502226,4.503626343383));
#675 = CARTESIAN_POINT('',(3.27146257206,4.499542370318));
#676 = CARTESIAN_POINT('',(3.471462571172,4.486244788374));
#677 = CARTESIAN_POINT('',(3.550003958318,4.479315336841));
#678 = CARTESIAN_POINT('',(3.628539711593,4.470872551839));
#679 = CARTESIAN_POINT('',(3.707074846092,4.46120009294));
#680 = CARTESIAN_POINT('',(3.785614613063,4.450654211324));
#681 = CARTESIAN_POINT('',(3.864159348847,4.439639897366));
#682 = CARTESIAN_POINT('',(3.942703467428,4.428580252756));
#683 = CARTESIAN_POINT('',(4.107625421758,4.406108052494));
#684 = CARTESIAN_POINT('',(4.19402759464,4.394767564428));
#685 = CARTESIAN_POINT('',(4.280426778344,4.384396082031));
#686 = CARTESIAN_POINT('',(4.366818452438,4.375508137208));
#687 = CARTESIAN_POINT('',(4.453206216512,4.368534942229));
#688 = CARTESIAN_POINT('',(4.539596263765,4.363782414188));
#689 = CARTESIAN_POINT('',(4.625992024624,4.361406616345));
#690 = CARTESIAN_POINT('',(4.799599347066,4.361406616345));
#691 = CARTESIAN_POINT('',(4.88675228312,4.363827532341));
#692 = CARTESIAN_POINT('',(4.974340800016,4.368664180363));
#693 = CARTESIAN_POINT('',(5.06281263595,4.375827129297));
#694 = CARTESIAN_POINT('',(5.152618727304,4.38513756519));
#695 = CARTESIAN_POINT('',(5.244225219162,4.396299325791));
#696 = CARTESIAN_POINT('',(5.338133818133,4.408861126163));
#697 = CARTESIAN_POINT('',(5.52851587466,4.435054227484));
#698 = CARTESIAN_POINT('',(5.626896421096,4.448924105273));
#699 = CARTESIAN_POINT('',(5.729113463214,4.463029401657));
#700 = CARTESIAN_POINT('',(5.834545427881,4.476319675884));
#701 = CARTESIAN_POINT('',(5.942813849847,4.487597814313));
#702 = CARTESIAN_POINT('',(6.053706003346,4.495754416372));
#703 = CARTESIAN_POINT('',(6.167141488159,4.5));
#704 = CARTESIAN_POINT('',(6.28318530718,4.5));
#705 = ( GEOMETRIC_REPRESENTATION_CONTEXT(2) 
PARAMETRIC_REPRESENTATION_CONTEXT() REPRESENTATION_CONTEXT('2D SPACE',''
  ) );
#706 = ADVANCED_FACE('',(#707,#710),#305,.T.);
#707 = FACE_BOUND('',#708,.T.);
#708 = EDGE_LOOP('',(#709));
#709 = ORIENTED_EDGE('',*,*,#290,.T.);
#710 = FACE_BOUND('',#711,.T.);
#711 = EDGE_LOOP('',(#712));
#712 = ORIENTED_EDGE('',*,*,#713,.F.);
#713 = EDGE_CURVE('',#714,#714,#716,.T.);
#714 = VERTEX_POINT('',#715);
#715 = CARTESIAN_POINT('',(11.8,-2.890166445988E-15,-269.3));
#716 = SURFACE_CURVE('',#717,(#722,#729),.PCURVE_S1.);
#717 = CIRCLE('',#718,11.8);
#718 = AXIS2_PLACEMENT_3D('',#719,#720,#721);
#719 = CARTESIAN_POINT('',(0.,0.,-269.3));
#720 = DIRECTION('',(0.,0.,1.));
#721 = DIRECTION('',(1.,0.,-0.));
#722 = PCURVE('',#305,#723);
#723 = DEFINITIONAL_REPRESENTATION('',(#724),#728);
#724 = CIRCLE('',#725,11.8);
#725 = AXIS2_PLACEMENT_2D('',#726,#727);
#726 = CARTESIAN_POINT('',(0.,0.));
#727 = DIRECTION('',(1.,0.));
#728 = ( GEOMETRIC_REPRESENTATION_CONTEXT(2) 
PARAMETRIC_REPRESENTATION_CONTEXT() REPRESENTATION_CONTEXT('2D SPACE',''
  ) );
#729 = PCURVE('',#730,#735);
#730 = CYLINDRICAL_SURFACE('',#731,11.8);
#731 = AXIS2_PLACEMENT_3D('',#732,#733,#734);
#732 = CARTESIAN_POINT('',(0.,0.,-269.3));
#733 = DIRECTION('',(0.,0.,1.));
#734 = DIRECTION('',(1.,0.,-0.));
#735 = DEFINITIONAL_REPRESENTATION('',(#736),#740);
#736 = LINE('',#737,#738);
#737 = CARTESIAN_POINT('',(0.,0.));
#738 = VECTOR('',#739,1.);
#739 = DIRECTION('',(1.,0.));
#740 = ( GEOMETRIC_REPRESENTATION_CONTEXT(2) 
PARAMETRIC_REPRESENTATION_CONTEXT() REPRESENTATION_CONTEXT('2D SPACE',''
  ) );
#741 = ADVANCED_FACE('',(#742),#113,.T.);
#742 = FACE_BOUND('',#743,.T.);
#743 = EDGE_LOOP('',(#744,#767,#794,#795,#796));
#744 = ORIENTED_EDGE('',*,*,#745,.T.);
#745 = EDGE_CURVE('',#52,#746,#748,.T.);
#746 = VERTEX_POINT('',#747);
#747 = CARTESIAN_POINT('',(46.7,-4.898587196589E-16,-273.65));
#748 = SEAM_CURVE('',#749,(#753,#760),.PCURVE_S1.);
#749 = LINE('',#750,#751);
#750 = CARTESIAN_POINT('',(10.,-4.898587196589E-16,-273.65));
#751 = VECTOR('',#752,1.);
#752 = DIRECTION('',(1.,0.,2.22044604925E-16));
#753 = PCURVE('',#113,#754);
#754 = DEFINITIONAL_REPRESENTATION('',(#755),#759);
#755 = LINE('',#756,#757);
#756 = CARTESIAN_POINT('',(6.28318530718,-0.));
#757 = VECTOR('',#758,1.);
#758 = DIRECTION('',(0.,1.));
#759 = ( GEOMETRIC_REPRESENTATION_CONTEXT(2) 
PARAMETRIC_REPRESENTATION_CONTEXT() REPRESENTATION_CONTEXT('2D SPACE',''
  ) );
#760 = PCURVE('',#113,#761);
#761 = DEFINITIONAL_REPRESENTATION('',(#762),#766);
#762 = LINE('',#763,#764);
#763 = CARTESIAN_POINT('',(0.,-0.));
#764 = VECTOR('',#765,1.);
#765 = DIRECTION('',(0.,1.));
#766 = ( GEOMETRIC_REPRESENTATION_CONTEXT(2) 
PARAMETRIC_REPRESENTATION_CONTEXT() REPRESENTATION_CONTEXT('2D SPACE',''
  ) );
#767 = ORIENTED_EDGE('',*,*,#768,.F.);
#768 = EDGE_CURVE('',#746,#746,#769,.T.);
#769 = SURFACE_CURVE('',#770,(#775,#782),.PCURVE_S1.);
#770 = CIRCLE('',#771,2.);
#771 = AXIS2_PLACEMENT_3D('',#772,#773,#774);
#772 = CARTESIAN_POINT('',(46.7,0.,-271.65));
#773 = DIRECTION('',(1.,-0.,2.22044604925E-16));
#774 = DIRECTION('',(2.22044604925E-16,0.,-1.));
#775 = PCURVE('',#113,#776);
#776 = DEFINITIONAL_REPRESENTATION('',(#777),#781);
#777 = LINE('',#778,#779);
#778 = CARTESIAN_POINT('',(0.,36.7));
#779 = VECTOR('',#780,1.);
#780 = DIRECTION('',(1.,0.));
#781 = ( GEOMETRIC_REPRESENTATION_CONTEXT(2) 
PARAMETRIC_REPRESENTATION_CONTEXT() REPRESENTATION_CONTEXT('2D SPACE',''
  ) );
#782 = PCURVE('',#783,#788);
#783 = PLANE('',#784);
#784 = AXIS2_PLACEMENT_3D('',#785,#786,#787);
#785 = CARTESIAN_POINT('',(46.7,0.,-271.65));
#786 = DIRECTION('',(1.,0.,2.22044604925E-16));
#787 = DIRECTION('',(2.22044604925E-16,0.,-1.));
#788 = DEFINITIONAL_REPRESENTATION('',(#789),#793);
#789 = CIRCLE('',#790,2.);
#790 = AXIS2_PLACEMENT_2D('',#791,#792);
#791 = CARTESIAN_POINT('',(0.,0.));
#792 = DIRECTION('',(1.,0.));
#793 = ( GEOMETRIC_REPRESENTATION_CONTEXT(2) 
PARAMETRIC_REPRESENTATION_CONTEXT() REPRESENTATION_CONTEXT('2D SPACE',''
  ) );
#794 = ORIENTED_EDGE('',*,*,#745,.F.);
#795 = ORIENTED_EDGE('',*,*,#51,.T.);
#796 = ORIENTED_EDGE('',*,*,#199,.T.);
#797 = ADVANCED_FACE('',(#798,#801),#186,.F.);
#798 = FACE_BOUND('',#799,.F.);
#799 = EDGE_LOOP('',(#800));
#800 = ORIENTED_EDGE('',*,*,#171,.T.);
#801 = FACE_BOUND('',#802,.F.);
#802 = EDGE_LOOP('',(#803,#831,#857,#883,#909,#935));
#803 = ORIENTED_EDGE('',*,*,#804,.T.);
#804 = EDGE_CURVE('',#805,#807,#809,.T.);
#805 = VERTEX_POINT('',#806);
#806 = CARTESIAN_POINT('',(-4.44559707276,7.7,-273.85));
#807 = VERTEX_POINT('',#808);
#808 = CARTESIAN_POINT('',(4.44559707276,7.7,-273.85));
#809 = SURFACE_CURVE('',#810,(#814,#820),.PCURVE_S1.);
#810 = LINE('',#811,#812);
#811 = CARTESIAN_POINT('',(2.22279853638,7.7,-273.85));
#812 = VECTOR('',#813,1.);
#813 = DIRECTION('',(1.,-9.989416552642E-17,0.));
#814 = PCURVE('',#186,#815);
#815 = DEFINITIONAL_REPRESENTATION('',(#816),#819);
#816 = B_SPLINE_CURVE_WITH_KNOTS('',1,(#817,#818),.UNSPECIFIED.,.F.,.F.,
  (2,2),(-6.66839560914,2.22279853638),.PIECEWISE_BEZIER_KNOTS.);
#817 = CARTESIAN_POINT('',(-4.44559707276,7.7));
#818 = CARTESIAN_POINT('',(4.44559707276,7.7));
#819 = ( GEOMETRIC_REPRESENTATION_CONTEXT(2) 
PARAMETRIC_REPRESENTATION_CONTEXT() REPRESENTATION_CONTEXT('2D SPACE',''
  ) );
#820 = PCURVE('',#821,#826);
#821 = PLANE('',#822);
#822 = AXIS2_PLACEMENT_3D('',#823,#824,#825);
#823 = CARTESIAN_POINT('',(4.44559707276,7.7,-273.9));
#824 = DIRECTION('',(-9.989416552642E-17,-1.,0.));
#825 = DIRECTION('',(-1.,9.989416552642E-17,0.));
#826 = DEFINITIONAL_REPRESENTATION('',(#827),#830);
#827 = B_SPLINE_CURVE_WITH_KNOTS('',1,(#828,#829),.UNSPECIFIED.,.F.,.F.,
  (2,2),(-6.66839560914,2.22279853638),.PIECEWISE_BEZIER_KNOTS.);
#828 = CARTESIAN_POINT('',(8.89119414552,-5.000000000001E-02));
#829 = CARTESIAN_POINT('',(0.,-5.000000000001E-02));
#830 = ( GEOMETRIC_REPRESENTATION_CONTEXT(2) 
PARAMETRIC_REPRESENTATION_CONTEXT() REPRESENTATION_CONTEXT('2D SPACE',''
  ) );
#831 = ORIENTED_EDGE('',*,*,#832,.T.);
#832 = EDGE_CURVE('',#807,#833,#835,.T.);
#833 = VERTEX_POINT('',#834);
#834 = CARTESIAN_POINT('',(8.89119414552,0.,-273.85));
#835 = SURFACE_CURVE('',#836,(#840,#846),.PCURVE_S1.);
#836 = LINE('',#837,#838);
#837 = CARTESIAN_POINT('',(7.77979487733,1.925,-273.85));
#838 = VECTOR('',#839,1.);
#839 = DIRECTION('',(0.5,-0.866025403784,0.));
#840 = PCURVE('',#186,#841);
#841 = DEFINITIONAL_REPRESENTATION('',(#842),#845);
#842 = B_SPLINE_CURVE_WITH_KNOTS('',1,(#843,#844),.UNSPECIFIED.,.F.,.F.,
  (2,2),(-6.66839560914,2.22279853638),.PIECEWISE_BEZIER_KNOTS.);
#843 = CARTESIAN_POINT('',(4.44559707276,7.7));
#844 = CARTESIAN_POINT('',(8.89119414552,2.235033928338E-16));
#845 = ( GEOMETRIC_REPRESENTATION_CONTEXT(2) 
PARAMETRIC_REPRESENTATION_CONTEXT() REPRESENTATION_CONTEXT('2D SPACE',''
  ) );
#846 = PCURVE('',#847,#852);
#847 = PLANE('',#848);
#848 = AXIS2_PLACEMENT_3D('',#849,#850,#851);
#849 = CARTESIAN_POINT('',(8.89119414552,0.,-273.9));
#850 = DIRECTION('',(-0.866025403784,-0.5,0.));
#851 = DIRECTION('',(-0.5,0.866025403784,0.));
#852 = DEFINITIONAL_REPRESENTATION('',(#853),#856);
#853 = B_SPLINE_CURVE_WITH_KNOTS('',1,(#854,#855),.UNSPECIFIED.,.F.,.F.,
  (2,2),(-6.66839560914,2.22279853638),.PIECEWISE_BEZIER_KNOTS.);
#854 = CARTESIAN_POINT('',(8.89119414552,-5.000000000001E-02));
#855 = CARTESIAN_POINT('',(0.,-5.000000000001E-02));
#856 = ( GEOMETRIC_REPRESENTATION_CONTEXT(2) 
PARAMETRIC_REPRESENTATION_CONTEXT() REPRESENTATION_CONTEXT('2D SPACE',''
  ) );
#857 = ORIENTED_EDGE('',*,*,#858,.T.);
#858 = EDGE_CURVE('',#833,#859,#861,.T.);
#859 = VERTEX_POINT('',#860);
#860 = CARTESIAN_POINT('',(4.44559707276,-7.7,-273.85));
#861 = SURFACE_CURVE('',#862,(#866,#872),.PCURVE_S1.);
#862 = LINE('',#863,#864);
#863 = CARTESIAN_POINT('',(5.55699634095,-5.775,-273.85));
#864 = VECTOR('',#865,1.);
#865 = DIRECTION('',(-0.5,-0.866025403784,0.));
#866 = PCURVE('',#186,#867);
#867 = DEFINITIONAL_REPRESENTATION('',(#868),#871);
#868 = B_SPLINE_CURVE_WITH_KNOTS('',1,(#869,#870),.UNSPECIFIED.,.F.,.F.,
  (2,2),(-6.66839560914,2.22279853638),.PIECEWISE_BEZIER_KNOTS.);
#869 = CARTESIAN_POINT('',(8.89119414552,9.273566431788E-16));
#870 = CARTESIAN_POINT('',(4.44559707276,-7.7));
#871 = ( GEOMETRIC_REPRESENTATION_CONTEXT(2) 
PARAMETRIC_REPRESENTATION_CONTEXT() REPRESENTATION_CONTEXT('2D SPACE',''
  ) );
#872 = PCURVE('',#873,#878);
#873 = PLANE('',#874);
#874 = AXIS2_PLACEMENT_3D('',#875,#876,#877);
#875 = CARTESIAN_POINT('',(4.44559707276,-7.7,-273.9));
#876 = DIRECTION('',(-0.866025403784,0.5,0.));
#877 = DIRECTION('',(0.5,0.866025403784,0.));
#878 = DEFINITIONAL_REPRESENTATION('',(#879),#882);
#879 = B_SPLINE_CURVE_WITH_KNOTS('',1,(#880,#881),.UNSPECIFIED.,.F.,.F.,
  (2,2),(-6.66839560914,2.22279853638),.PIECEWISE_BEZIER_KNOTS.);
#880 = CARTESIAN_POINT('',(8.89119414552,-5.000000000001E-02));
#881 = CARTESIAN_POINT('',(0.,-5.000000000001E-02));
#882 = ( GEOMETRIC_REPRESENTATION_CONTEXT(2) 
PARAMETRIC_REPRESENTATION_CONTEXT() REPRESENTATION_CONTEXT('2D SPACE',''
  ) );
#883 = ORIENTED_EDGE('',*,*,#884,.T.);
#884 = EDGE_CURVE('',#859,#885,#887,.T.);
#885 = VERTEX_POINT('',#886);
#886 = CARTESIAN_POINT('',(-4.44559707276,-7.7,-273.85));
#887 = SURFACE_CURVE('',#888,(#892,#898),.PCURVE_S1.);
#888 = LINE('',#889,#890);
#889 = CARTESIAN_POINT('',(-2.22279853638,-7.7,-273.85));
#890 = VECTOR('',#891,1.);
#891 = DIRECTION('',(-1.,2.996824965793E-16,0.));
#892 = PCURVE('',#186,#893);
#893 = DEFINITIONAL_REPRESENTATION('',(#894),#897);
#894 = B_SPLINE_CURVE_WITH_KNOTS('',1,(#895,#896),.UNSPECIFIED.,.F.,.F.,
  (2,2),(-6.66839560914,2.22279853638),.PIECEWISE_BEZIER_KNOTS.);
#895 = CARTESIAN_POINT('',(4.44559707276,-7.7));
#896 = CARTESIAN_POINT('',(-4.44559707276,-7.7));
#897 = ( GEOMETRIC_REPRESENTATION_CONTEXT(2) 
PARAMETRIC_REPRESENTATION_CONTEXT() REPRESENTATION_CONTEXT('2D SPACE',''
  ) );
#898 = PCURVE('',#899,#904);
#899 = PLANE('',#900);
#900 = AXIS2_PLACEMENT_3D('',#901,#902,#903);
#901 = CARTESIAN_POINT('',(-4.44559707276,-7.7,-273.9));
#902 = DIRECTION('',(2.996824965793E-16,1.,-0.));
#903 = DIRECTION('',(1.,-2.996824965793E-16,0.));
#904 = DEFINITIONAL_REPRESENTATION('',(#905),#908);
#905 = B_SPLINE_CURVE_WITH_KNOTS('',1,(#906,#907),.UNSPECIFIED.,.F.,.F.,
  (2,2),(-6.66839560914,2.22279853638),.PIECEWISE_BEZIER_KNOTS.);
#906 = CARTESIAN_POINT('',(8.89119414552,-5.000000000001E-02));
#907 = CARTESIAN_POINT('',(0.,-5.000000000001E-02));
#908 = ( GEOMETRIC_REPRESENTATION_CONTEXT(2) 
PARAMETRIC_REPRESENTATION_CONTEXT() REPRESENTATION_CONTEXT('2D SPACE',''
  ) );
#909 = ORIENTED_EDGE('',*,*,#910,.T.);
#910 = EDGE_CURVE('',#885,#911,#913,.T.);
#911 = VERTEX_POINT('',#912);
#912 = CARTESIAN_POINT('',(-8.89119414552,1.088857245091E-15,-273.85));
#913 = SURFACE_CURVE('',#914,(#918,#924),.PCURVE_S1.);
#914 = LINE('',#915,#916);
#915 = CARTESIAN_POINT('',(-7.77979487733,-1.925,-273.85));
#916 = VECTOR('',#917,1.);
#917 = DIRECTION('',(-0.5,0.866025403784,0.));
#918 = PCURVE('',#186,#919);
#919 = DEFINITIONAL_REPRESENTATION('',(#920),#923);
#920 = B_SPLINE_CURVE_WITH_KNOTS('',1,(#921,#922),.UNSPECIFIED.,.F.,.F.,
  (2,2),(-6.66839560914,2.22279853638),.PIECEWISE_BEZIER_KNOTS.);
#921 = CARTESIAN_POINT('',(-4.44559707276,-7.7));
#922 = CARTESIAN_POINT('',(-8.89119414552,1.133499843211E-15));
#923 = ( GEOMETRIC_REPRESENTATION_CONTEXT(2) 
PARAMETRIC_REPRESENTATION_CONTEXT() REPRESENTATION_CONTEXT('2D SPACE',''
  ) );
#924 = PCURVE('',#925,#930);
#925 = PLANE('',#926);
#926 = AXIS2_PLACEMENT_3D('',#927,#928,#929);
#927 = CARTESIAN_POINT('',(-8.89119414552,1.088857245091E-15,-273.9));
#928 = DIRECTION('',(0.866025403784,0.5,-0.));
#929 = DIRECTION('',(0.5,-0.866025403784,0.));
#930 = DEFINITIONAL_REPRESENTATION('',(#931),#934);
#931 = B_SPLINE_CURVE_WITH_KNOTS('',1,(#932,#933),.UNSPECIFIED.,.F.,.F.,
  (2,2),(-6.66839560914,2.22279853638),.PIECEWISE_BEZIER_KNOTS.);
#932 = CARTESIAN_POINT('',(8.89119414552,-5.000000000001E-02));
#933 = CARTESIAN_POINT('',(0.,-5.000000000001E-02));
#934 = ( GEOMETRIC_REPRESENTATION_CONTEXT(2) 
PARAMETRIC_REPRESENTATION_CONTEXT() REPRESENTATION_CONTEXT('2D SPACE',''
  ) );
#935 = ORIENTED_EDGE('',*,*,#936,.T.);
#936 = EDGE_CURVE('',#911,#805,#937,.T.);
#937 = SURFACE_CURVE('',#938,(#942,#948),.PCURVE_S1.);
#938 = LINE('',#939,#940);
#939 = CARTESIAN_POINT('',(-5.55699634095,5.775,-273.85));
#940 = VECTOR('',#941,1.);
#941 = DIRECTION('',(0.5,0.866025403784,-0.));
#942 = PCURVE('',#186,#943);
#943 = DEFINITIONAL_REPRESENTATION('',(#944),#947);
#944 = B_SPLINE_CURVE_WITH_KNOTS('',1,(#945,#946),.UNSPECIFIED.,.F.,.F.,
  (2,2),(-6.66839560914,2.22279853638),.PIECEWISE_BEZIER_KNOTS.);
#945 = CARTESIAN_POINT('',(-8.89119414552,5.097068137229E-17));
#946 = CARTESIAN_POINT('',(-4.44559707276,7.7));
#947 = ( GEOMETRIC_REPRESENTATION_CONTEXT(2) 
PARAMETRIC_REPRESENTATION_CONTEXT() REPRESENTATION_CONTEXT('2D SPACE',''
  ) );
#948 = PCURVE('',#949,#954);
#949 = PLANE('',#950);
#950 = AXIS2_PLACEMENT_3D('',#951,#952,#953);
#951 = CARTESIAN_POINT('',(-4.44559707276,7.7,-273.9));
#952 = DIRECTION('',(0.866025403784,-0.5,0.));
#953 = DIRECTION('',(-0.5,-0.866025403784,0.));
#954 = DEFINITIONAL_REPRESENTATION('',(#955),#958);
#955 = B_SPLINE_CURVE_WITH_KNOTS('',1,(#956,#957),.UNSPECIFIED.,.F.,.F.,
  (2,2),(-6.66839560914,2.22279853638),.PIECEWISE_BEZIER_KNOTS.);
#956 = CARTESIAN_POINT('',(8.89119414552,-5.000000000001E-02));
#957 = CARTESIAN_POINT('',(0.,-5.000000000001E-02));
#958 = ( GEOMETRIC_REPRESENTATION_CONTEXT(2) 
PARAMETRIC_REPRESENTATION_CONTEXT() REPRESENTATION_CONTEXT('2D SPACE',''
  ) );
#959 = ADVANCED_FACE('',(#960),#445,.T.);
#960 = FACE_BOUND('',#961,.T.);
#961 = EDGE_LOOP('',(#962,#985,#1012,#1013));
#962 = ORIENTED_EDGE('',*,*,#963,.T.);
#963 = EDGE_CURVE('',#320,#964,#966,.T.);
#964 = VERTEX_POINT('',#965);
#965 = CARTESIAN_POINT('',(-23.35,-40.44338635673,-273.65));
#966 = SEAM_CURVE('',#967,(#971,#978),.PCURVE_S1.);
#967 = LINE('',#968,#969);
#968 = CARTESIAN_POINT('',(-5.,-8.660254037844,-273.65));
#969 = VECTOR('',#970,1.);
#970 = DIRECTION('',(-0.5,-0.866025403784,2.22044604925E-16));
#971 = PCURVE('',#445,#972);
#972 = DEFINITIONAL_REPRESENTATION('',(#973),#977);
#973 = LINE('',#974,#975);
#974 = CARTESIAN_POINT('',(6.28318530718,-0.));
#975 = VECTOR('',#976,1.);
#976 = DIRECTION('',(0.,1.));
#977 = ( GEOMETRIC_REPRESENTATION_CONTEXT(2) 
PARAMETRIC_REPRESENTATION_CONTEXT() REPRESENTATION_CONTEXT('2D SPACE',''
  ) );
#978 = PCURVE('',#445,#979);
#979 = DEFINITIONAL_REPRESENTATION('',(#980),#984);
#980 = LINE('',#981,#982);
#981 = CARTESIAN_POINT('',(0.,-0.));
#982 = VECTOR('',#983,1.);
#983 = DIRECTION('',(0.,1.));
#984 = ( GEOMETRIC_REPRESENTATION_CONTEXT(2) 
PARAMETRIC_REPRESENTATION_CONTEXT() REPRESENTATION_CONTEXT('2D SPACE',''
  ) );
#985 = ORIENTED_EDGE('',*,*,#986,.F.);
#986 = EDGE_CURVE('',#964,#964,#987,.T.);
#987 = SURFACE_CURVE('',#988,(#993,#1000),.PCURVE_S1.);
#988 = CIRCLE('',#989,2.);
#989 = AXIS2_PLACEMENT_3D('',#990,#991,#992);
#990 = CARTESIAN_POINT('',(-23.35,-40.44338635673,-271.65));
#991 = DIRECTION('',(-0.5,-0.866025403784,2.22044604925E-16));
#992 = DIRECTION('',(-1.110223024625E-16,-1.922962686384E-16,-1.));
#993 = PCURVE('',#445,#994);
#994 = DEFINITIONAL_REPRESENTATION('',(#995),#999);
#995 = LINE('',#996,#997);
#996 = CARTESIAN_POINT('',(0.,36.7));
#997 = VECTOR('',#998,1.);
#998 = DIRECTION('',(1.,0.));
#999 = ( GEOMETRIC_REPRESENTATION_CONTEXT(2) 
PARAMETRIC_REPRESENTATION_CONTEXT() REPRESENTATION_CONTEXT('2D SPACE',''
  ) );
#1000 = PCURVE('',#1001,#1006);
#1001 = PLANE('',#1002);
#1002 = AXIS2_PLACEMENT_3D('',#1003,#1004,#1005);
#1003 = CARTESIAN_POINT('',(-23.35,-40.44338635673,-271.65));
#1004 = DIRECTION('',(-0.5,-0.866025403784,2.22044604925E-16));
#1005 = DIRECTION('',(-1.110223024625E-16,-1.922962686384E-16,-1.));
#1006 = DEFINITIONAL_REPRESENTATION('',(#1007),#1011);
#1007 = CIRCLE('',#1008,2.);
#1008 = AXIS2_PLACEMENT_2D('',#1009,#1010);
#1009 = CARTESIAN_POINT('',(0.,0.));
#1010 = DIRECTION('',(1.,0.));
#1011 = ( GEOMETRIC_REPRESENTATION_CONTEXT(2) 
PARAMETRIC_REPRESENTATION_CONTEXT() REPRESENTATION_CONTEXT('2D SPACE',''
  ) );
#1012 = ORIENTED_EDGE('',*,*,#963,.F.);
#1013 = ORIENTED_EDGE('',*,*,#319,.T.);
#1014 = ADVANCED_FACE('',(#1015),#640,.T.);
#1015 = FACE_BOUND('',#1016,.T.);
#1016 = EDGE_LOOP('',(#1017,#1040,#1067,#1068));
#1017 = ORIENTED_EDGE('',*,*,#1018,.T.);
#1018 = EDGE_CURVE('',#515,#1019,#1021,.T.);
#1019 = VERTEX_POINT('',#1020);
#1020 = CARTESIAN_POINT('',(-23.35,40.443386356733,-273.65));
#1021 = SEAM_CURVE('',#1022,(#1026,#1033),.PCURVE_S1.);
#1022 = LINE('',#1023,#1024);
#1023 = CARTESIAN_POINT('',(-5.,8.660254037844,-273.65));
#1024 = VECTOR('',#1025,1.);
#1025 = DIRECTION('',(-0.5,0.866025403784,2.22044604925E-16));
#1026 = PCURVE('',#640,#1027);
#1027 = DEFINITIONAL_REPRESENTATION('',(#1028),#1032);
#1028 = LINE('',#1029,#1030);
#1029 = CARTESIAN_POINT('',(6.28318530718,-0.));
#1030 = VECTOR('',#1031,1.);
#1031 = DIRECTION('',(0.,1.));
#1032 = ( GEOMETRIC_REPRESENTATION_CONTEXT(2) 
PARAMETRIC_REPRESENTATION_CONTEXT() REPRESENTATION_CONTEXT('2D SPACE',''
  ) );
#1033 = PCURVE('',#640,#1034);
#1034 = DEFINITIONAL_REPRESENTATION('',(#1035),#1039);
#1035 = LINE('',#1036,#1037);
#1036 = CARTESIAN_POINT('',(0.,-0.));
#1037 = VECTOR('',#1038,1.);
#1038 = DIRECTION('',(0.,1.));
#1039 = ( GEOMETRIC_REPRESENTATION_CONTEXT(2) 
PARAMETRIC_REPRESENTATION_CONTEXT() REPRESENTATION_CONTEXT('2D SPACE',''
  ) );
#1040 = ORIENTED_EDGE('',*,*,#1041,.F.);
#1041 = EDGE_CURVE('',#1019,#1019,#1042,.T.);
#1042 = SURFACE_CURVE('',#1043,(#1048,#1055),.PCURVE_S1.);
#1043 = CIRCLE('',#1044,2.);
#1044 = AXIS2_PLACEMENT_3D('',#1045,#1046,#1047);
#1045 = CARTESIAN_POINT('',(-23.35,40.443386356733,-271.65));
#1046 = DIRECTION('',(-0.5,0.866025403784,2.22044604925E-16));
#1047 = DIRECTION('',(-1.110223024625E-16,1.922962686384E-16,-1.));
#1048 = PCURVE('',#640,#1049);
#1049 = DEFINITIONAL_REPRESENTATION('',(#1050),#1054);
#1050 = LINE('',#1051,#1052);
#1051 = CARTESIAN_POINT('',(0.,36.7));
#1052 = VECTOR('',#1053,1.);
#1053 = DIRECTION('',(1.,0.));
#1054 = ( GEOMETRIC_REPRESENTATION_CONTEXT(2) 
PARAMETRIC_REPRESENTATION_CONTEXT() REPRESENTATION_CONTEXT('2D SPACE',''
  ) );
#1055 = PCURVE('',#1056,#1061);
#1056 = PLANE('',#1057);
#1057 = AXIS2_PLACEMENT_3D('',#1058,#1059,#1060);
#1058 = CARTESIAN_POINT('',(-23.35,40.443386356733,-271.65));
#1059 = DIRECTION('',(-0.5,0.866025403784,2.22044604925E-16));
#1060 = DIRECTION('',(-1.110223024625E-16,1.922962686384E-16,-1.));
#1061 = DEFINITIONAL_REPRESENTATION('',(#1062),#1066);
#1062 = CIRCLE('',#1063,2.);
#1063 = AXIS2_PLACEMENT_2D('',#1064,#1065);
#1064 = CARTESIAN_POINT('',(0.,0.));
#1065 = DIRECTION('',(1.,0.));
#1066 = ( GEOMETRIC_REPRESENTATION_CONTEXT(2) 
PARAMETRIC_REPRESENTATION_CONTEXT() REPRESENTATION_CONTEXT('2D SPACE',''
  ) );
#1067 = ORIENTED_EDGE('',*,*,#1018,.F.);
#1068 = ORIENTED_EDGE('',*,*,#514,.T.);
#1069 = ADVANCED_FACE('',(#1070),#730,.T.);
#1070 = FACE_BOUND('',#1071,.T.);
#1071 = EDGE_LOOP('',(#1072,#1101,#1122,#1123));
#1072 = ORIENTED_EDGE('',*,*,#1073,.F.);
#1073 = EDGE_CURVE('',#1074,#1074,#1076,.T.);
#1074 = VERTEX_POINT('',#1075);
#1075 = CARTESIAN_POINT('',(11.8,-2.890166445988E-15,-266.3));
#1076 = SURFACE_CURVE('',#1077,(#1082,#1089),.PCURVE_S1.);
#1077 = CIRCLE('',#1078,11.8);
#1078 = AXIS2_PLACEMENT_3D('',#1079,#1080,#1081);
#1079 = CARTESIAN_POINT('',(0.,0.,-266.3));
#1080 = DIRECTION('',(0.,0.,1.));
#1081 = DIRECTION('',(1.,0.,-0.));
#1082 = PCURVE('',#730,#1083);
#1083 = DEFINITIONAL_REPRESENTATION('',(#1084),#1088);
#1084 = LINE('',#1085,#1086);
#1085 = CARTESIAN_POINT('',(0.,3.));
#1086 = VECTOR('',#1087,1.);
#1087 = DIRECTION('',(1.,0.));
#1088 = ( GEOMETRIC_REPRESENTATION_CONTEXT(2) 
PARAMETRIC_REPRESENTATION_CONTEXT() REPRESENTATION_CONTEXT('2D SPACE',''
  ) );
#1089 = PCURVE('',#1090,#1095);
#1090 = PLANE('',#1091);
#1091 = AXIS2_PLACEMENT_3D('',#1092,#1093,#1094);
#1092 = CARTESIAN_POINT('',(0.,0.,-266.3));
#1093 = DIRECTION('',(0.,0.,1.));
#1094 = DIRECTION('',(1.,0.,-0.));
#1095 = DEFINITIONAL_REPRESENTATION('',(#1096),#1100);
#1096 = CIRCLE('',#1097,11.8);
#1097 = AXIS2_PLACEMENT_2D('',#1098,#1099);
#1098 = CARTESIAN_POINT('',(0.,0.));
#1099 = DIRECTION('',(1.,0.));
#1100 = ( GEOMETRIC_REPRESENTATION_CONTEXT(2) 
PARAMETRIC_REPRESENTATION_CONTEXT() REPRESENTATION_CONTEXT('2D SPACE',''
  ) );
#1101 = ORIENTED_EDGE('',*,*,#1102,.F.);
#1102 = EDGE_CURVE('',#714,#1074,#1103,.T.);
#1103 = SEAM_CURVE('',#1104,(#1108,#1115),.PCURVE_S1.);
#1104 = LINE('',#1105,#1106);
#1105 = CARTESIAN_POINT('',(11.8,-2.890166445988E-15,-269.3));
#1106 = VECTOR('',#1107,1.);
#1107 = DIRECTION('',(0.,0.,1.));
#1108 = PCURVE('',#730,#1109);
#1109 = DEFINITIONAL_REPRESENTATION('',(#1110),#1114);
#1110 = LINE('',#1111,#1112);
#1111 = CARTESIAN_POINT('',(6.28318530718,-0.));
#1112 = VECTOR('',#1113,1.);
#1113 = DIRECTION('',(0.,1.));
#1114 = ( GEOMETRIC_REPRESENTATION_CONTEXT(2) 
PARAMETRIC_REPRESENTATION_CONTEXT() REPRESENTATION_CONTEXT('2D SPACE',''
  ) );
#1115 = PCURVE('',#730,#1116);
#1116 = DEFINITIONAL_REPRESENTATION('',(#1117),#1121);
#1117 = LINE('',#1118,#1119);
#1118 = CARTESIAN_POINT('',(0.,-0.));
#1119 = VECTOR('',#1120,1.);
#1120 = DIRECTION('',(0.,1.));
#1121 = ( GEOMETRIC_REPRESENTATION_CONTEXT(2) 
PARAMETRIC_REPRESENTATION_CONTEXT() REPRESENTATION_CONTEXT('2D SPACE',''
  ) );
#1122 = ORIENTED_EDGE('',*,*,#713,.T.);
#1123 = ORIENTED_EDGE('',*,*,#1102,.T.);
#1124 = ADVANCED_FACE('',(#1125),#783,.T.);
#1125 = FACE_BOUND('',#1126,.T.);
#1126 = EDGE_LOOP('',(#1127));
#1127 = ORIENTED_EDGE('',*,*,#768,.T.);
#1128 = ADVANCED_FACE('',(#1129),#821,.T.);
#1129 = FACE_BOUND('',#1130,.T.);
#1130 = EDGE_LOOP('',(#1131,#1132,#1155,#1183));
#1131 = ORIENTED_EDGE('',*,*,#804,.T.);
#1132 = ORIENTED_EDGE('',*,*,#1133,.T.);
#1133 = EDGE_CURVE('',#807,#1134,#1136,.T.);
#1134 = VERTEX_POINT('',#1135);
#1135 = CARTESIAN_POINT('',(4.44559707276,7.7,-267.8));
#1136 = SURFACE_CURVE('',#1137,(#1141,#1148),.PCURVE_S1.);
#1137 = LINE('',#1138,#1139);
#1138 = CARTESIAN_POINT('',(4.44559707276,7.7,-273.9));
#1139 = VECTOR('',#1140,1.);
#1140 = DIRECTION('',(0.,0.,1.));
#1141 = PCURVE('',#821,#1142);
#1142 = DEFINITIONAL_REPRESENTATION('',(#1143),#1147);
#1143 = LINE('',#1144,#1145);
#1144 = CARTESIAN_POINT('',(0.,0.));
#1145 = VECTOR('',#1146,1.);
#1146 = DIRECTION('',(0.,-1.));
#1147 = ( GEOMETRIC_REPRESENTATION_CONTEXT(2) 
PARAMETRIC_REPRESENTATION_CONTEXT() REPRESENTATION_CONTEXT('2D SPACE',''
  ) );
#1148 = PCURVE('',#847,#1149);
#1149 = DEFINITIONAL_REPRESENTATION('',(#1150),#1154);
#1150 = LINE('',#1151,#1152);
#1151 = CARTESIAN_POINT('',(8.89119414552,0.));
#1152 = VECTOR('',#1153,1.);
#1153 = DIRECTION('',(0.,-1.));
#1154 = ( GEOMETRIC_REPRESENTATION_CONTEXT(2) 
PARAMETRIC_REPRESENTATION_CONTEXT() REPRESENTATION_CONTEXT('2D SPACE',''
  ) );
#1155 = ORIENTED_EDGE('',*,*,#1156,.T.);
#1156 = EDGE_CURVE('',#1134,#1157,#1159,.T.);
#1157 = VERTEX_POINT('',#1158);
#1158 = CARTESIAN_POINT('',(-4.44559707276,7.7,-267.8));
#1159 = SURFACE_CURVE('',#1160,(#1164,#1171),.PCURVE_S1.);
#1160 = LINE('',#1161,#1162);
#1161 = CARTESIAN_POINT('',(4.44559707276,7.7,-267.8));
#1162 = VECTOR('',#1163,1.);
#1163 = DIRECTION('',(-1.,9.989416552642E-17,0.));
#1164 = PCURVE('',#821,#1165);
#1165 = DEFINITIONAL_REPRESENTATION('',(#1166),#1170);
#1166 = LINE('',#1167,#1168);
#1167 = CARTESIAN_POINT('',(0.,-6.1));
#1168 = VECTOR('',#1169,1.);
#1169 = DIRECTION('',(1.,0.));
#1170 = ( GEOMETRIC_REPRESENTATION_CONTEXT(2) 
PARAMETRIC_REPRESENTATION_CONTEXT() REPRESENTATION_CONTEXT('2D SPACE',''
  ) );
#1171 = PCURVE('',#1172,#1177);
#1172 = PLANE('',#1173);
#1173 = AXIS2_PLACEMENT_3D('',#1174,#1175,#1176);
#1174 = CARTESIAN_POINT('',(2.663844414038E-16,5.042051938155E-16,-267.8
    ));
#1175 = DIRECTION('',(0.,0.,1.));
#1176 = DIRECTION('',(1.,0.,-0.));
#1177 = DEFINITIONAL_REPRESENTATION('',(#1178),#1182);
#1178 = LINE('',#1179,#1180);
#1179 = CARTESIAN_POINT('',(4.44559707276,7.7));
#1180 = VECTOR('',#1181,1.);
#1181 = DIRECTION('',(-1.,9.989416552642E-17));
#1182 = ( GEOMETRIC_REPRESENTATION_CONTEXT(2) 
PARAMETRIC_REPRESENTATION_CONTEXT() REPRESENTATION_CONTEXT('2D SPACE',''
  ) );
#1183 = ORIENTED_EDGE('',*,*,#1184,.F.);
#1184 = EDGE_CURVE('',#805,#1157,#1185,.T.);
#1185 = SURFACE_CURVE('',#1186,(#1190,#1197),.PCURVE_S1.);
#1186 = LINE('',#1187,#1188);
#1187 = CARTESIAN_POINT('',(-4.44559707276,7.7,-273.9));
#1188 = VECTOR('',#1189,1.);
#1189 = DIRECTION('',(0.,0.,1.));
#1190 = PCURVE('',#821,#1191);
#1191 = DEFINITIONAL_REPRESENTATION('',(#1192),#1196);
#1192 = LINE('',#1193,#1194);
#1193 = CARTESIAN_POINT('',(8.89119414552,0.));
#1194 = VECTOR('',#1195,1.);
#1195 = DIRECTION('',(0.,-1.));
#1196 = ( GEOMETRIC_REPRESENTATION_CONTEXT(2) 
PARAMETRIC_REPRESENTATION_CONTEXT() REPRESENTATION_CONTEXT('2D SPACE',''
  ) );
#1197 = PCURVE('',#949,#1198);
#1198 = DEFINITIONAL_REPRESENTATION('',(#1199),#1203);
#1199 = LINE('',#1200,#1201);
#1200 = CARTESIAN_POINT('',(0.,0.));
#1201 = VECTOR('',#1202,1.);
#1202 = DIRECTION('',(0.,-1.));
#1203 = ( GEOMETRIC_REPRESENTATION_CONTEXT(2) 
PARAMETRIC_REPRESENTATION_CONTEXT() REPRESENTATION_CONTEXT('2D SPACE',''
  ) );
#1204 = ADVANCED_FACE('',(#1205),#949,.T.);
#1205 = FACE_BOUND('',#1206,.T.);
#1206 = EDGE_LOOP('',(#1207,#1208,#1209,#1232));
#1207 = ORIENTED_EDGE('',*,*,#936,.T.);
#1208 = ORIENTED_EDGE('',*,*,#1184,.T.);
#1209 = ORIENTED_EDGE('',*,*,#1210,.T.);
#1210 = EDGE_CURVE('',#1157,#1211,#1213,.T.);
#1211 = VERTEX_POINT('',#1212);
#1212 = CARTESIAN_POINT('',(-8.89119414552,1.088857245091E-15,-267.8));
#1213 = SURFACE_CURVE('',#1214,(#1218,#1225),.PCURVE_S1.);
#1214 = LINE('',#1215,#1216);
#1215 = CARTESIAN_POINT('',(-4.44559707276,7.7,-267.8));
#1216 = VECTOR('',#1217,1.);
#1217 = DIRECTION('',(-0.5,-0.866025403784,0.));
#1218 = PCURVE('',#949,#1219);
#1219 = DEFINITIONAL_REPRESENTATION('',(#1220),#1224);
#1220 = LINE('',#1221,#1222);
#1221 = CARTESIAN_POINT('',(0.,-6.1));
#1222 = VECTOR('',#1223,1.);
#1223 = DIRECTION('',(1.,0.));
#1224 = ( GEOMETRIC_REPRESENTATION_CONTEXT(2) 
PARAMETRIC_REPRESENTATION_CONTEXT() REPRESENTATION_CONTEXT('2D SPACE',''
  ) );
#1225 = PCURVE('',#1172,#1226);
#1226 = DEFINITIONAL_REPRESENTATION('',(#1227),#1231);
#1227 = LINE('',#1228,#1229);
#1228 = CARTESIAN_POINT('',(-4.44559707276,7.7));
#1229 = VECTOR('',#1230,1.);
#1230 = DIRECTION('',(-0.5,-0.866025403784));
#1231 = ( GEOMETRIC_REPRESENTATION_CONTEXT(2) 
PARAMETRIC_REPRESENTATION_CONTEXT() REPRESENTATION_CONTEXT('2D SPACE',''
  ) );
#1232 = ORIENTED_EDGE('',*,*,#1233,.F.);
#1233 = EDGE_CURVE('',#911,#1211,#1234,.T.);
#1234 = SURFACE_CURVE('',#1235,(#1239,#1246),.PCURVE_S1.);
#1235 = LINE('',#1236,#1237);
#1236 = CARTESIAN_POINT('',(-8.89119414552,1.088857245091E-15,-273.9));
#1237 = VECTOR('',#1238,1.);
#1238 = DIRECTION('',(0.,0.,1.));
#1239 = PCURVE('',#949,#1240);
#1240 = DEFINITIONAL_REPRESENTATION('',(#1241),#1245);
#1241 = LINE('',#1242,#1243);
#1242 = CARTESIAN_POINT('',(8.89119414552,0.));
#1243 = VECTOR('',#1244,1.);
#1244 = DIRECTION('',(0.,-1.));
#1245 = ( GEOMETRIC_REPRESENTATION_CONTEXT(2) 
PARAMETRIC_REPRESENTATION_CONTEXT() REPRESENTATION_CONTEXT('2D SPACE',''
  ) );
#1246 = PCURVE('',#925,#1247);
#1247 = DEFINITIONAL_REPRESENTATION('',(#1248),#1252);
#1248 = LINE('',#1249,#1250);
#1249 = CARTESIAN_POINT('',(0.,0.));
#1250 = VECTOR('',#1251,1.);
#1251 = DIRECTION('',(0.,-1.));
#1252 = ( GEOMETRIC_REPRESENTATION_CONTEXT(2) 
PARAMETRIC_REPRESENTATION_CONTEXT() REPRESENTATION_CONTEXT('2D SPACE',''
  ) );
#1253 = ADVANCED_FACE('',(#1254),#925,.T.);
#1254 = FACE_BOUND('',#1255,.T.);
#1255 = EDGE_LOOP('',(#1256,#1257,#1258,#1281));
#1256 = ORIENTED_EDGE('',*,*,#910,.T.);
#1257 = ORIENTED_EDGE('',*,*,#1233,.T.);
#1258 = ORIENTED_EDGE('',*,*,#1259,.T.);
#1259 = EDGE_CURVE('',#1211,#1260,#1262,.T.);
#1260 = VERTEX_POINT('',#1261);
#1261 = CARTESIAN_POINT('',(-4.44559707276,-7.7,-267.8));
#1262 = SURFACE_CURVE('',#1263,(#1267,#1274),.PCURVE_S1.);
#1263 = LINE('',#1264,#1265);
#1264 = CARTESIAN_POINT('',(-8.89119414552,1.088857245091E-15,-267.8));
#1265 = VECTOR('',#1266,1.);
#1266 = DIRECTION('',(0.5,-0.866025403784,0.));
#1267 = PCURVE('',#925,#1268);
#1268 = DEFINITIONAL_REPRESENTATION('',(#1269),#1273);
#1269 = LINE('',#1270,#1271);
#1270 = CARTESIAN_POINT('',(0.,-6.1));
#1271 = VECTOR('',#1272,1.);
#1272 = DIRECTION('',(1.,0.));
#1273 = ( GEOMETRIC_REPRESENTATION_CONTEXT(2) 
PARAMETRIC_REPRESENTATION_CONTEXT() REPRESENTATION_CONTEXT('2D SPACE',''
  ) );
#1274 = PCURVE('',#1172,#1275);
#1275 = DEFINITIONAL_REPRESENTATION('',(#1276),#1280);
#1276 = LINE('',#1277,#1278);
#1277 = CARTESIAN_POINT('',(-8.89119414552,5.846520512754E-16));
#1278 = VECTOR('',#1279,1.);
#1279 = DIRECTION('',(0.5,-0.866025403784));
#1280 = ( GEOMETRIC_REPRESENTATION_CONTEXT(2) 
PARAMETRIC_REPRESENTATION_CONTEXT() REPRESENTATION_CONTEXT('2D SPACE',''
  ) );
#1281 = ORIENTED_EDGE('',*,*,#1282,.F.);
#1282 = EDGE_CURVE('',#885,#1260,#1283,.T.);
#1283 = SURFACE_CURVE('',#1284,(#1288,#1295),.PCURVE_S1.);
#1284 = LINE('',#1285,#1286);
#1285 = CARTESIAN_POINT('',(-4.44559707276,-7.7,-273.9));
#1286 = VECTOR('',#1287,1.);
#1287 = DIRECTION('',(0.,0.,1.));
#1288 = PCURVE('',#925,#1289);
#1289 = DEFINITIONAL_REPRESENTATION('',(#1290),#1294);
#1290 = LINE('',#1291,#1292);
#1291 = CARTESIAN_POINT('',(8.89119414552,0.));
#1292 = VECTOR('',#1293,1.);
#1293 = DIRECTION('',(0.,-1.));
#1294 = ( GEOMETRIC_REPRESENTATION_CONTEXT(2) 
PARAMETRIC_REPRESENTATION_CONTEXT() REPRESENTATION_CONTEXT('2D SPACE',''
  ) );
#1295 = PCURVE('',#899,#1296);
#1296 = DEFINITIONAL_REPRESENTATION('',(#1297),#1301);
#1297 = LINE('',#1298,#1299);
#1298 = CARTESIAN_POINT('',(0.,0.));
#1299 = VECTOR('',#1300,1.);
#1300 = DIRECTION('',(0.,-1.));
#1301 = ( GEOMETRIC_REPRESENTATION_CONTEXT(2) 
PARAMETRIC_REPRESENTATION_CONTEXT() REPRESENTATION_CONTEXT('2D SPACE',''
  ) );
#1302 = ADVANCED_FACE('',(#1303),#899,.T.);
#1303 = FACE_BOUND('',#1304,.T.);
#1304 = EDGE_LOOP('',(#1305,#1306,#1307,#1330));
#1305 = ORIENTED_EDGE('',*,*,#884,.T.);
#1306 = ORIENTED_EDGE('',*,*,#1282,.T.);
#1307 = ORIENTED_EDGE('',*,*,#1308,.T.);
#1308 = EDGE_CURVE('',#1260,#1309,#1311,.T.);
#1309 = VERTEX_POINT('',#1310);
#1310 = CARTESIAN_POINT('',(4.44559707276,-7.7,-267.8));
#1311 = SURFACE_CURVE('',#1312,(#1316,#1323),.PCURVE_S1.);
#1312 = LINE('',#1313,#1314);
#1313 = CARTESIAN_POINT('',(-4.44559707276,-7.7,-267.8));
#1314 = VECTOR('',#1315,1.);
#1315 = DIRECTION('',(1.,-2.996824965793E-16,0.));
#1316 = PCURVE('',#899,#1317);
#1317 = DEFINITIONAL_REPRESENTATION('',(#1318),#1322);
#1318 = LINE('',#1319,#1320);
#1319 = CARTESIAN_POINT('',(0.,-6.1));
#1320 = VECTOR('',#1321,1.);
#1321 = DIRECTION('',(1.,0.));
#1322 = ( GEOMETRIC_REPRESENTATION_CONTEXT(2) 
PARAMETRIC_REPRESENTATION_CONTEXT() REPRESENTATION_CONTEXT('2D SPACE',''
  ) );
#1323 = PCURVE('',#1172,#1324);
#1324 = DEFINITIONAL_REPRESENTATION('',(#1325),#1329);
#1325 = LINE('',#1326,#1327);
#1326 = CARTESIAN_POINT('',(-4.44559707276,-7.7));
#1327 = VECTOR('',#1328,1.);
#1328 = DIRECTION('',(1.,-2.996824965793E-16));
#1329 = ( GEOMETRIC_REPRESENTATION_CONTEXT(2) 
PARAMETRIC_REPRESENTATION_CONTEXT() REPRESENTATION_CONTEXT('2D SPACE',''
  ) );
#1330 = ORIENTED_EDGE('',*,*,#1331,.F.);
#1331 = EDGE_CURVE('',#859,#1309,#1332,.T.);
#1332 = SURFACE_CURVE('',#1333,(#1337,#1344),.PCURVE_S1.);
#1333 = LINE('',#1334,#1335);
#1334 = CARTESIAN_POINT('',(4.44559707276,-7.7,-273.9));
#1335 = VECTOR('',#1336,1.);
#1336 = DIRECTION('',(0.,0.,1.));
#1337 = PCURVE('',#899,#1338);
#1338 = DEFINITIONAL_REPRESENTATION('',(#1339),#1343);
#1339 = LINE('',#1340,#1341);
#1340 = CARTESIAN_POINT('',(8.89119414552,0.));
#1341 = VECTOR('',#1342,1.);
#1342 = DIRECTION('',(0.,-1.));
#1343 = ( GEOMETRIC_REPRESENTATION_CONTEXT(2) 
PARAMETRIC_REPRESENTATION_CONTEXT() REPRESENTATION_CONTEXT('2D SPACE',''
  ) );
#1344 = PCURVE('',#873,#1345);
#1345 = DEFINITIONAL_REPRESENTATION('',(#1346),#1350);
#1346 = LINE('',#1347,#1348);
#1347 = CARTESIAN_POINT('',(0.,0.));
#1348 = VECTOR('',#1349,1.);
#1349 = DIRECTION('',(0.,-1.));
#1350 = ( GEOMETRIC_REPRESENTATION_CONTEXT(2) 
PARAMETRIC_REPRESENTATION_CONTEXT() REPRESENTATION_CONTEXT('2D SPACE',''
  ) );
#1351 = ADVANCED_FACE('',(#1352),#873,.T.);
#1352 = FACE_BOUND('',#1353,.T.);
#1353 = EDGE_LOOP('',(#1354,#1355,#1356,#1379));
#1354 = ORIENTED_EDGE('',*,*,#858,.T.);
#1355 = ORIENTED_EDGE('',*,*,#1331,.T.);
#1356 = ORIENTED_EDGE('',*,*,#1357,.T.);
#1357 = EDGE_CURVE('',#1309,#1358,#1360,.T.);
#1358 = VERTEX_POINT('',#1359);
#1359 = CARTESIAN_POINT('',(8.89119414552,0.,-267.8));
#1360 = SURFACE_CURVE('',#1361,(#1365,#1372),.PCURVE_S1.);
#1361 = LINE('',#1362,#1363);
#1362 = CARTESIAN_POINT('',(4.44559707276,-7.7,-267.8));
#1363 = VECTOR('',#1364,1.);
#1364 = DIRECTION('',(0.5,0.866025403784,0.));
#1365 = PCURVE('',#873,#1366);
#1366 = DEFINITIONAL_REPRESENTATION('',(#1367),#1371);
#1367 = LINE('',#1368,#1369);
#1368 = CARTESIAN_POINT('',(0.,-6.1));
#1369 = VECTOR('',#1370,1.);
#1370 = DIRECTION('',(1.,0.));
#1371 = ( GEOMETRIC_REPRESENTATION_CONTEXT(2) 
PARAMETRIC_REPRESENTATION_CONTEXT() REPRESENTATION_CONTEXT('2D SPACE',''
  ) );
#1372 = PCURVE('',#1172,#1373);
#1373 = DEFINITIONAL_REPRESENTATION('',(#1374),#1378);
#1374 = LINE('',#1375,#1376);
#1375 = CARTESIAN_POINT('',(4.44559707276,-7.7));
#1376 = VECTOR('',#1377,1.);
#1377 = DIRECTION('',(0.5,0.866025403784));
#1378 = ( GEOMETRIC_REPRESENTATION_CONTEXT(2) 
PARAMETRIC_REPRESENTATION_CONTEXT() REPRESENTATION_CONTEXT('2D SPACE',''
  ) );
#1379 = ORIENTED_EDGE('',*,*,#1380,.F.);
#1380 = EDGE_CURVE('',#833,#1358,#1381,.T.);
#1381 = SURFACE_CURVE('',#1382,(#1386,#1393),.PCURVE_S1.);
#1382 = LINE('',#1383,#1384);
#1383 = CARTESIAN_POINT('',(8.89119414552,0.,-273.9));
#1384 = VECTOR('',#1385,1.);
#1385 = DIRECTION('',(0.,0.,1.));
#1386 = PCURVE('',#873,#1387);
#1387 = DEFINITIONAL_REPRESENTATION('',(#1388),#1392);
#1388 = LINE('',#1389,#1390);
#1389 = CARTESIAN_POINT('',(8.89119414552,0.));
#1390 = VECTOR('',#1391,1.);
#1391 = DIRECTION('',(0.,-1.));
#1392 = ( GEOMETRIC_REPRESENTATION_CONTEXT(2) 
PARAMETRIC_REPRESENTATION_CONTEXT() REPRESENTATION_CONTEXT('2D SPACE',''
  ) );
#1393 = PCURVE('',#847,#1394);
#1394 = DEFINITIONAL_REPRESENTATION('',(#1395),#1399);
#1395 = LINE('',#1396,#1397);
#1396 = CARTESIAN_POINT('',(0.,0.));
#1397 = VECTOR('',#1398,1.);
#1398 = DIRECTION('',(0.,-1.));
#1399 = ( GEOMETRIC_REPRESENTATION_CONTEXT(2) 
PARAMETRIC_REPRESENTATION_CONTEXT() REPRESENTATION_CONTEXT('2D SPACE',''
  ) );
#1400 = ADVANCED_FACE('',(#1401),#847,.T.);
#1401 = FACE_BOUND('',#1402,.T.);
#1402 = EDGE_LOOP('',(#1403,#1404,#1405,#1426));
#1403 = ORIENTED_EDGE('',*,*,#832,.T.);
#1404 = ORIENTED_EDGE('',*,*,#1380,.T.);
#1405 = ORIENTED_EDGE('',*,*,#1406,.T.);
#1406 = EDGE_CURVE('',#1358,#1134,#1407,.T.);
#1407 = SURFACE_CURVE('',#1408,(#1412,#1419),.PCURVE_S1.);
#1408 = LINE('',#1409,#1410);
#1409 = CARTESIAN_POINT('',(8.89119414552,0.,-267.8));
#1410 = VECTOR('',#1411,1.);
#1411 = DIRECTION('',(-0.5,0.866025403784,0.));
#1412 = PCURVE('',#847,#1413);
#1413 = DEFINITIONAL_REPRESENTATION('',(#1414),#1418);
#1414 = LINE('',#1415,#1416);
#1415 = CARTESIAN_POINT('',(0.,-6.1));
#1416 = VECTOR('',#1417,1.);
#1417 = DIRECTION('',(1.,0.));
#1418 = ( GEOMETRIC_REPRESENTATION_CONTEXT(2) 
PARAMETRIC_REPRESENTATION_CONTEXT() REPRESENTATION_CONTEXT('2D SPACE',''
  ) );
#1419 = PCURVE('',#1172,#1420);
#1420 = DEFINITIONAL_REPRESENTATION('',(#1421),#1425);
#1421 = LINE('',#1422,#1423);
#1422 = CARTESIAN_POINT('',(8.89119414552,-5.042051938155E-16));
#1423 = VECTOR('',#1424,1.);
#1424 = DIRECTION('',(-0.5,0.866025403784));
#1425 = ( GEOMETRIC_REPRESENTATION_CONTEXT(2) 
PARAMETRIC_REPRESENTATION_CONTEXT() REPRESENTATION_CONTEXT('2D SPACE',''
  ) );
#1426 = ORIENTED_EDGE('',*,*,#1133,.F.);
#1427 = ADVANCED_FACE('',(#1428),#1001,.T.);
#1428 = FACE_BOUND('',#1429,.T.);
#1429 = EDGE_LOOP('',(#1430));
#1430 = ORIENTED_EDGE('',*,*,#986,.T.);
#1431 = ADVANCED_FACE('',(#1432),#1056,.T.);
#1432 = FACE_BOUND('',#1433,.T.);
#1433 = EDGE_LOOP('',(#1434));
#1434 = ORIENTED_EDGE('',*,*,#1041,.T.);
#1435 = ADVANCED_FACE('',(#1436),#1090,.T.);
#1436 = FACE_BOUND('',#1437,.T.);
#1437 = EDGE_LOOP('',(#1438));
#1438 = ORIENTED_EDGE('',*,*,#1073,.T.);
#1439 = ADVANCED_FACE('',(#1440),#1172,.F.);
#1440 = FACE_BOUND('',#1441,.F.);
#1441 = EDGE_LOOP('',(#1442,#1443,#1444,#1445,#1446,#1447));
#1442 = ORIENTED_EDGE('',*,*,#1406,.T.);
#1443 = ORIENTED_EDGE('',*,*,#1156,.T.);
#1444 = ORIENTED_EDGE('',*,*,#1210,.T.);
#1445 = ORIENTED_EDGE('',*,*,#1259,.T.);
#1446 = ORIENTED_EDGE('',*,*,#1308,.T.);
#1447 = ORIENTED_EDGE('',*,*,#1357,.T.);
#1448 = ( GEOMETRIC_REPRESENTATION_CONTEXT(3) 
GLOBAL_UNCERTAINTY_ASSIGNED_CONTEXT((#1452)) 
GLOBAL_UNIT_ASSIGNED_CONTEXT((#1449,#1450,#1451)) REPRESENTATION_CONTEXT
('Context #1','3D Context with UNIT and UNCERTAINTY') );
#1449 = ( LENGTH_UNIT() NAMED_UNIT(*) SI_UNIT(.MILLI.,.METRE.) );
#1450 = ( NAMED_UNIT(*) PLANE_ANGLE_UNIT() SI_UNIT($,.RADIAN.) );
#1451 = ( NAMED_UNIT(*) SI_UNIT($,.STERADIAN.) SOLID_ANGLE_UNIT() );
#1452 = UNCERTAINTY_MEASURE_WITH_UNIT(LENGTH_MEASURE(1.E-07),#1449,
  'distance_accuracy_value','confusion accuracy');
#1453 = PRODUCT_RELATED_PRODUCT_CATEGORY('part',$,(#7));
ENDSEC;
END-ISO-10303-21;
